<ttFont>
<head>
    <!-- Most of this table will be recalculated by the compiler -->
    <tableVersion value="1.0"/>
    <fontRevision value="1.0"/>
    <checkSumAdjustment value="0x564fd3f6"/>
    <magicNumber value="0x5f0f3cf5"/>
    <flags value="00000000 00011111"/>
    <unitsPerEm value="2048"/>
    <created value="Thu Apr  7 14:57:05 2011"/>
    <modified value="Mon Apr 11 20:00:31 2011"/>
    <xMin value="-194"/>
    <yMin value="-841"/>
    <xMax value="2698"/>
    <yMax value="2360"/>
    <macStyle value="00000000 00000000"/>
    <lowestRecPPEM value="9"/>
    <fontDirectionHint value="2"/>
    <indexToLocFormat value="0"/>
    <glyphDataFormat value="0"/>
  </head>
    <TTGlyph name="A" xMin="80" yMin="0" xMax="1500" yMax="1408">
      <contour>
        <pt x="470" y="1408" on="1"/>
        <pt x="1092" y="1408" on="1"/>
        <pt x="1500" y="0" on="1"/>
        <pt x="1018" y="0" on="1"/>
        <pt x="964" y="270" on="1"/>
        <pt x="600" y="270" on="1"/>
        <pt x="542" y="0" on="1"/>
        <pt x="80" y="0" on="1"/>
      </contour>
      <contour>
        <pt x="916" y="522" on="1"/>
        <pt x="782" y="1138" on="1"/>
        <pt x="644" y="522" on="1"/>
      </contour>
    </TTGlyph>
    <TTGlyph name="AE" xMin="58" yMin="0" xMax="1962" yMax="1376">
      <contour>
        <pt x="540" y="1376" on="1"/>
        <pt x="1716" y="1376" on="1"/>
        <pt x="1772" y="1066" on="1"/>
        <pt x="1222" y="1066" on="1"/>
        <pt x="1266" y="842" on="1"/>
        <pt x="1766" y="842" on="1"/>
        <pt x="1816" y="584" on="1"/>
        <pt x="1318" y="584" on="1"/>
        <pt x="1378" y="308" on="1"/>
        <pt x="1906" y="308" on="1"/>
        <pt x="1962" y="0" on="1"/>
        <pt x="982" y="0" on="1"/>
        <pt x="936" y="270" on="1"/>
        <pt x="590" y="270" on="1"/>
        <pt x="506" y="0" on="1"/>
        <pt x="58" y="0" on="1"/>
      </contour>
      <contour>
        <pt x="888" y="522" on="1"/>
        <pt x="804" y="1004" on="1"/>
        <pt x="666" y="522" on="1"/>
      </contour>
    </TTGlyph>
    <TTGlyph name="Aacute" xMin="80" yMin="0" xMax="1500" yMax="2140">
      <component glyphName="A" x="0" y="0" flags="0x4"/>
      <component glyphName="acute" x="342" y="350" flags="0x4"/>
    </TTGlyph>
    <TTGlyph name="Abreve" xMin="80" yMin="0" xMax="1500" yMax="1850">
      <component glyphName="A" x="0" y="0" flags="0x4"/>
      <component glyphName="breve" x="378" y="350" flags="0x4"/>
    </TTGlyph>
    <TTGlyph name="Acircumflex" xMin="80" yMin="0" xMax="1500" yMax="1990">
      <component glyphName="A" x="0" y="0" flags="0x4"/>
      <component glyphName="circumflex" x="260" y="350" flags="0x4"/>
    </TTGlyph>
    <TTGlyph name="Adieresis" xMin="80" yMin="0" xMax="1500" yMax="1886">
      <component glyphName="A" x="0" y="0" flags="0x4"/>
      <component glyphName="dieresis" x="126" y="350" flags="0x4"/>
    </TTGlyph>
    <TTGlyph name="Agrave" xMin="80" yMin="0" xMax="1500" yMax="2140">
      <component glyphName="A" x="0" y="0" flags="0x4"/>
      <component glyphName="grave" x="342" y="350" flags="0x4"/>
    </TTGlyph>
    <TTGlyph name="Amacron" xMin="80" yMin="0" xMax="1500" yMax="1726">
      <component glyphName="A" x="0" y="0" flags="0x4"/>
      <component glyphName="hyphen" x="458" y="1112" flags="0x4"/>
    </TTGlyph>
    <TTGlyph name="Aogonek" xMin="80" yMin="-508" xMax="1512" yMax="1408">
      <component glyphName="A" x="0" y="0" flags="0x4"/>
      <component glyphName="ogonek" x="1004" y="0" flags="0x4"/>
    </TTGlyph>
    <TTGlyph name="Aring" xMin="80" yMin="0" xMax="1500" yMax="2204">
      <component glyphName="A" x="0" y="0" flags="0x4"/>
      <component glyphName="ring" x="330" y="350" flags="0x4"/>
    </TTGlyph>
    <TTGlyph name="Atilde" xMin="80" yMin="0" xMax="1500" yMax="1962">
      <component glyphName="A" x="0" y="0" flags="0x4"/>
      <component glyphName="tilde" x="190" y="350" flags="0x4"/>
    </TTGlyph>
    <TTGlyph name="B" xMin="172" yMin="-32" xMax="1464" yMax="1408">
      <contour>
        <pt x="172" y="1408" on="1"/>
        <pt x="876" y="1408" on="1"/>
        <pt x="1005" y="1408" on="0"/>
        <pt x="1201" y="1352" on="0"/>
        <pt x="1333" y="1258" on="0"/>
        <pt x="1400" y="1134" on="0"/>
        <pt x="1400" y="1066" on="1"/>
        <pt x="1400" y="1027" on="0"/>
        <pt x="1384" y="932" on="0"/>
        <pt x="1336" y="844" on="0"/>
        <pt x="1248" y="777" on="0"/>
        <pt x="1176" y="766" on="1"/>
        <pt x="1238" y="760" on="0"/>
        <pt x="1328" y="721" on="0"/>
        <pt x="1392" y="665" on="0"/>
        <pt x="1433" y="596" on="0"/>
        <pt x="1456" y="525" on="0"/>
        <pt x="1464" y="456" on="0"/>
        <pt x="1464" y="428" on="1"/>
        <pt x="1464" y="347" on="0"/>
        <pt x="1387" y="183" on="0"/>
        <pt x="1237" y="51" on="0"/>
        <pt x="1014" y="-32" on="0"/>
        <pt x="868" y="-32" on="1"/>
        <pt x="684" y="-32" on="0"/>
        <pt x="343" y="-13" on="0"/>
        <pt x="172" y="-2" on="1"/>
      </contour>
      <contour>
        <pt x="626" y="306" on="1"/>
        <pt x="677" y="303" on="0"/>
        <pt x="742" y="299" on="0"/>
        <pt x="785" y="297" on="0"/>
        <pt x="814" y="296" on="0"/>
        <pt x="828" y="296" on="1"/>
        <pt x="873" y="296" on="0"/>
        <pt x="942" y="324" on="0"/>
        <pt x="990" y="369" on="0"/>
        <pt x="1014" y="426" on="0"/>
        <pt x="1014" y="456" on="1"/>
        <pt x="1014" y="492" on="0"/>
        <pt x="987" y="554" on="0"/>
        <pt x="934" y="600" on="0"/>
        <pt x="854" y="626" on="0"/>
        <pt x="802" y="626" on="1"/>
        <pt x="626" y="626" on="1"/>
      </contour>
      <contour>
        <pt x="790" y="852" on="1"/>
        <pt x="837" y="852" on="0"/>
        <pt x="907" y="877" on="0"/>
        <pt x="952" y="917" on="0"/>
        <pt x="974" y="967" on="0"/>
        <pt x="974" y="992" on="1"/>
        <pt x="974" y="1014" on="0"/>
        <pt x="961" y="1065" on="0"/>
        <pt x="922" y="1108" on="0"/>
        <pt x="852" y="1136" on="0"/>
        <pt x="794" y="1136" on="1"/>
        <pt x="628" y="1136" on="1"/>
        <pt x="628" y="852" on="1"/>
      </contour>
    </TTGlyph>
    <TTGlyph name="C" xMin="88" yMin="-32" xMax="1208" yMax="1439">
      <contour>
        <pt x="1206" y="74" on="1"/>
        <pt x="1112" y="20" on="0"/>
        <pt x="922" y="-32" on="0"/>
        <pt x="822" y="-32" on="1"/>
        <pt x="726" y="-32" on="0"/>
        <pt x="543" y="15" on="0"/>
        <pt x="381" y="103" on="0"/>
        <pt x="244" y="232" on="0"/>
        <pt x="145" y="396" on="0"/>
        <pt x="89" y="593" on="0"/>
        <pt x="88" y="705" on="1"/>
        <pt x="88" y="873" on="0"/>
        <pt x="206" y="1145" on="0"/>
        <pt x="405" y="1336" on="0"/>
        <pt x="667" y="1439" on="0"/>
        <pt x="810" y="1439" on="1"/>
        <pt x="910" y="1439" on="0"/>
        <pt x="1108" y="1394" on="0"/>
        <pt x="1208" y="1337" on="1"/>
        <pt x="1154" y="1019" on="1"/>
        <pt x="1082" y="1047" on="0"/>
        <pt x="954" y="1075" on="0"/>
        <pt x="888" y="1075" on="1"/>
        <pt x="814" y="1075" on="0"/>
        <pt x="689" y="1032" on="0"/>
        <pt x="599" y="942" on="0"/>
        <pt x="548" y="803" on="0"/>
        <pt x="548" y="707" on="1"/>
        <pt x="548" y="612" on="0"/>
        <pt x="602" y="474" on="0"/>
        <pt x="697" y="382" on="0"/>
        <pt x="826" y="338" on="0"/>
        <pt x="900" y="338" on="1"/>
        <pt x="963" y="338" on="0"/>
        <pt x="1085" y="369" on="0"/>
        <pt x="1154" y="396" on="1"/>
      </contour>
    </TTGlyph>
    <TTGlyph name="Cacute" xMin="88" yMin="-32" xMax="1208" yMax="2140">
      <component glyphName="C" x="0" y="0" flags="0x4"/>
      <component glyphName="acute" x="286" y="350" flags="0x4"/>
    </TTGlyph>
    <TTGlyph name="Ccaron" xMin="88" yMin="-32" xMax="1208" yMax="1990">
      <component glyphName="C" x="0" y="0" flags="0x4"/>
      <component glyphName="caron" x="206" y="350" flags="0x4"/>
    </TTGlyph>
    <TTGlyph name="Ccedilla" xMin="88" yMin="-508" xMax="1208" yMax="1439">
      <component glyphName="C" x="0" y="0" flags="0x4"/>
      <component glyphName="cedilla" x="392" y="0" flags="0x4"/>
    </TTGlyph>
    <TTGlyph name="Ccircumflex" xMin="88" yMin="-32" xMax="1208" yMax="1990">
      <component glyphName="C" x="0" y="0" flags="0x4"/>
      <component glyphName="circumflex" x="206" y="350" flags="0x4"/>
    </TTGlyph>
    <TTGlyph name="Cdotaccent" xMin="88" yMin="-32" xMax="1208" yMax="1928">
      <component glyphName="C" x="0" y="0" flags="0x4"/>
      <component glyphName="dotaccent" x="378" y="350" flags="0x4"/>
    </TTGlyph>
    <TTGlyph name="D" xMin="174" yMin="0" xMax="1540" yMax="1408">
      <contour>
        <pt x="174" y="1408" on="1"/>
        <pt x="786" y="1408" on="1"/>
        <pt x="912" y="1408" on="0"/>
        <pt x="1121" y="1354" on="0"/>
        <pt x="1289" y="1259" on="0"/>
        <pt x="1414" y="1129" on="0"/>
        <pt x="1498" y="975" on="0"/>
        <pt x="1540" y="803" on="0"/>
        <pt x="1540" y="714" on="1"/>
        <pt x="1540" y="568" on="0"/>
        <pt x="1442" y="309" on="0"/>
        <pt x="1252" y="114" on="0"/>
        <pt x="970" y="0" on="0"/>
        <pt x="786" y="0" on="1"/>
        <pt x="174" y="0" on="1"/>
      </contour>
      <contour>
        <pt x="786" y="368" on="1"/>
        <pt x="859" y="368" on="0"/>
        <pt x="970" y="432" on="0"/>
        <pt x="1043" y="532" on="0"/>
        <pt x="1080" y="657" on="0"/>
        <pt x="1080" y="718" on="1"/>
        <pt x="1080" y="777" on="0"/>
        <pt x="1044" y="893" on="0"/>
        <pt x="971" y="984" on="0"/>
        <pt x="861" y="1040" on="0"/>
        <pt x="786" y="1040" on="1"/>
        <pt x="626" y="1040" on="1"/>
        <pt x="626" y="368" on="1"/>
      </contour>
    </TTGlyph>
    <TTGlyph name="Dcaron" xMin="174" yMin="0" xMax="1540" yMax="1990">
      <component glyphName="D" x="0" y="0" flags="0x4"/>
      <component glyphName="caron" x="348" y="350" flags="0x4"/>
    </TTGlyph>
    <TTGlyph name="Dcroat" xMin="128" yMin="0" xMax="1550" yMax="1376">
      <contour>
        <pt x="128" y="766" on="1"/>
        <pt x="184" y="766" on="1"/>
        <pt x="184" y="1376" on="1"/>
        <pt x="796" y="1376" on="1"/>
        <pt x="921" y="1376" on="0"/>
        <pt x="1129" y="1323" on="0"/>
        <pt x="1297" y="1228" on="0"/>
        <pt x="1423" y="1099" on="0"/>
        <pt x="1508" y="949" on="0"/>
        <pt x="1550" y="782" on="0"/>
        <pt x="1550" y="698" on="1"/>
        <pt x="1550" y="609" on="0"/>
        <pt x="1508" y="437" on="0"/>
        <pt x="1424" y="282" on="0"/>
        <pt x="1297" y="150" on="0"/>
        <pt x="1130" y="54" on="0"/>
        <pt x="921" y="0" on="0"/>
        <pt x="796" y="0" on="1"/>
        <pt x="184" y="0" on="1"/>
        <pt x="184" y="592" on="1"/>
        <pt x="128" y="592" on="1"/>
      </contour>
      <contour>
        <pt x="796" y="368" on="1"/>
        <pt x="868" y="368" on="0"/>
        <pt x="978" y="425" on="0"/>
        <pt x="1052" y="518" on="0"/>
        <pt x="1090" y="638" on="0"/>
        <pt x="1090" y="702" on="1"/>
        <pt x="1090" y="757" on="0"/>
        <pt x="1053" y="866" on="0"/>
        <pt x="980" y="953" on="0"/>
        <pt x="869" y="1008" on="0"/>
        <pt x="796" y="1008" on="1"/>
        <pt x="636" y="1008" on="1"/>
        <pt x="636" y="766" on="1"/>
        <pt x="768" y="766" on="1"/>
        <pt x="768" y="592" on="1"/>
        <pt x="636" y="592" on="1"/>
        <pt x="636" y="368" on="1"/>
      </contour>
    </TTGlyph>
    <TTGlyph name="Delta" xMin="96" yMin="0" xMax="1206" yMax="1376">
      <contour>
        <pt x="466" y="1376" on="1"/>
        <pt x="830" y="1376" on="1"/>
        <pt x="1206" y="0" on="1"/>
        <pt x="96" y="0" on="1"/>
      </contour>
      <contour>
        <pt x="844" y="230" on="1"/>
        <pt x="650" y="1060" on="1"/>
        <pt x="462" y="230" on="1"/>
      </contour>
    </TTGlyph>
    <TTGlyph name="E" xMin="174" yMin="0" xMax="1162" yMax="1408">
      <contour>
        <pt x="174" y="1408" on="1"/>
        <pt x="1162" y="1408" on="1"/>
        <pt x="1162" y="1098" on="1"/>
        <pt x="670" y="1098" on="1"/>
        <pt x="670" y="842" on="1"/>
        <pt x="1120" y="842" on="1"/>
        <pt x="1120" y="584" on="1"/>
        <pt x="670" y="584" on="1"/>
        <pt x="670" y="308" on="1"/>
        <pt x="1162" y="308" on="1"/>
        <pt x="1162" y="0" on="1"/>
        <pt x="174" y="0" on="1"/>
      </contour>
    </TTGlyph>
    <TTGlyph name="Eacute" xMin="174" yMin="0" xMax="1162" yMax="2140">
      <component glyphName="E" x="0" y="0" flags="0x4"/>
      <component glyphName="acute" x="276" y="350" flags="0x4"/>
    </TTGlyph>
    <TTGlyph name="Ebreve" xMin="174" yMin="0" xMax="1162" yMax="1850">
      <component glyphName="E" x="0" y="0" flags="0x4"/>
      <component glyphName="breve" x="262" y="350" flags="0x4"/>
    </TTGlyph>
    <TTGlyph name="Ecaron" xMin="174" yMin="0" xMax="1162" yMax="1990">
      <component glyphName="E" x="0" y="0" flags="0x4"/>
      <component glyphName="caron" x="192" y="350" flags="0x4"/>
    </TTGlyph>
    <TTGlyph name="Ecircumflex" xMin="174" yMin="0" xMax="1162" yMax="1990">
      <component glyphName="E" x="0" y="0" flags="0x4"/>
      <component glyphName="circumflex" x="196" y="350" flags="0x4"/>
    </TTGlyph>
    <TTGlyph name="Edieresis" xMin="144" yMin="0" xMax="1222" yMax="1886">
      <component glyphName="E" x="0" y="0" flags="0x4"/>
      <component glyphName="dieresis" x="60" y="350" flags="0x4"/>
    </TTGlyph>
    <TTGlyph name="Edotaccent" xMin="174" yMin="0" xMax="1162" yMax="1928">
      <component glyphName="E" x="0" y="0" flags="0x4"/>
      <component glyphName="dotaccent" x="366" y="350" flags="0x4"/>
    </TTGlyph>
    <TTGlyph name="Egrave" xMin="174" yMin="0" xMax="1162" yMax="2140">
      <component glyphName="E" x="0" y="0" flags="0x4"/>
      <component glyphName="grave" x="276" y="350" flags="0x4"/>
    </TTGlyph>
    <TTGlyph name="Emacron" xMin="174" yMin="0" xMax="1162" yMax="1726">
      <component glyphName="E" x="0" y="0" flags="0x4"/>
      <component glyphName="hyphen" x="342" y="1112" flags="0x4"/>
    </TTGlyph>
    <TTGlyph name="Eng" xMin="184" yMin="-508" xMax="1522" yMax="1376">
      <contour>
        <pt x="184" y="1376" on="1"/>
        <pt x="594" y="1376" on="1"/>
        <pt x="1156" y="650" on="1"/>
        <pt x="1156" y="1376" on="1"/>
        <pt x="1522" y="1376" on="1"/>
        <pt x="1522" y="-32" on="1"/>
        <pt x="1522" y="-155" on="0"/>
        <pt x="1457" y="-335" on="0"/>
        <pt x="1350" y="-452" on="0"/>
        <pt x="1211" y="-508" on="0"/>
        <pt x="1138" y="-508" on="1"/>
        <pt x="1045" y="-508" on="0"/>
        <pt x="869" y="-459" on="0"/>
        <pt x="788" y="-426" on="1"/>
        <pt x="882" y="-172" on="1"/>
        <pt x="920" y="-184" on="0"/>
        <pt x="988" y="-202" on="0"/>
        <pt x="1024" y="-202" on="1"/>
        <pt x="1051" y="-202" on="0"/>
        <pt x="1100" y="-186" on="0"/>
        <pt x="1137" y="-147" on="0"/>
        <pt x="1158" y="-82" on="0"/>
        <pt x="1158" y="-32" on="1"/>
        <pt x="548" y="734" on="1"/>
        <pt x="548" y="0" on="1"/>
        <pt x="184" y="0" on="1"/>
      </contour>
    </TTGlyph>
    <TTGlyph name="Eogonek" xMin="174" yMin="-508" xMax="1178" yMax="1408">
      <component glyphName="E" x="0" y="0" flags="0x4"/>
      <component glyphName="ogonek" x="670" y="0" flags="0x4"/>
    </TTGlyph>
    <TTGlyph name="Eth" xMin="0" yMin="0" xMax="1550" yMax="1376">
      <contour>
        <pt x="0" y="618" on="1"/>
        <pt x="0" y="792" on="1"/>
        <pt x="184" y="792" on="1"/>
        <pt x="184" y="1376" on="1"/>
        <pt x="796" y="1376" on="1"/>
        <pt x="921" y="1376" on="0"/>
        <pt x="1129" y="1323" on="0"/>
        <pt x="1297" y="1228" on="0"/>
        <pt x="1423" y="1099" on="0"/>
        <pt x="1508" y="949" on="0"/>
        <pt x="1550" y="782" on="0"/>
        <pt x="1550" y="698" on="1"/>
        <pt x="1550" y="609" on="0"/>
        <pt x="1508" y="437" on="0"/>
        <pt x="1424" y="282" on="0"/>
        <pt x="1297" y="150" on="0"/>
        <pt x="1130" y="54" on="0"/>
        <pt x="921" y="0" on="0"/>
        <pt x="796" y="0" on="1"/>
        <pt x="184" y="0" on="1"/>
        <pt x="184" y="618" on="1"/>
      </contour>
      <contour>
        <pt x="796" y="368" on="1"/>
        <pt x="868" y="368" on="0"/>
        <pt x="978" y="425" on="0"/>
        <pt x="1052" y="518" on="0"/>
        <pt x="1090" y="638" on="0"/>
        <pt x="1090" y="702" on="1"/>
        <pt x="1090" y="757" on="0"/>
        <pt x="1053" y="866" on="0"/>
        <pt x="980" y="953" on="0"/>
        <pt x="869" y="1008" on="0"/>
        <pt x="796" y="1008" on="1"/>
        <pt x="636" y="1008" on="1"/>
        <pt x="636" y="792" on="1"/>
        <pt x="798" y="792" on="1"/>
        <pt x="798" y="618" on="1"/>
        <pt x="636" y="618" on="1"/>
        <pt x="636" y="368" on="1"/>
      </contour>
    </TTGlyph>
    <TTGlyph name="Euro" xMin="0" yMin="-32" xMax="1232" yMax="1414">
      <contour>
        <pt x="0" y="614" on="1"/>
        <pt x="912" y="614" on="1"/>
        <pt x="912" y="492" on="1"/>
        <pt x="0" y="492" on="1"/>
      </contour>
      <contour>
        <pt x="0" y="892" on="1"/>
        <pt x="912" y="892" on="1"/>
        <pt x="912" y="766" on="1"/>
        <pt x="0" y="766" on="1"/>
      </contour>
      <contour>
        <pt x="1230" y="74" on="1"/>
        <pt x="1137" y="20" on="0"/>
        <pt x="945" y="-32" on="0"/>
        <pt x="846" y="-32" on="1"/>
        <pt x="750" y="-32" on="0"/>
        <pt x="567" y="14" on="0"/>
        <pt x="404" y="102" on="0"/>
        <pt x="267" y="228" on="0"/>
        <pt x="168" y="390" on="0"/>
        <pt x="112" y="583" on="0"/>
        <pt x="112" y="694" on="1"/>
        <pt x="112" y="803" on="0"/>
        <pt x="166" y="995" on="0"/>
        <pt x="263" y="1155" on="0"/>
        <pt x="398" y="1281" on="0"/>
        <pt x="558" y="1368" on="0"/>
        <pt x="739" y="1414" on="0"/>
        <pt x="834" y="1414" on="1"/>
        <pt x="934" y="1414" on="0"/>
        <pt x="1133" y="1363" on="0"/>
        <pt x="1232" y="1306" on="1"/>
        <pt x="1178" y="988" on="1"/>
        <pt x="1106" y="1015" on="0"/>
        <pt x="978" y="1044" on="0"/>
        <pt x="912" y="1044" on="1"/>
        <pt x="838" y="1044" on="0"/>
        <pt x="713" y="1003" on="0"/>
        <pt x="623" y="918" on="0"/>
        <pt x="572" y="786" on="0"/>
        <pt x="572" y="696" on="1"/>
        <pt x="572" y="604" on="0"/>
        <pt x="626" y="469" on="0"/>
        <pt x="721" y="381" on="0"/>
        <pt x="850" y="338" on="0"/>
        <pt x="924" y="338" on="1"/>
        <pt x="987" y="338" on="0"/>
        <pt x="1109" y="369" on="0"/>
        <pt x="1178" y="396" on="1"/>
      </contour>
    </TTGlyph>
    <TTGlyph name="F" xMin="176" yMin="0" xMax="1146" yMax="1408">
      <contour>
        <pt x="176" y="1408" on="1"/>
        <pt x="1146" y="1408" on="1"/>
        <pt x="1146" y="1098" on="1"/>
        <pt x="616" y="1098" on="1"/>
        <pt x="616" y="814" on="1"/>
        <pt x="1106" y="814" on="1"/>
        <pt x="1106" y="554" on="1"/>
        <pt x="616" y="554" on="1"/>
        <pt x="616" y="0" on="1"/>
        <pt x="176" y="0" on="1"/>
      </contour>
    </TTGlyph>
    <TTGlyph name="G" xMin="94" yMin="-32" xMax="1294" yMax="1440">
      <contour>
        <pt x="940" y="674" on="1"/>
        <pt x="1294" y="714" on="1"/>
        <pt x="1294" y="74" on="1"/>
        <pt x="1164" y="17" on="0"/>
        <pt x="923" y="-32" on="0"/>
        <pt x="802" y="-32" on="1"/>
        <pt x="704" y="-32" on="0"/>
        <pt x="523" y="21" on="0"/>
        <pt x="366" y="118" on="0"/>
        <pt x="237" y="254" on="0"/>
        <pt x="145" y="420" on="0"/>
        <pt x="94" y="612" on="0"/>
        <pt x="94" y="716" on="1"/>
        <pt x="94" y="817" on="0"/>
        <pt x="146" y="1003" on="0"/>
        <pt x="240" y="1164" on="0"/>
        <pt x="371" y="1296" on="0"/>
        <pt x="527" y="1389" on="0"/>
        <pt x="705" y="1440" on="0"/>
        <pt x="800" y="1440" on="1"/>
        <pt x="918" y="1440" on="0"/>
        <pt x="1156" y="1395" on="0"/>
        <pt x="1274" y="1338" on="1"/>
        <pt x="1138" y="1020" on="1"/>
        <pt x="1066" y="1043" on="0"/>
        <pt x="921" y="1078" on="0"/>
        <pt x="858" y="1078" on="1"/>
        <pt x="781" y="1078" on="0"/>
        <pt x="665" y="1013" on="0"/>
        <pt x="588" y="909" on="0"/>
        <pt x="550" y="777" on="0"/>
        <pt x="550" y="711" on="1"/>
        <pt x="550" y="642" on="0"/>
        <pt x="591" y="507" on="0"/>
        <pt x="669" y="401" on="0"/>
        <pt x="784" y="336" on="0"/>
        <pt x="858" y="336" on="1"/>
        <pt x="895" y="336" on="0"/>
        <pt x="940" y="342" on="1"/>
      </contour>
    </TTGlyph>
    <TTGlyph name="Gbreve" xMin="94" yMin="-32" xMax="1294" yMax="1850">
      <component glyphName="G" x="0" y="0" flags="0x4"/>
      <component glyphName="breve" x="316" y="350" flags="0x4"/>
    </TTGlyph>
    <TTGlyph name="Gcircumflex" xMin="94" yMin="-32" xMax="1294" yMax="1990">
      <component glyphName="G" x="0" y="0" flags="0x4"/>
      <component glyphName="circumflex" x="250" y="350" flags="0x4"/>
    </TTGlyph>
    <TTGlyph name="Gcommaaccent" xMin="94" yMin="-841" xMax="1294" yMax="1440">
      <component glyphName="G" x="0" y="0" flags="0x4"/>
      <component glyphName="comma" x="426" y="-495" flags="0x4"/>
    </TTGlyph>
    <TTGlyph name="Gdotaccent" xMin="94" yMin="-32" xMax="1294" yMax="1928">
      <component glyphName="G" x="0" y="0" flags="0x4"/>
      <component glyphName="dotaccent" x="422" y="350" flags="0x4"/>
    </TTGlyph>
    <TTGlyph name="H" xMin="176" yMin="0" xMax="1534" yMax="1408">
      <contour>
        <pt x="176" y="1408" on="1"/>
        <pt x="636" y="1408" on="1"/>
        <pt x="636" y="848" on="1"/>
        <pt x="1072" y="848" on="1"/>
        <pt x="1072" y="1408" on="1"/>
        <pt x="1534" y="1408" on="1"/>
        <pt x="1534" y="0" on="1"/>
        <pt x="1072" y="0" on="1"/>
        <pt x="1072" y="552" on="1"/>
        <pt x="636" y="552" on="1"/>
        <pt x="636" y="0" on="1"/>
        <pt x="176" y="0" on="1"/>
      </contour>
    </TTGlyph>
    <TTGlyph name="Hbar" xMin="126" yMin="0" xMax="1602" yMax="1376">
      <contour>
        <pt x="126" y="1152" on="1"/>
        <pt x="184" y="1152" on="1"/>
        <pt x="184" y="1376" on="1"/>
        <pt x="644" y="1376" on="1"/>
        <pt x="644" y="1152" on="1"/>
        <pt x="1080" y="1152" on="1"/>
        <pt x="1080" y="1376" on="1"/>
        <pt x="1542" y="1376" on="1"/>
        <pt x="1542" y="1152" on="1"/>
        <pt x="1602" y="1152" on="1"/>
        <pt x="1602" y="978" on="1"/>
        <pt x="1542" y="978" on="1"/>
        <pt x="1542" y="0" on="1"/>
        <pt x="1080" y="0" on="1"/>
        <pt x="1080" y="552" on="1"/>
        <pt x="644" y="552" on="1"/>
        <pt x="644" y="0" on="1"/>
        <pt x="184" y="0" on="1"/>
        <pt x="184" y="978" on="1"/>
        <pt x="126" y="978" on="1"/>
      </contour>
      <contour>
        <pt x="1080" y="848" on="1"/>
        <pt x="1080" y="978" on="1"/>
        <pt x="644" y="978" on="1"/>
        <pt x="644" y="848" on="1"/>
      </contour>
    </TTGlyph>
    <TTGlyph name="Hcircumflex" xMin="176" yMin="0" xMax="1534" yMax="1990">
      <component glyphName="H" x="0" y="0" flags="0x4"/>
      <component glyphName="circumflex" x="372" y="350" flags="0x4"/>
    </TTGlyph>
    <TTGlyph name="I" xMin="176" yMin="0" xMax="648" yMax="1408">
      <contour>
        <pt x="176" y="1408" on="1"/>
        <pt x="648" y="1408" on="1"/>
        <pt x="648" y="0" on="1"/>
        <pt x="176" y="0" on="1"/>
      </contour>
    </TTGlyph>
    <TTGlyph name="IJ" xMin="176" yMin="-92" xMax="1680" yMax="1408">
      <component glyphName="I" x="0" y="0" flags="0x4"/>
      <component glyphName="J" x="842" y="0" flags="0x4"/>
    </TTGlyph>
    <TTGlyph name="Iacute" xMin="4" yMin="0" xMax="812" yMax="2140">
      <component glyphName="I" x="0" y="0" flags="0x4"/>
      <component glyphName="acute" x="0" y="350" flags="0x4"/>
    </TTGlyph>
    <TTGlyph name="Ibreve" xMin="70" yMin="0" xMax="772" yMax="1850">
      <component glyphName="I" x="0" y="0" flags="0x4"/>
      <component glyphName="breve" x="0" y="350" flags="0x4"/>
    </TTGlyph>
    <TTGlyph name="Icircumflex" xMin="-31" yMin="0" xMax="851" yMax="1990">
      <component glyphName="I" x="0" y="0" flags="0x4"/>
      <component glyphName="circumflex" x="-79" y="350" flags="0x4"/>
    </TTGlyph>
    <TTGlyph name="Idieresis" xMin="-129" yMin="0" xMax="949" yMax="1886">
      <component glyphName="I" x="0" y="0" flags="0x4"/>
      <component glyphName="dieresis" x="-213" y="350" flags="0x4"/>
    </TTGlyph>
    <TTGlyph name="Idotaccent" xMin="176" yMin="0" xMax="650" yMax="1928">
      <component glyphName="I" x="0" y="0" flags="0x4"/>
      <component glyphName="dotaccent" x="104" y="350" flags="0x4"/>
    </TTGlyph>
    <TTGlyph name="Igrave" xMin="30" yMin="0" xMax="838" yMax="2140">
      <component glyphName="I" x="0" y="0" flags="0x4"/>
      <component glyphName="grave" x="0" y="350" flags="0x4"/>
    </TTGlyph>
    <TTGlyph name="Imacron" xMin="176" yMin="0" xMax="664" yMax="1726">
      <component glyphName="I" x="0" y="0" flags="0x4"/>
      <component glyphName="hyphen" x="80" y="1112" flags="0x4"/>
    </TTGlyph>
    <TTGlyph name="Iogonek" xMin="176" yMin="-508" xMax="658" yMax="1408">
      <component glyphName="I" x="0" y="0" flags="0x4"/>
      <component glyphName="ogonek" x="150" y="0" flags="0x4"/>
    </TTGlyph>
    <TTGlyph name="Itilde" xMin="-73" yMin="0" xMax="919" yMax="1962">
      <component glyphName="I" x="0" y="0" flags="0x4"/>
      <component glyphName="tilde" x="-135" y="350" flags="0x4"/>
    </TTGlyph>
    <TTGlyph name="J" xMin="26" yMin="-92" xMax="838" yMax="1408">
      <contour>
        <pt x="122" y="270" on="1"/>
        <pt x="158" y="258" on="0"/>
        <pt x="227" y="242" on="0"/>
        <pt x="262" y="242" on="1"/>
        <pt x="290" y="242" on="0"/>
        <pt x="340" y="259" on="0"/>
        <pt x="377" y="298" on="0"/>
        <pt x="398" y="363" on="0"/>
        <pt x="398" y="412" on="1"/>
        <pt x="398" y="1408" on="1"/>
        <pt x="838" y="1408" on="1"/>
        <pt x="838" y="412" on="1"/>
        <pt x="838" y="277" on="0"/>
        <pt x="761" y="86" on="0"/>
        <pt x="632" y="-36" on="0"/>
        <pt x="466" y="-92" on="0"/>
        <pt x="378" y="-92" on="1"/>
        <pt x="188" y="-92" on="0"/>
        <pt x="26" y="16" on="1"/>
      </contour>
    </TTGlyph>
    <TTGlyph name="Jcircumflex" xMin="26" yMin="-92" xMax="956" yMax="1990">
      <component glyphName="J" x="0" y="0" flags="0x4"/>
      <component glyphName="circumflex" x="26" y="350" flags="0x4"/>
    </TTGlyph>
    <TTGlyph name="K" xMin="178" yMin="0" xMax="1592" yMax="1408">
      <contour>
        <pt x="178" y="1408" on="1"/>
        <pt x="652" y="1408" on="1"/>
        <pt x="652" y="834" on="1"/>
        <pt x="800" y="834" on="1"/>
        <pt x="1072" y="1408" on="1"/>
        <pt x="1546" y="1408" on="1"/>
        <pt x="1546" y="1316" on="1"/>
        <pt x="1222" y="710" on="1"/>
        <pt x="1592" y="92" on="1"/>
        <pt x="1592" y="0" on="1"/>
        <pt x="1094" y="0" on="1"/>
        <pt x="792" y="560" on="1"/>
        <pt x="652" y="560" on="1"/>
        <pt x="652" y="0" on="1"/>
        <pt x="178" y="0" on="1"/>
      </contour>
    </TTGlyph>
    <TTGlyph name="K.alt" xMin="190" yMin="-24" xMax="1526" yMax="1376">
      <contour>
        <pt x="190" y="1376" on="1"/>
        <pt x="630" y="1376" on="1"/>
        <pt x="630" y="852" on="1"/>
        <pt x="780" y="852" on="1"/>
        <pt x="1018" y="1376" on="1"/>
        <pt x="1432" y="1376" on="1"/>
        <pt x="1432" y="1284" on="1"/>
        <pt x="1158" y="738" on="1"/>
        <pt x="1175" y="641" on="0"/>
        <pt x="1212" y="493" on="0"/>
        <pt x="1271" y="393" on="0"/>
        <pt x="1361" y="342" on="0"/>
        <pt x="1432" y="342" on="1"/>
        <pt x="1453" y="342" on="0"/>
        <pt x="1502" y="347" on="0"/>
        <pt x="1526" y="350" on="1"/>
        <pt x="1490" y="-12" on="1"/>
        <pt x="1448" y="-17" on="0"/>
        <pt x="1381" y="-24" on="0"/>
        <pt x="1348" y="-24" on="1"/>
        <pt x="1231" y="-24" on="0"/>
        <pt x="1046" y="44" on="0"/>
        <pt x="905" y="186" on="0"/>
        <pt x="805" y="407" on="0"/>
        <pt x="772" y="560" on="1"/>
        <pt x="630" y="560" on="1"/>
        <pt x="630" y="0" on="1"/>
        <pt x="190" y="0" on="1"/>
      </contour>
    </TTGlyph>
    <TTGlyph name="Kcommaaccent" xMin="178" yMin="-841" xMax="1592" yMax="1408">
      <component glyphName="K" x="0" y="0" flags="0x4"/>
      <component glyphName="comma" x="388" y="-495" flags="0x4"/>
    </TTGlyph>
    <TTGlyph name="L" xMin="178" yMin="0" xMax="1108" yMax="1408">
      <contour>
        <pt x="178" y="1408" on="1"/>
        <pt x="620" y="1408" on="1"/>
        <pt x="620" y="302" on="1"/>
        <pt x="1108" y="302" on="1"/>
        <pt x="1108" y="0" on="1"/>
        <pt x="178" y="0" on="1"/>
      </contour>
    </TTGlyph>
    <TTGlyph name="Lacute" xMin="178" yMin="0" xMax="1108" yMax="2140">
      <component glyphName="L" x="0" y="0" flags="0x4"/>
      <component glyphName="acute" x="176" y="350" flags="0x4"/>
    </TTGlyph>
    <TTGlyph name="Lcaron" xMin="178" yMin="0" xMax="1168" yMax="1408">
      <component glyphName="L" x="0" y="0" flags="0x4"/>
      <component glyphName="comma" x="564" y="992" flags="0x4"/>
    </TTGlyph>
    <TTGlyph name="Lcommaaccent" xMin="178" yMin="-841" xMax="1108" yMax="1408">
      <component glyphName="L" x="0" y="0" flags="0x4"/>
      <component glyphName="comma" x="250" y="-495" flags="0x4"/>
    </TTGlyph>
    <TTGlyph name="Ldot" xMin="178" yMin="0" xMax="1120" yMax="1408">
      <component glyphName="L" x="0" y="0" flags="0x4"/>
      <component glyphName="periodcentered" x="574" y="350" flags="0x4"/>
    </TTGlyph>
    <TTGlyph name="Lslash" xMin="0" yMin="0" xMax="1114" yMax="1376">
      <contour>
        <pt x="0" y="788" on="1"/>
        <pt x="930" y="1026" on="1"/>
        <pt x="930" y="852" on="1"/>
        <pt x="0" y="614" on="1"/>
      </contour>
      <contour>
        <pt x="184" y="1376" on="1"/>
        <pt x="624" y="1376" on="1"/>
        <pt x="624" y="302" on="1"/>
        <pt x="1114" y="302" on="1"/>
        <pt x="1114" y="0" on="1"/>
        <pt x="184" y="0" on="1"/>
      </contour>
    </TTGlyph>
    <TTGlyph name="M" xMin="98" yMin="0" xMax="1646" yMax="1408">
      <contour>
        <pt x="98" y="1408" on="1"/>
        <pt x="524" y="1408" on="1"/>
        <pt x="876" y="724" on="1"/>
        <pt x="1220" y="1408" on="1"/>
        <pt x="1646" y="1408" on="1"/>
        <pt x="1646" y="0" on="1"/>
        <pt x="1220" y="0" on="1"/>
        <pt x="1220" y="752" on="1"/>
        <pt x="960" y="260" on="1"/>
        <pt x="786" y="260" on="1"/>
        <pt x="524" y="752" on="1"/>
        <pt x="524" y="0" on="1"/>
        <pt x="98" y="0" on="1"/>
      </contour>
    </TTGlyph>
    <TTGlyph name="N" xMin="180" yMin="0" xMax="1518" yMax="1408">
      <contour>
        <pt x="180" y="1408" on="1"/>
        <pt x="590" y="1408" on="1"/>
        <pt x="1152" y="650" on="1"/>
        <pt x="1152" y="1408" on="1"/>
        <pt x="1518" y="1408" on="1"/>
        <pt x="1518" y="0" on="1"/>
        <pt x="1108" y="0" on="1"/>
        <pt x="544" y="734" on="1"/>
        <pt x="544" y="0" on="1"/>
        <pt x="180" y="0" on="1"/>
      </contour>
    </TTGlyph>
    <TTGlyph name="Nacute" xMin="180" yMin="0" xMax="1518" yMax="2140">
      <component glyphName="N" x="0" y="0" flags="0x4"/>
      <component glyphName="acute" x="442" y="350" flags="0x4"/>
    </TTGlyph>
    <TTGlyph name="Ncaron" xMin="180" yMin="0" xMax="1518" yMax="1990">
      <component glyphName="N" x="0" y="0" flags="0x4"/>
      <component glyphName="caron" x="362" y="350" flags="0x4"/>
    </TTGlyph>
    <TTGlyph name="Ncommaaccent" xMin="180" yMin="-841" xMax="1518" yMax="1408">
      <component glyphName="N" x="0" y="0" flags="0x4"/>
      <component glyphName="comma" x="534" y="-495" flags="0x4"/>
    </TTGlyph>
    <TTGlyph name="Ntilde" xMin="180" yMin="0" xMax="1518" yMax="1962">
      <component glyphName="N" x="0" y="0" flags="0x4"/>
      <component glyphName="tilde" x="308" y="350" flags="0x4"/>
    </TTGlyph>
    <TTGlyph name="O" xMin="112" yMin="-32" xMax="1618" yMax="1439">
      <contour>
        <pt x="112" y="702" on="1"/>
        <pt x="112" y="799" on="0"/>
        <pt x="156" y="984" on="0"/>
        <pt x="242" y="1148" on="0"/>
        <pt x="370" y="1285" on="0"/>
        <pt x="538" y="1384" on="0"/>
        <pt x="744" y="1439" on="0"/>
        <pt x="866" y="1439" on="1"/>
        <pt x="988" y="1439" on="0"/>
        <pt x="1195" y="1383" on="0"/>
        <pt x="1362" y="1284" on="0"/>
        <pt x="1489" y="1147" on="0"/>
        <pt x="1575" y="983" on="0"/>
        <pt x="1618" y="798" on="0"/>
        <pt x="1618" y="702" on="1"/>
        <pt x="1618" y="611" on="0"/>
        <pt x="1576" y="432" on="0"/>
        <pt x="1493" y="269" on="0"/>
        <pt x="1368" y="129" on="0"/>
        <pt x="1201" y="26" on="0"/>
        <pt x="991" y="-32" on="0"/>
        <pt x="866" y="-32" on="1"/>
        <pt x="740" y="-32" on="0"/>
        <pt x="531" y="26" on="0"/>
        <pt x="364" y="129" on="0"/>
        <pt x="238" y="269" on="0"/>
        <pt x="154" y="432" on="0"/>
        <pt x="112" y="611" on="0"/>
      </contour>
      <contour>
        <pt x="866" y="340" on="1"/>
        <pt x="939" y="340" on="0"/>
        <pt x="1050" y="402" on="0"/>
        <pt x="1123" y="504" on="0"/>
        <pt x="1160" y="635" on="0"/>
        <pt x="1160" y="704" on="1"/>
        <pt x="1160" y="775" on="0"/>
        <pt x="1124" y="908" on="0"/>
        <pt x="1051" y="1012" on="0"/>
        <pt x="940" y="1077" on="0"/>
        <pt x="866" y="1080" on="1"/>
        <pt x="791" y="1079" on="0"/>
        <pt x="680" y="1014" on="0"/>
        <pt x="606" y="909" on="0"/>
        <pt x="570" y="774" on="0"/>
        <pt x="570" y="704" on="1"/>
        <pt x="570" y="635" on="0"/>
        <pt x="607" y="504" on="0"/>
        <pt x="681" y="402" on="0"/>
        <pt x="792" y="340" on="0"/>
      </contour>
    </TTGlyph>
    <TTGlyph name="OE" xMin="150" yMin="-32" xMax="2086" yMax="1414">
      <contour>
        <pt x="1100" y="60" on="1"/>
        <pt x="924" y="-32" on="0"/>
        <pt x="782" y="-32" on="1"/>
        <pt x="679" y="-32" on="0"/>
        <pt x="506" y="27" on="0"/>
        <pt x="365" y="131" on="0"/>
        <pt x="258" y="271" on="0"/>
        <pt x="187" y="432" on="0"/>
        <pt x="150" y="606" on="0"/>
        <pt x="150" y="692" on="1"/>
        <pt x="150" y="773" on="0"/>
        <pt x="189" y="943" on="0"/>
        <pt x="266" y="1104" on="0"/>
        <pt x="377" y="1246" on="0"/>
        <pt x="521" y="1352" on="0"/>
        <pt x="696" y="1414" on="0"/>
        <pt x="798" y="1414" on="1"/>
        <pt x="870" y="1414" on="0"/>
        <pt x="1021" y="1368" on="0"/>
        <pt x="1106" y="1314" on="1"/>
        <pt x="1106" y="1376" on="1"/>
        <pt x="2086" y="1376" on="1"/>
        <pt x="2086" y="1066" on="1"/>
        <pt x="1594" y="1066" on="1"/>
        <pt x="1594" y="842" on="1"/>
        <pt x="2044" y="842" on="1"/>
        <pt x="2044" y="584" on="1"/>
        <pt x="1594" y="584" on="1"/>
        <pt x="1594" y="308" on="1"/>
        <pt x="2086" y="308" on="1"/>
        <pt x="2086" y="0" on="1"/>
        <pt x="1100" y="0" on="1"/>
      </contour>
      <contour>
        <pt x="1100" y="1018" on="1"/>
        <pt x="1034" y="1033" on="0"/>
        <pt x="900" y="1050" on="0"/>
        <pt x="834" y="1050" on="1"/>
        <pt x="786" y="1050" on="0"/>
        <pt x="704" y="1002" on="0"/>
        <pt x="643" y="911" on="0"/>
        <pt x="608" y="778" on="0"/>
        <pt x="608" y="694" on="1"/>
        <pt x="608" y="608" on="0"/>
        <pt x="643" y="476" on="0"/>
        <pt x="703" y="385" on="0"/>
        <pt x="786" y="338" on="0"/>
        <pt x="834" y="338" on="1"/>
        <pt x="900" y="338" on="0"/>
        <pt x="1034" y="351" on="0"/>
        <pt x="1100" y="368" on="1"/>
      </contour>
    </TTGlyph>
    <TTGlyph name="Oacute" xMin="112" yMin="-32" xMax="1618" yMax="2140">
      <component glyphName="O" x="0" y="0" flags="0x4"/>
      <component glyphName="acute" x="444" y="350" flags="0x4"/>
    </TTGlyph>
    <TTGlyph name="Obreve" xMin="112" yMin="-32" xMax="1618" yMax="1850">
      <component glyphName="O" x="0" y="0" flags="0x4"/>
      <component glyphName="breve" x="460" y="350" flags="0x4"/>
    </TTGlyph>
    <TTGlyph name="Ocircumflex" xMin="112" yMin="-32" xMax="1618" yMax="1990">
      <component glyphName="O" x="0" y="0" flags="0x4"/>
      <component glyphName="circumflex" x="362" y="350" flags="0x4"/>
    </TTGlyph>
    <TTGlyph name="Odieresis" xMin="112" yMin="-32" xMax="1618" yMax="1886">
      <component glyphName="O" x="0" y="0" flags="0x4"/>
      <component glyphName="dieresis" x="228" y="350" flags="0x4"/>
    </TTGlyph>
    <TTGlyph name="Ograve" xMin="112" yMin="-32" xMax="1618" yMax="2140">
      <component glyphName="O" x="0" y="0" flags="0x4"/>
      <component glyphName="grave" x="444" y="350" flags="0x4"/>
    </TTGlyph>
    <TTGlyph name="Ohungarumlaut" xMin="112" yMin="-32" xMax="1618" yMax="2360">
      <component glyphName="O" x="0" y="0" flags="0x4"/>
      <component glyphName="hungarumlaut" x="206" y="350" flags="0x4"/>
    </TTGlyph>
    <TTGlyph name="Omacron" xMin="112" yMin="-32" xMax="1618" yMax="1726">
      <component glyphName="O" x="0" y="0" flags="0x4"/>
      <component glyphName="hyphen" x="540" y="1112" flags="0x4"/>
    </TTGlyph>
    <TTGlyph name="Oslash" xMin="112" yMin="-32" xMax="1618" yMax="1439">
      <component glyphName="O" x="0" y="0" flags="0x4"/>
      <component glyphName="slash" x="642" y="0" flags="0x4"/>
    </TTGlyph>
    <TTGlyph name="Otilde" xMin="112" yMin="-32" xMax="1618" yMax="1962">
      <component glyphName="O" x="0" y="0" flags="0x4"/>
      <component glyphName="tilde" x="292" y="350" flags="0x4"/>
    </TTGlyph>
    <TTGlyph name="P" xMin="180" yMin="0" xMax="1348" yMax="1408">
      <contour>
        <pt x="180" y="1408" on="1"/>
        <pt x="688" y="1408" on="1"/>
        <pt x="873" y="1408" on="0"/>
        <pt x="1126" y="1330" on="0"/>
        <pt x="1281" y="1200" on="0"/>
        <pt x="1348" y="1032" on="0"/>
        <pt x="1348" y="942" on="1"/>
        <pt x="1348" y="856" on="0"/>
        <pt x="1268" y="690" on="0"/>
        <pt x="1108" y="561" on="0"/>
        <pt x="868" y="482" on="0"/>
        <pt x="708" y="482" on="1"/>
        <pt x="622" y="482" on="1"/>
        <pt x="622" y="0" on="1"/>
        <pt x="180" y="0" on="1"/>
      </contour>
      <contour>
        <pt x="622" y="770" on="1"/>
        <pt x="643" y="767" on="0"/>
        <pt x="689" y="766" on="0"/>
        <pt x="710" y="766" on="1"/>
        <pt x="822" y="766" on="0"/>
        <pt x="936" y="861" on="0"/>
        <pt x="936" y="942" on="1"/>
        <pt x="936" y="976" on="0"/>
        <pt x="908" y="1038" on="0"/>
        <pt x="851" y="1086" on="0"/>
        <pt x="766" y="1114" on="0"/>
        <pt x="710" y="1114" on="1"/>
        <pt x="622" y="1114" on="1"/>
      </contour>
    </TTGlyph>
    <TTGlyph name="Q" xMin="56" yMin="-326" xMax="1614" yMax="1439">
      <contour>
        <pt x="884" y="-28" on="1"/>
        <pt x="866" y="-30" on="0"/>
        <pt x="828" y="-32" on="0"/>
        <pt x="810" y="-32" on="1"/>
        <pt x="684" y="-32" on="0"/>
        <pt x="475" y="27" on="0"/>
        <pt x="308" y="130" on="0"/>
        <pt x="182" y="270" on="0"/>
        <pt x="98" y="434" on="0"/>
        <pt x="56" y="615" on="0"/>
        <pt x="56" y="706" on="1"/>
        <pt x="56" y="796" on="0"/>
        <pt x="98" y="975" on="0"/>
        <pt x="182" y="1138" on="0"/>
        <pt x="309" y="1278" on="0"/>
        <pt x="476" y="1381" on="0"/>
        <pt x="685" y="1439" on="0"/>
        <pt x="810" y="1439" on="1"/>
        <pt x="935" y="1439" on="0"/>
        <pt x="1145" y="1381" on="0"/>
        <pt x="1312" y="1278" on="0"/>
        <pt x="1438" y="1138" on="0"/>
        <pt x="1522" y="975" on="0"/>
        <pt x="1564" y="796" on="0"/>
        <pt x="1564" y="706" on="1"/>
        <pt x="1564" y="626" on="0"/>
        <pt x="1532" y="464" on="0"/>
        <pt x="1466" y="313" on="0"/>
        <pt x="1368" y="178" on="0"/>
        <pt x="1302" y="124" on="1"/>
        <pt x="1614" y="-80" on="1"/>
        <pt x="1336" y="-326" on="1"/>
      </contour>
      <contour>
        <pt x="810" y="338" on="1"/>
        <pt x="884" y="338" on="0"/>
        <pt x="995" y="403" on="0"/>
        <pt x="1068" y="508" on="0"/>
        <pt x="1104" y="639" on="0"/>
        <pt x="1104" y="706" on="1"/>
        <pt x="1104" y="775" on="0"/>
        <pt x="1068" y="908" on="0"/>
        <pt x="995" y="1012" on="0"/>
        <pt x="884" y="1075" on="0"/>
        <pt x="810" y="1075" on="1"/>
        <pt x="736" y="1075" on="0"/>
        <pt x="626" y="1012" on="0"/>
        <pt x="553" y="908" on="0"/>
        <pt x="516" y="775" on="0"/>
        <pt x="516" y="706" on="1"/>
        <pt x="516" y="639" on="0"/>
        <pt x="553" y="508" on="0"/>
        <pt x="626" y="403" on="0"/>
        <pt x="736" y="338" on="0"/>
      </contour>
    </TTGlyph>
    <TTGlyph name="R" xMin="98" yMin="-32" xMax="1364" yMax="1408">
      <contour>
        <pt x="98" y="1408" on="1"/>
        <pt x="724" y="1408" on="1"/>
        <pt x="872" y="1408" on="0"/>
        <pt x="1093" y="1338" on="0"/>
        <pt x="1238" y="1222" on="0"/>
        <pt x="1310" y="1073" on="0"/>
        <pt x="1310" y="994" on="1"/>
        <pt x="1310" y="936" on="0"/>
        <pt x="1283" y="827" on="0"/>
        <pt x="1220" y="729" on="0"/>
        <pt x="1116" y="644" on="0"/>
        <pt x="1038" y="610" on="1"/>
        <pt x="1055" y="532" on="0"/>
        <pt x="1085" y="425" on="0"/>
        <pt x="1136" y="359" on="0"/>
        <pt x="1220" y="330" on="0"/>
        <pt x="1291" y="330" on="1"/>
        <pt x="1311" y="330" on="0"/>
        <pt x="1327" y="334" on="1"/>
        <pt x="1364" y="338" on="1"/>
        <pt x="1362" y="4" on="1"/>
        <pt x="1311" y="-10" on="0"/>
        <pt x="1203" y="-32" on="0"/>
        <pt x="1164" y="-32" on="1"/>
        <pt x="1054" y="-32" on="0"/>
        <pt x="896" y="23" on="0"/>
        <pt x="785" y="116" on="0"/>
        <pt x="717" y="238" on="0"/>
        <pt x="698" y="306" on="1"/>
        <pt x="642" y="534" on="1"/>
        <pt x="546" y="534" on="1"/>
        <pt x="546" y="0" on="1"/>
        <pt x="98" y="0" on="1"/>
      </contour>
      <contour>
        <pt x="546" y="822" on="1"/>
        <pt x="610" y="822" on="0"/>
        <pt x="736" y="828" on="0"/>
        <pt x="837" y="857" on="0"/>
        <pt x="900" y="918" on="0"/>
        <pt x="900" y="974" on="1"/>
        <pt x="900" y="999" on="0"/>
        <pt x="883" y="1046" on="0"/>
        <pt x="835" y="1082" on="0"/>
        <pt x="752" y="1104" on="0"/>
        <pt x="686" y="1104" on="1"/>
        <pt x="546" y="1104" on="1"/>
      </contour>
    </TTGlyph>
    <TTGlyph name="R.alt" xMin="176" yMin="-52" xMax="1480" yMax="1376">
      <contour>
        <pt x="176" y="1376" on="1"/>
        <pt x="794" y="1376" on="1"/>
        <pt x="942" y="1376" on="0"/>
        <pt x="1163" y="1305" on="0"/>
        <pt x="1308" y="1189" on="0"/>
        <pt x="1380" y="1040" on="0"/>
        <pt x="1380" y="962" on="1"/>
        <pt x="1380" y="906" on="0"/>
        <pt x="1347" y="795" on="0"/>
        <pt x="1280" y="693" on="0"/>
        <pt x="1179" y="605" on="0"/>
        <pt x="1112" y="572" on="1"/>
        <pt x="1130" y="507" on="0"/>
        <pt x="1211" y="410" on="0"/>
        <pt x="1314" y="343" on="0"/>
        <pt x="1428" y="306" on="0"/>
        <pt x="1480" y="302" on="1"/>
        <pt x="1362" y="-52" on="1"/>
        <pt x="1258" y="-42" on="0"/>
        <pt x="1097" y="16" on="0"/>
        <pt x="972" y="98" on="0"/>
        <pt x="880" y="196" on="0"/>
        <pt x="846" y="246" on="1"/>
        <pt x="769" y="359" on="0"/>
        <pt x="742" y="502" on="1"/>
        <pt x="616" y="502" on="1"/>
        <pt x="616" y="0" on="1"/>
        <pt x="176" y="0" on="1"/>
      </contour>
      <contour>
        <pt x="618" y="790" on="1"/>
        <pt x="682" y="790" on="0"/>
        <pt x="809" y="796" on="0"/>
        <pt x="908" y="825" on="0"/>
        <pt x="970" y="886" on="0"/>
        <pt x="970" y="942" on="1"/>
        <pt x="970" y="967" on="0"/>
        <pt x="952" y="1014" on="0"/>
        <pt x="904" y="1050" on="0"/>
        <pt x="821" y="1072" on="0"/>
        <pt x="756" y="1072" on="1"/>
        <pt x="618" y="1072" on="1"/>
      </contour>
    </TTGlyph>
    <TTGlyph name="Racute" xMin="98" yMin="-32" xMax="1364" yMax="2140">
      <component glyphName="R" x="0" y="0" flags="0x4"/>
      <component glyphName="acute" x="398" y="350" flags="0x4"/>
    </TTGlyph>
    <TTGlyph name="Rcaron" xMin="98" yMin="-32" xMax="1364" yMax="1990">
      <component glyphName="R" x="0" y="0" flags="0x4"/>
      <component glyphName="caron" x="318" y="350" flags="0x4"/>
    </TTGlyph>
    <TTGlyph name="Rcommaaccent" xMin="98" yMin="-841" xMax="1364" yMax="1408">
      <component glyphName="R" x="0" y="0" flags="0x4"/>
      <component glyphName="comma" x="388" y="-495" flags="0x4"/>
    </TTGlyph>
    <TTGlyph name="S" xMin="130" yMin="-32" xMax="1212" yMax="1440">
      <contour>
        <pt x="244" y="388" on="1"/>
        <pt x="294" y="376" on="0"/>
        <pt x="400" y="349" on="0"/>
        <pt x="500" y="327" on="0"/>
        <pt x="589" y="312" on="0"/>
        <pt x="622" y="312" on="1"/>
        <pt x="718" y="312" on="0"/>
        <pt x="796" y="357" on="0"/>
        <pt x="796" y="398" on="1"/>
        <pt x="796" y="431" on="0"/>
        <pt x="741" y="476" on="0"/>
        <pt x="649" y="511" on="0"/>
        <pt x="528" y="545" on="0"/>
        <pt x="462" y="568" on="1"/>
        <pt x="403" y="586" on="0"/>
        <pt x="285" y="653" on="0"/>
        <pt x="190" y="755" on="0"/>
        <pt x="130" y="894" on="0"/>
        <pt x="130" y="984" on="1"/>
        <pt x="130" y="1077" on="0"/>
        <pt x="173" y="1216" on="0"/>
        <pt x="249" y="1318" on="0"/>
        <pt x="353" y="1384" on="0"/>
        <pt x="475" y="1424" on="0"/>
        <pt x="609" y="1440" on="0"/>
        <pt x="678" y="1440" on="1"/>
        <pt x="819" y="1440" on="0"/>
        <pt x="1056" y="1383" on="0"/>
        <pt x="1162" y="1332" on="1"/>
        <pt x="1135" y="1256" on="0"/>
        <pt x="1101" y="1164" on="0"/>
        <pt x="1079" y="1102" on="0"/>
        <pt x="1062" y="1056" on="0"/>
        <pt x="1052" y="1026" on="1"/>
        <pt x="1018" y="1035" on="0"/>
        <pt x="930" y="1060" on="0"/>
        <pt x="837" y="1082" on="0"/>
        <pt x="747" y="1098" on="0"/>
        <pt x="712" y="1098" on="1"/>
        <pt x="665" y="1098" on="0"/>
        <pt x="604" y="1096" on="0"/>
        <pt x="567" y="1083" on="0"/>
        <pt x="552" y="1055" on="0"/>
        <pt x="552" y="1030" on="1"/>
        <pt x="552" y="1000" on="0"/>
        <pt x="608" y="950" on="0"/>
        <pt x="662" y="934" on="1"/>
        <pt x="818" y="898" on="0"/>
        <pt x="1029" y="793" on="0"/>
        <pt x="1157" y="668" on="0"/>
        <pt x="1212" y="529" on="0"/>
        <pt x="1212" y="460" on="1"/>
        <pt x="1212" y="330" on="0"/>
        <pt x="1130" y="144" on="0"/>
        <pt x="981" y="24" on="0"/>
        <pt x="774" y="-32" on="0"/>
        <pt x="650" y="-32" on="1"/>
        <pt x="602" y="-32" on="0"/>
        <pt x="475" y="-21" on="0"/>
        <pt x="337" y="4" on="0"/>
        <pt x="197" y="45" on="0"/>
        <pt x="136" y="74" on="1"/>
        <pt x="167" y="153" on="0"/>
        <pt x="204" y="260" on="0"/>
        <pt x="226" y="331" on="0"/>
        <pt x="238" y="373" on="0"/>
      </contour>
    </TTGlyph>
    <TTGlyph name="Sacute" xMin="130" yMin="-32" xMax="1212" yMax="2140">
      <component glyphName="S" x="0" y="0" flags="0x4"/>
      <component glyphName="acute" x="272" y="350" flags="0x4"/>
    </TTGlyph>
    <TTGlyph name="Scaron" xMin="130" yMin="-32" xMax="1212" yMax="1990">
      <component glyphName="S" x="0" y="0" flags="0x4"/>
      <component glyphName="caron" x="192" y="350" flags="0x4"/>
    </TTGlyph>
    <TTGlyph name="Scedilla" xMin="130" yMin="-508" xMax="1212" yMax="1440">
      <component glyphName="S" x="0" y="0" flags="0x4"/>
      <component glyphName="cedilla" x="406" y="0" flags="0x4"/>
    </TTGlyph>
    <TTGlyph name="Scircumflex" xMin="130" yMin="-32" xMax="1212" yMax="1990">
      <component glyphName="S" x="0" y="0" flags="0x4"/>
      <component glyphName="circumflex" x="192" y="350" flags="0x4"/>
    </TTGlyph>
    <TTGlyph name="Scommaaccent" xMin="130" yMin="-841" xMax="1212" yMax="1440">
      <component glyphName="S" x="0" y="0" flags="0x4"/>
      <component glyphName="comma" x="304" y="-495" flags="0x4"/>
    </TTGlyph>
    <TTGlyph name="T" xMin="84" yMin="0" xMax="1146" yMax="1408">
      <contour>
        <pt x="376" y="1110" on="1"/>
        <pt x="84" y="1110" on="1"/>
        <pt x="84" y="1408" on="1"/>
        <pt x="1146" y="1408" on="1"/>
        <pt x="1146" y="1110" on="1"/>
        <pt x="854" y="1110" on="1"/>
        <pt x="854" y="0" on="1"/>
        <pt x="376" y="0" on="1"/>
      </contour>
    </TTGlyph>
    <TTGlyph name="Tbar" xMin="106" yMin="0" xMax="1168" yMax="1376">
      <contour>
        <pt x="398" y="518" on="1"/>
        <pt x="252" y="518" on="1"/>
        <pt x="252" y="692" on="1"/>
        <pt x="398" y="692" on="1"/>
        <pt x="398" y="1078" on="1"/>
        <pt x="106" y="1078" on="1"/>
        <pt x="106" y="1376" on="1"/>
        <pt x="1168" y="1376" on="1"/>
        <pt x="1168" y="1078" on="1"/>
        <pt x="876" y="1078" on="1"/>
        <pt x="876" y="692" on="1"/>
        <pt x="1022" y="692" on="1"/>
        <pt x="1022" y="518" on="1"/>
        <pt x="876" y="518" on="1"/>
        <pt x="876" y="0" on="1"/>
        <pt x="398" y="0" on="1"/>
      </contour>
    </TTGlyph>
    <TTGlyph name="Tcaron" xMin="84" yMin="0" xMax="1146" yMax="1990">
      <component glyphName="T" x="0" y="0" flags="0x4"/>
      <component glyphName="caron" x="146" y="350" flags="0x4"/>
    </TTGlyph>
    <TTGlyph name="Tcommaaccent" xMin="84" yMin="-841" xMax="1146" yMax="1408">
      <component glyphName="T" x="0" y="0" flags="0x4"/>
      <component glyphName="comma" x="250" y="-495" flags="0x4"/>
    </TTGlyph>
    <TTGlyph name="Thorn" xMin="184" yMin="0" xMax="1352" yMax="1376">
      <contour>
        <pt x="184" y="1376" on="1"/>
        <pt x="624" y="1376" on="1"/>
        <pt x="624" y="1266" on="1"/>
        <pt x="692" y="1266" on="1"/>
        <pt x="877" y="1266" on="0"/>
        <pt x="1130" y="1188" on="0"/>
        <pt x="1285" y="1058" on="0"/>
        <pt x="1352" y="890" on="0"/>
        <pt x="1352" y="800" on="1"/>
        <pt x="1352" y="714" on="0"/>
        <pt x="1272" y="548" on="0"/>
        <pt x="1111" y="419" on="0"/>
        <pt x="870" y="340" on="0"/>
        <pt x="710" y="340" on="1"/>
        <pt x="624" y="340" on="1"/>
        <pt x="624" y="0" on="1"/>
        <pt x="184" y="0" on="1"/>
      </contour>
      <contour>
        <pt x="624" y="628" on="1"/>
        <pt x="647" y="625" on="0"/>
        <pt x="691" y="624" on="0"/>
        <pt x="712" y="624" on="1"/>
        <pt x="824" y="624" on="0"/>
        <pt x="940" y="719" on="0"/>
        <pt x="940" y="800" on="1"/>
        <pt x="940" y="833" on="0"/>
        <pt x="911" y="895" on="0"/>
        <pt x="854" y="943" on="0"/>
        <pt x="768" y="972" on="0"/>
        <pt x="712" y="972" on="1"/>
        <pt x="624" y="972" on="1"/>
      </contour>
    </TTGlyph>
    <TTGlyph name="U" xMin="152" yMin="-32" xMax="1544" yMax="1408">
      <contour>
        <pt x="152" y="1408" on="1"/>
        <pt x="614" y="1408" on="1"/>
        <pt x="614" y="584" on="1"/>
        <pt x="614" y="513" on="0"/>
        <pt x="651" y="418" on="0"/>
        <pt x="715" y="361" on="0"/>
        <pt x="800" y="338" on="0"/>
        <pt x="848" y="338" on="1"/>
        <pt x="893" y="338" on="0"/>
        <pt x="977" y="361" on="0"/>
        <pt x="1043" y="418" on="0"/>
        <pt x="1082" y="513" on="0"/>
        <pt x="1082" y="584" on="1"/>
        <pt x="1082" y="1408" on="1"/>
        <pt x="1544" y="1408" on="1"/>
        <pt x="1544" y="584" on="1"/>
        <pt x="1544" y="483" on="0"/>
        <pt x="1491" y="313" on="0"/>
        <pt x="1396" y="176" on="0"/>
        <pt x="1265" y="73" on="0"/>
        <pt x="1110" y="3" on="0"/>
        <pt x="937" y="-32" on="0"/>
        <pt x="848" y="-32" on="1"/>
        <pt x="758" y="-32" on="0"/>
        <pt x="586" y="3" on="0"/>
        <pt x="431" y="73" on="0"/>
        <pt x="300" y="176" on="0"/>
        <pt x="205" y="313" on="0"/>
        <pt x="152" y="483" on="0"/>
        <pt x="152" y="584" on="1"/>
      </contour>
    </TTGlyph>
    <TTGlyph name="Uacute" xMin="152" yMin="-32" xMax="1544" yMax="2140">
      <component glyphName="U" x="0" y="0" flags="0x4"/>
      <component glyphName="acute" x="444" y="350" flags="0x4"/>
    </TTGlyph>
    <TTGlyph name="Ubreve" xMin="152" yMin="-32" xMax="1544" yMax="1850">
      <component glyphName="U" x="0" y="0" flags="0x4"/>
      <component glyphName="breve" x="440" y="350" flags="0x4"/>
    </TTGlyph>
    <TTGlyph name="Ucircumflex" xMin="152" yMin="-32" xMax="1544" yMax="1990">
      <component glyphName="U" x="0" y="0" flags="0x4"/>
      <component glyphName="circumflex" x="362" y="350" flags="0x4"/>
    </TTGlyph>
    <TTGlyph name="Udieresis" xMin="152" yMin="-32" xMax="1544" yMax="1886">
      <component glyphName="U" x="0" y="0" flags="0x4"/>
      <component glyphName="dieresis" x="228" y="350" flags="0x4"/>
    </TTGlyph>
    <TTGlyph name="Ugrave" xMin="152" yMin="-32" xMax="1544" yMax="2140">
      <component glyphName="U" x="0" y="0" flags="0x4"/>
      <component glyphName="grave" x="444" y="350" flags="0x4"/>
    </TTGlyph>
    <TTGlyph name="Uhungarumlaut" xMin="152" yMin="-32" xMax="1544" yMax="2360">
      <component glyphName="U" x="0" y="0" flags="0x4"/>
      <component glyphName="hungarumlaut" x="186" y="350" flags="0x4"/>
    </TTGlyph>
    <TTGlyph name="Umacron" xMin="152" yMin="-32" xMax="1544" yMax="1726">
      <component glyphName="U" x="0" y="0" flags="0x4"/>
      <component glyphName="hyphen" x="520" y="1112" flags="0x4"/>
    </TTGlyph>
    <TTGlyph name="Uogonek" xMin="152" yMin="-508" xMax="1544" yMax="1408">
      <component glyphName="U" x="0" y="0" flags="0x4"/>
      <component glyphName="ogonek" x="606" y="0" flags="0x4"/>
    </TTGlyph>
    <TTGlyph name="Uring" xMin="152" yMin="-32" xMax="1544" yMax="2204">
      <component glyphName="U" x="0" y="0" flags="0x4"/>
      <component glyphName="ring" x="440" y="350" flags="0x4"/>
    </TTGlyph>
    <TTGlyph name="Utilde" xMin="152" yMin="-32" xMax="1544" yMax="1962">
      <component glyphName="U" x="0" y="0" flags="0x4"/>
      <component glyphName="tilde" x="300" y="350" flags="0x4"/>
    </TTGlyph>
    <TTGlyph name="V" xMin="76" yMin="0" xMax="1456" yMax="1408">
      <contour>
        <pt x="76" y="1408" on="1"/>
        <pt x="538" y="1408" on="1"/>
        <pt x="756" y="530" on="1"/>
        <pt x="974" y="1408" on="1"/>
        <pt x="1456" y="1408" on="1"/>
        <pt x="1016" y="0" on="1"/>
        <pt x="494" y="0" on="1"/>
      </contour>
    </TTGlyph>
    <TTGlyph name="W" xMin="120" yMin="0" xMax="2062" yMax="1408">
      <contour>
        <pt x="120" y="1408" on="1"/>
        <pt x="580" y="1408" on="1"/>
        <pt x="714" y="510" on="1"/>
        <pt x="852" y="1170" on="1"/>
        <pt x="1328" y="1170" on="1"/>
        <pt x="1468" y="510" on="1"/>
        <pt x="1600" y="1408" on="1"/>
        <pt x="2062" y="1408" on="1"/>
        <pt x="1742" y="0" on="1"/>
        <pt x="1264" y="0" on="1"/>
        <pt x="1090" y="758" on="1"/>
        <pt x="916" y="0" on="1"/>
        <pt x="440" y="0" on="1"/>
      </contour>
    </TTGlyph>
    <TTGlyph name="Wcircumflex" xMin="120" yMin="0" xMax="2062" yMax="1990">
      <component glyphName="W" x="0" y="0" flags="0x4"/>
      <component glyphName="circumflex" x="618" y="350" flags="0x4"/>
    </TTGlyph>
    <TTGlyph name="X" xMin="144" yMin="0" xMax="1438" yMax="1408">
      <contour>
        <pt x="534" y="700" on="1"/>
        <pt x="156" y="1408" on="1"/>
        <pt x="620" y="1408" on="1"/>
        <pt x="786" y="1052" on="1"/>
        <pt x="952" y="1408" on="1"/>
        <pt x="1426" y="1408" on="1"/>
        <pt x="1044" y="700" on="1"/>
        <pt x="1438" y="0" on="1"/>
        <pt x="964" y="0" on="1"/>
        <pt x="786" y="350" on="1"/>
        <pt x="608" y="0" on="1"/>
        <pt x="144" y="0" on="1"/>
      </contour>
    </TTGlyph>
    <TTGlyph name="Y" xMin="62" yMin="0" xMax="1334" yMax="1408">
      <contour>
        <pt x="468" y="392" on="1"/>
        <pt x="62" y="1408" on="1"/>
        <pt x="490" y="1408" on="1"/>
        <pt x="688" y="776" on="1"/>
        <pt x="884" y="1408" on="1"/>
        <pt x="1334" y="1408" on="1"/>
        <pt x="908" y="392" on="1"/>
        <pt x="908" y="0" on="1"/>
        <pt x="468" y="0" on="1"/>
      </contour>
    </TTGlyph>
    <TTGlyph name="Yacute" xMin="62" yMin="0" xMax="1334" yMax="2140">
      <component glyphName="Y" x="0" y="0" flags="0x4"/>
      <component glyphName="acute" x="312" y="350" flags="0x4"/>
    </TTGlyph>
    <TTGlyph name="Ycircumflex" xMin="62" yMin="0" xMax="1334" yMax="1990">
      <component glyphName="Y" x="0" y="0" flags="0x4"/>
      <component glyphName="circumflex" x="230" y="350" flags="0x4"/>
    </TTGlyph>
    <TTGlyph name="Ydieresis" xMin="62" yMin="0" xMax="1334" yMax="1886">
      <component glyphName="Y" x="0" y="0" flags="0x4"/>
      <component glyphName="dieresis" x="54" y="350" flags="0x4"/>
    </TTGlyph>
    <TTGlyph name="Z" xMin="178" yMin="0" xMax="1158" yMax="1408">
      <contour>
        <pt x="178" y="296" on="1"/>
        <pt x="660" y="1110" on="1"/>
        <pt x="198" y="1110" on="1"/>
        <pt x="198" y="1408" on="1"/>
        <pt x="1118" y="1408" on="1"/>
        <pt x="1118" y="1110" on="1"/>
        <pt x="648" y="296" on="1"/>
        <pt x="1158" y="296" on="1"/>
        <pt x="1158" y="0" on="1"/>
        <pt x="178" y="0" on="1"/>
      </contour>
    </TTGlyph>
    <TTGlyph name="Zacute" xMin="178" yMin="0" xMax="1158" yMax="2140">
      <component glyphName="Z" x="0" y="0" flags="0x4"/>
      <component glyphName="acute" x="262" y="350" flags="0x4"/>
    </TTGlyph>
    <TTGlyph name="Zcaron" xMin="178" yMin="0" xMax="1158" yMax="1990">
      <component glyphName="Z" x="0" y="0" flags="0x4"/>
      <component glyphName="caron" x="180" y="350" flags="0x4"/>
    </TTGlyph>
    <TTGlyph name="Zdotaccent" xMin="178" yMin="0" xMax="1158" yMax="1928">
      <component glyphName="Z" x="0" y="0" flags="0x4"/>
      <component glyphName="dotaccent" x="354" y="350" flags="0x4"/>
    </TTGlyph>
    <TTGlyph name="a" xMin="74" yMin="-32" xMax="1342" yMax="1056">
      <contour>
        <pt x="912" y="190" on="1"/>
        <pt x="885" y="133" on="0"/>
        <pt x="811" y="49" on="0"/>
        <pt x="723" y="-5" on="0"/>
        <pt x="625" y="-32" on="0"/>
        <pt x="574" y="-32" on="1"/>
        <pt x="482" y="-32" on="0"/>
        <pt x="303" y="47" on="0"/>
        <pt x="161" y="191" on="0"/>
        <pt x="74" y="394" on="0"/>
        <pt x="74" y="519" on="1"/>
        <pt x="74" y="600" on="0"/>
        <pt x="116" y="743" on="0"/>
        <pt x="188" y="862" on="0"/>
        <pt x="285" y="956" on="0"/>
        <pt x="397" y="1022" on="0"/>
        <pt x="517" y="1056" on="0"/>
        <pt x="576" y="1056" on="1"/>
        <pt x="627" y="1056" on="0"/>
        <pt x="728" y="1020" on="0"/>
        <pt x="818" y="954" on="0"/>
        <pt x="890" y="860" on="0"/>
        <pt x="912" y="802" on="1"/>
        <pt x="912" y="1056" on="1"/>
        <pt x="1342" y="1026" on="1"/>
        <pt x="1342" y="0" on="1"/>
        <pt x="912" y="-32" on="1"/>
      </contour>
      <contour>
        <pt x="912" y="520" on="1"/>
        <pt x="910" y="559" on="0"/>
        <pt x="876" y="630" on="0"/>
        <pt x="821" y="684" on="0"/>
        <pt x="749" y="716" on="0"/>
        <pt x="710" y="716" on="1"/>
        <pt x="668" y="716" on="0"/>
        <pt x="593" y="684" on="0"/>
        <pt x="537" y="628" on="0"/>
        <pt x="504" y="554" on="0"/>
        <pt x="504" y="512" on="1"/>
        <pt x="504" y="471" on="0"/>
        <pt x="537" y="397" on="0"/>
        <pt x="593" y="341" on="0"/>
        <pt x="668" y="308" on="0"/>
        <pt x="710" y="308" on="1"/>
        <pt x="749" y="308" on="0"/>
        <pt x="821" y="339" on="0"/>
        <pt x="876" y="392" on="0"/>
        <pt x="910" y="463" on="0"/>
        <pt x="912" y="504" on="1"/>
      </contour>
    </TTGlyph>
    <TTGlyph name="aacute" xMin="74" yMin="-32" xMax="1342" yMax="1790">
      <component glyphName="a" x="0" y="0" flags="0x4"/>
      <component glyphName="acute" x="368" y="0" flags="0x4"/>
    </TTGlyph>
    <TTGlyph name="abreve" xMin="74" yMin="-32" xMax="1342" yMax="1500">
      <component glyphName="a" x="0" y="0" flags="0x4"/>
      <component glyphName="breve" x="374" y="0" flags="0x4"/>
    </TTGlyph>
    <TTGlyph name="acircumflex" xMin="74" yMin="-32" xMax="1342" yMax="1640">
      <component glyphName="a" x="0" y="0" flags="0x4"/>
      <component glyphName="circumflex" x="286" y="0" flags="0x4"/>
    </TTGlyph>
    <TTGlyph name="acute" xMin="4" yMin="1150" xMax="812" yMax="1790">
      <contour>
        <pt x="4" y="1370" on="1"/>
        <pt x="604" y="1790" on="1"/>
        <pt x="812" y="1424" on="1"/>
        <pt x="130" y="1150" on="1"/>
      </contour>
    </TTGlyph>
    <TTGlyph name="adieresis" xMin="74" yMin="-32" xMax="1342" yMax="1536">
      <component glyphName="a" x="0" y="0" flags="0x4"/>
      <component glyphName="dieresis" x="154" y="0" flags="0x4"/>
    </TTGlyph>
    <TTGlyph name="ae" xMin="74" yMin="-32" xMax="2698" yMax="1056">
      <component glyphName="a" x="0" y="0" flags="0x4"/>
      <component glyphName="e" x="1592" y="0" flags="0x4"/>
    </TTGlyph>
    <TTGlyph name="agrave" xMin="74" yMin="-32" xMax="1342" yMax="1790">
      <component glyphName="a" x="0" y="0" flags="0x4"/>
      <component glyphName="grave" x="368" y="0" flags="0x4"/>
    </TTGlyph>
    <TTGlyph name="amacron" xMin="74" yMin="-32" xMax="1342" yMax="1376">
      <component glyphName="a" x="0" y="0" flags="0x4"/>
      <component glyphName="hyphen" x="454" y="762" flags="0x4"/>
    </TTGlyph>
    <TTGlyph name="ampersand" xMin="84" yMin="-32" xMax="1402" yMax="1414">
      <contour>
        <pt x="886" y="108" on="1"/>
        <pt x="853" y="81" on="0"/>
        <pt x="776" y="30" on="0"/>
        <pt x="691" y="-9" on="0"/>
        <pt x="599" y="-32" on="0"/>
        <pt x="552" y="-32" on="1"/>
        <pt x="454" y="-32" on="0"/>
        <pt x="283" y="21" on="0"/>
        <pt x="157" y="126" on="0"/>
        <pt x="84" y="282" on="0"/>
        <pt x="84" y="384" on="1"/>
        <pt x="84" y="461" on="0"/>
        <pt x="128" y="578" on="0"/>
        <pt x="204" y="667" on="0"/>
        <pt x="308" y="733" on="0"/>
        <pt x="368" y="760" on="1"/>
        <pt x="226" y="917" on="0"/>
        <pt x="226" y="1056" on="1"/>
        <pt x="226" y="1134" on="0"/>
        <pt x="302" y="1265" on="0"/>
        <pt x="431" y="1361" on="0"/>
        <pt x="600" y="1414" on="0"/>
        <pt x="694" y="1414" on="1"/>
        <pt x="797" y="1414" on="0"/>
        <pt x="955" y="1355" on="0"/>
        <pt x="1060" y="1256" on="0"/>
        <pt x="1114" y="1128" on="0"/>
        <pt x="1114" y="1060" on="1"/>
        <pt x="1114" y="1007" on="0"/>
        <pt x="1080" y="901" on="0"/>
        <pt x="1012" y="804" on="0"/>
        <pt x="912" y="721" on="0"/>
        <pt x="846" y="692" on="1"/>
        <pt x="863" y="672" on="0"/>
        <pt x="892" y="636" on="0"/>
        <pt x="923" y="597" on="0"/>
        <pt x="960" y="552" on="0"/>
        <pt x="984" y="524" on="1"/>
        <pt x="1148" y="700" on="1"/>
        <pt x="1332" y="504" on="1"/>
        <pt x="1319" y="479" on="0"/>
        <pt x="1289" y="426" on="0"/>
        <pt x="1249" y="369" on="0"/>
        <pt x="1196" y="309" on="0"/>
        <pt x="1160" y="278" on="1"/>
        <pt x="1402" y="0" on="1"/>
        <pt x="990" y="0" on="1"/>
      </contour>
      <contour>
        <pt x="526" y="528" on="1"/>
        <pt x="484" y="505" on="0"/>
        <pt x="448" y="436" on="0"/>
        <pt x="448" y="398" on="1"/>
        <pt x="448" y="372" on="0"/>
        <pt x="464" y="326" on="0"/>
        <pt x="495" y="291" on="0"/>
        <pt x="541" y="270" on="0"/>
        <pt x="570" y="270" on="1"/>
        <pt x="618" y="270" on="0"/>
        <pt x="677" y="297" on="0"/>
        <pt x="694" y="314" on="1"/>
      </contour>
      <contour>
        <pt x="690" y="906" on="1"/>
        <pt x="750" y="933" on="0"/>
        <pt x="792" y="1001" on="0"/>
        <pt x="792" y="1052" on="1"/>
        <pt x="792" y="1091" on="0"/>
        <pt x="744" y="1146" on="0"/>
        <pt x="696" y="1146" on="1"/>
        <pt x="645" y="1146" on="0"/>
        <pt x="590" y="1100" on="0"/>
        <pt x="590" y="1052" on="1"/>
        <pt x="590" y="1013" on="0"/>
        <pt x="642" y="944" on="0"/>
      </contour>
    </TTGlyph>
    <TTGlyph name="aogonek" xMin="74" yMin="-508" xMax="1408" yMax="1056">
      <component glyphName="a" x="0" y="0" flags="0x4"/>
      <component glyphName="ogonek" x="900" y="0" flags="0x4"/>
    </TTGlyph>
    <TTGlyph name="approxequal" xMin="130" yMin="598" xMax="1244" yMax="1056">
      <component glyphName="asciitilde" x="0" y="0" flags="0x204"/>
      <component glyphName="asciitilde" x="0" y="0" flags="0x4"/>
    </TTGlyph>
    <TTGlyph name="aring" xMin="74" yMin="-32" xMax="1342" yMax="1854">
      <component glyphName="a" x="0" y="0" flags="0x4"/>
      <component glyphName="ring" x="356" y="0" flags="0x4"/>
    </TTGlyph>
    <TTGlyph name="asciicircum" xMin="72" yMin="350" xMax="1134" yMax="1376">
      <contour>
        <pt x="418" y="1376" on="1"/>
        <pt x="784" y="1376" on="1"/>
        <pt x="1134" y="350" on="1"/>
        <pt x="830" y="350" on="1"/>
        <pt x="604" y="1184" on="1"/>
        <pt x="382" y="350" on="1"/>
        <pt x="72" y="350" on="1"/>
      </contour>
    </TTGlyph>
    <TTGlyph name="asciitilde" xMin="130" yMin="598" xMax="1244" yMax="1056">
      <contour>
        <pt x="130" y="702" on="1"/>
        <pt x="163" y="797" on="0"/>
        <pt x="247" y="932" on="0"/>
        <pt x="339" y="1017" on="0"/>
        <pt x="435" y="1056" on="0"/>
        <pt x="480" y="1056" on="1"/>
        <pt x="547" y="1056" on="0"/>
        <pt x="657" y="1021" on="0"/>
        <pt x="755" y="979" on="0"/>
        <pt x="849" y="944" on="0"/>
        <pt x="902" y="944" on="1"/>
        <pt x="923" y="944" on="0"/>
        <pt x="956" y="959" on="0"/>
        <pt x="981" y="985" on="0"/>
        <pt x="999" y="1018" on="0"/>
        <pt x="1006" y="1036" on="1"/>
        <pt x="1244" y="938" on="1"/>
        <pt x="1214" y="849" on="0"/>
        <pt x="1141" y="720" on="0"/>
        <pt x="1057" y="637" on="0"/>
        <pt x="962" y="598" on="0"/>
        <pt x="910" y="598" on="1"/>
        <pt x="829" y="598" on="0"/>
        <pt x="713" y="633" on="0"/>
        <pt x="617" y="675" on="0"/>
        <pt x="530" y="710" on="0"/>
        <pt x="478" y="710" on="1"/>
        <pt x="456" y="710" on="0"/>
        <pt x="423" y="690" on="0"/>
        <pt x="397" y="660" on="0"/>
        <pt x="379" y="622" on="0"/>
        <pt x="372" y="604" on="1"/>
      </contour>
    </TTGlyph>
    <TTGlyph name="asterisk" xMin="42" yMin="442" xMax="1012" yMax="1376">
      <contour>
        <pt x="358" y="852" on="1"/>
        <pt x="42" y="990" on="1"/>
        <pt x="152" y="1208" on="1"/>
        <pt x="428" y="1042" on="1"/>
        <pt x="406" y="1376" on="1"/>
        <pt x="654" y="1376" on="1"/>
        <pt x="628" y="1044" on="1"/>
        <pt x="896" y="1212" on="1"/>
        <pt x="1012" y="990" on="1"/>
        <pt x="692" y="852" on="1"/>
        <pt x="926" y="606" on="1"/>
        <pt x="718" y="442" on="1"/>
        <pt x="522" y="738" on="1"/>
        <pt x="330" y="442" on="1"/>
        <pt x="124" y="608" on="1"/>
      </contour>
    </TTGlyph>
    <TTGlyph name="atilde" xMin="74" yMin="-32" xMax="1342" yMax="1612">
      <component glyphName="a" x="0" y="0" flags="0x4"/>
      <component glyphName="tilde" x="216" y="0" flags="0x4"/>
    </TTGlyph>
    <TTGlyph name="b" xMin="182" yMin="-32" xMax="1450" yMax="1414">
      <contour>
        <pt x="182" y="1350" on="1"/>
        <pt x="616" y="1414" on="1"/>
        <pt x="616" y="834" on="1"/>
        <pt x="643" y="892" on="0"/>
        <pt x="715" y="976" on="0"/>
        <pt x="801" y="1030" on="0"/>
        <pt x="897" y="1056" on="0"/>
        <pt x="948" y="1056" on="1"/>
        <pt x="1040" y="1056" on="0"/>
        <pt x="1220" y="979" on="0"/>
        <pt x="1362" y="836" on="0"/>
        <pt x="1450" y="635" on="0"/>
        <pt x="1450" y="512" on="1"/>
        <pt x="1450" y="389" on="0"/>
        <pt x="1363" y="188" on="0"/>
        <pt x="1221" y="46" on="0"/>
        <pt x="1042" y="-32" on="0"/>
        <pt x="950" y="-32" on="1"/>
        <pt x="846" y="-32" on="0"/>
        <pt x="670" y="76" on="0"/>
        <pt x="616" y="190" on="1"/>
        <pt x="616" y="0" on="1"/>
        <pt x="182" y="0" on="1"/>
      </contour>
      <contour>
        <pt x="616" y="512" on="1"/>
        <pt x="616" y="471" on="0"/>
        <pt x="648" y="397" on="0"/>
        <pt x="703" y="341" on="0"/>
        <pt x="777" y="308" on="0"/>
        <pt x="818" y="308" on="1"/>
        <pt x="860" y="308" on="0"/>
        <pt x="934" y="341" on="0"/>
        <pt x="990" y="397" on="0"/>
        <pt x="1022" y="471" on="0"/>
        <pt x="1022" y="512" on="1"/>
        <pt x="1022" y="554" on="0"/>
        <pt x="990" y="628" on="0"/>
        <pt x="934" y="684" on="0"/>
        <pt x="860" y="716" on="0"/>
        <pt x="818" y="716" on="1"/>
        <pt x="777" y="716" on="0"/>
        <pt x="705" y="684" on="0"/>
        <pt x="650" y="630" on="0"/>
        <pt x="617" y="559" on="0"/>
        <pt x="616" y="520" on="1"/>
      </contour>
    </TTGlyph>
    <TTGlyph name="backslash" xMin="4" yMin="0" xMax="482" yMax="1376">
      <contour>
        <pt x="4" y="1376" on="1"/>
        <pt x="146" y="1376" on="1"/>
        <pt x="482" y="0" on="1"/>
        <pt x="344" y="0" on="1"/>
      </contour>
    </TTGlyph>
    <TTGlyph name="bar" xMin="184" yMin="0" xMax="316" yMax="1376">
      <contour>
        <pt x="184" y="1376" on="1"/>
        <pt x="316" y="1376" on="1"/>
        <pt x="316" y="0" on="1"/>
        <pt x="184" y="0" on="1"/>
      </contour>
    </TTGlyph>
    <TTGlyph name="braceleft" xMin="2" yMin="-74" xMax="650" yMax="1458">
      <contour>
        <pt x="2" y="772" on="1"/>
        <pt x="21" y="774" on="0"/>
        <pt x="65" y="787" on="0"/>
        <pt x="103" y="814" on="0"/>
        <pt x="128" y="859" on="0"/>
        <pt x="128" y="894" on="1"/>
        <pt x="128" y="1007" on="0"/>
        <pt x="194" y="1204" on="0"/>
        <pt x="325" y="1354" on="0"/>
        <pt x="520" y="1448" on="0"/>
        <pt x="650" y="1458" on="1"/>
        <pt x="650" y="1280" on="1"/>
        <pt x="631" y="1273" on="0"/>
        <pt x="587" y="1233" on="0"/>
        <pt x="549" y="1146" on="0"/>
        <pt x="524" y="1003" on="0"/>
        <pt x="524" y="894" on="1"/>
        <pt x="524" y="837" on="0"/>
        <pt x="449" y="734" on="0"/>
        <pt x="368" y="692" on="1"/>
        <pt x="449" y="650" on="0"/>
        <pt x="524" y="548" on="0"/>
        <pt x="524" y="488" on="1"/>
        <pt x="524" y="379" on="0"/>
        <pt x="549" y="237" on="0"/>
        <pt x="587" y="151" on="0"/>
        <pt x="631" y="111" on="0"/>
        <pt x="650" y="104" on="1"/>
        <pt x="650" y="-74" on="1"/>
        <pt x="520" y="-64" on="0"/>
        <pt x="325" y="30" on="0"/>
        <pt x="194" y="180" on="0"/>
        <pt x="128" y="376" on="0"/>
        <pt x="128" y="488" on="1"/>
        <pt x="128" y="522" on="0"/>
        <pt x="103" y="568" on="0"/>
        <pt x="65" y="596" on="0"/>
        <pt x="21" y="610" on="0"/>
        <pt x="2" y="612" on="1"/>
      </contour>
    </TTGlyph>
    <TTGlyph name="braceright" xMin="168" yMin="-74" xMax="816" yMax="1458">
      <contour>
        <pt x="168" y="104" on="1"/>
        <pt x="187" y="111" on="0"/>
        <pt x="231" y="151" on="0"/>
        <pt x="269" y="237" on="0"/>
        <pt x="294" y="379" on="0"/>
        <pt x="294" y="488" on="1"/>
        <pt x="294" y="548" on="0"/>
        <pt x="369" y="650" on="0"/>
        <pt x="450" y="692" on="1"/>
        <pt x="369" y="734" on="0"/>
        <pt x="294" y="837" on="0"/>
        <pt x="294" y="894" on="1"/>
        <pt x="294" y="1003" on="0"/>
        <pt x="269" y="1146" on="0"/>
        <pt x="231" y="1233" on="0"/>
        <pt x="187" y="1273" on="0"/>
        <pt x="168" y="1280" on="1"/>
        <pt x="168" y="1458" on="1"/>
        <pt x="298" y="1447" on="0"/>
        <pt x="494" y="1353" on="0"/>
        <pt x="625" y="1203" on="0"/>
        <pt x="690" y="1007" on="0"/>
        <pt x="690" y="894" on="1"/>
        <pt x="690" y="859" on="0"/>
        <pt x="715" y="814" on="0"/>
        <pt x="753" y="787" on="0"/>
        <pt x="797" y="774" on="0"/>
        <pt x="816" y="772" on="1"/>
        <pt x="816" y="612" on="1"/>
        <pt x="797" y="610" on="0"/>
        <pt x="753" y="596" on="0"/>
        <pt x="715" y="568" on="0"/>
        <pt x="690" y="522" on="0"/>
        <pt x="690" y="488" on="1"/>
        <pt x="690" y="376" on="0"/>
        <pt x="625" y="180" on="0"/>
        <pt x="494" y="30" on="0"/>
        <pt x="298" y="-64" on="0"/>
        <pt x="168" y="-74" on="1"/>
      </contour>
    </TTGlyph>
    <TTGlyph name="bracketleft" xMin="186" yMin="0" xMax="912" yMax="1376">
      <contour>
        <pt x="186" y="1376" on="1"/>
        <pt x="912" y="1376" on="1"/>
        <pt x="912" y="1072" on="1"/>
        <pt x="626" y="1072" on="1"/>
        <pt x="626" y="302" on="1"/>
        <pt x="912" y="302" on="1"/>
        <pt x="912" y="0" on="1"/>
        <pt x="186" y="0" on="1"/>
      </contour>
    </TTGlyph>
    <TTGlyph name="bracketright" xMin="186" yMin="0" xMax="912" yMax="1376">
      <contour>
        <pt x="186" y="302" on="1"/>
        <pt x="472" y="302" on="1"/>
        <pt x="472" y="1072" on="1"/>
        <pt x="186" y="1072" on="1"/>
        <pt x="186" y="1376" on="1"/>
        <pt x="912" y="1376" on="1"/>
        <pt x="912" y="0" on="1"/>
        <pt x="186" y="0" on="1"/>
      </contour>
    </TTGlyph>
    <TTGlyph name="breve" xMin="70" yMin="1150" xMax="772" yMax="1500">
      <contour>
        <pt x="296" y="1500" on="1"/>
        <pt x="296" y="1472" on="0"/>
        <pt x="317" y="1426" on="0"/>
        <pt x="351" y="1394" on="0"/>
        <pt x="397" y="1376" on="0"/>
        <pt x="422" y="1376" on="1"/>
        <pt x="445" y="1376" on="0"/>
        <pt x="488" y="1391" on="0"/>
        <pt x="521" y="1422" on="0"/>
        <pt x="540" y="1468" on="0"/>
        <pt x="540" y="1500" on="1"/>
        <pt x="772" y="1500" on="1"/>
        <pt x="772" y="1412" on="0"/>
        <pt x="712" y="1281" on="0"/>
        <pt x="614" y="1194" on="0"/>
        <pt x="488" y="1150" on="0"/>
        <pt x="422" y="1150" on="1"/>
        <pt x="356" y="1150" on="0"/>
        <pt x="229" y="1194" on="0"/>
        <pt x="130" y="1281" on="0"/>
        <pt x="70" y="1412" on="0"/>
        <pt x="70" y="1500" on="1"/>
      </contour>
    </TTGlyph>
    <TTGlyph name="bullet" xMin="92" yMin="114" xMax="994" yMax="946">
      <contour>
        <pt x="92" y="530" on="1"/>
        <pt x="92" y="633" on="0"/>
        <pt x="170" y="788" on="0"/>
        <pt x="297" y="893" on="0"/>
        <pt x="459" y="946" on="0"/>
        <pt x="544" y="946" on="1"/>
        <pt x="629" y="946" on="0"/>
        <pt x="791" y="893" on="0"/>
        <pt x="917" y="788" on="0"/>
        <pt x="994" y="633" on="0"/>
        <pt x="994" y="530" on="1"/>
        <pt x="994" y="427" on="0"/>
        <pt x="917" y="272" on="0"/>
        <pt x="790" y="167" on="0"/>
        <pt x="627" y="114" on="0"/>
        <pt x="542" y="114" on="1"/>
        <pt x="458" y="114" on="0"/>
        <pt x="296" y="167" on="0"/>
        <pt x="170" y="272" on="0"/>
        <pt x="92" y="427" on="0"/>
      </contour>
    </TTGlyph>
    <TTGlyph name="c" xMin="96" yMin="-32" xMax="966" yMax="1056">
      <contour>
        <pt x="962" y="50" on="1"/>
        <pt x="922" y="30" on="0"/>
        <pt x="847" y="0" on="0"/>
        <pt x="772" y="-21" on="0"/>
        <pt x="694" y="-32" on="0"/>
        <pt x="652" y="-32" on="1"/>
        <pt x="543" y="-32" on="0"/>
        <pt x="342" y="42" on="0"/>
        <pt x="188" y="182" on="0"/>
        <pt x="96" y="384" on="0"/>
        <pt x="96" y="512" on="1"/>
        <pt x="96" y="633" on="0"/>
        <pt x="185" y="833" on="0"/>
        <pt x="338" y="977" on="0"/>
        <pt x="539" y="1056" on="0"/>
        <pt x="652" y="1056" on="1"/>
        <pt x="736" y="1056" on="0"/>
        <pt x="882" y="1009" on="0"/>
        <pt x="966" y="958" on="1"/>
        <pt x="926" y="686" on="1"/>
        <pt x="866" y="704" on="0"/>
        <pt x="771" y="720" on="0"/>
        <pt x="726" y="720" on="1"/>
        <pt x="680" y="720" on="0"/>
        <pt x="605" y="689" on="0"/>
        <pt x="551" y="634" on="0"/>
        <pt x="522" y="557" on="0"/>
        <pt x="522" y="512" on="1"/>
        <pt x="522" y="467" on="0"/>
        <pt x="552" y="390" on="0"/>
        <pt x="606" y="334" on="0"/>
        <pt x="683" y="302" on="0"/>
        <pt x="730" y="302" on="1"/>
        <pt x="816" y="302" on="0"/>
        <pt x="922" y="336" on="1"/>
      </contour>
    </TTGlyph>
    <TTGlyph name="cacute" xMin="96" yMin="-32" xMax="978" yMax="1790">
      <component glyphName="c" x="0" y="0" flags="0x4"/>
      <component glyphName="acute" x="166" y="0" flags="0x4"/>
    </TTGlyph>
    <TTGlyph name="caron" xMin="48" yMin="1130" xMax="930" yMax="1640">
      <contour>
        <pt x="48" y="1640" on="1"/>
        <pt x="388" y="1640" on="1"/>
        <pt x="466" y="1422" on="1"/>
        <pt x="488" y="1342" on="1"/>
        <pt x="512" y="1422" on="1"/>
        <pt x="590" y="1640" on="1"/>
        <pt x="930" y="1640" on="1"/>
        <pt x="678" y="1130" on="1"/>
        <pt x="300" y="1130" on="1"/>
      </contour>
    </TTGlyph>
    <TTGlyph name="ccaron" xMin="96" yMin="-32" xMax="1016" yMax="1640">
      <component glyphName="c" x="0" y="0" flags="0x4"/>
      <component glyphName="caron" x="86" y="0" flags="0x4"/>
    </TTGlyph>
    <TTGlyph name="ccedilla" xMin="96" yMin="-508" xMax="966" yMax="1056">
      <component glyphName="c" x="0" y="0" flags="0x4"/>
      <component glyphName="cedilla" x="270" y="0" flags="0x4"/>
    </TTGlyph>
    <TTGlyph name="ccircumflex" xMin="96" yMin="-32" xMax="1016" yMax="1640">
      <component glyphName="c" x="0" y="0" flags="0x4"/>
      <component glyphName="circumflex" x="86" y="0" flags="0x4"/>
    </TTGlyph>
    <TTGlyph name="cdotaccent" xMin="96" yMin="-32" xMax="966" yMax="1578">
      <component glyphName="c" x="0" y="0" flags="0x4"/>
      <component glyphName="dotaccent" x="258" y="0" flags="0x4"/>
    </TTGlyph>
    <TTGlyph name="cedilla" xMin="38" yMin="-508" xMax="514" yMax="0">
      <contour>
        <pt x="66" y="-388" on="1"/>
        <pt x="87" y="-394" on="0"/>
        <pt x="134" y="-402" on="0"/>
        <pt x="158" y="-402" on="1"/>
        <pt x="182" y="-402" on="0"/>
        <pt x="230" y="-391" on="0"/>
        <pt x="267" y="-363" on="0"/>
        <pt x="290" y="-313" on="0"/>
        <pt x="290" y="-274" on="1"/>
        <pt x="290" y="-256" on="0"/>
        <pt x="278" y="-222" on="0"/>
        <pt x="250" y="-196" on="0"/>
        <pt x="205" y="-180" on="0"/>
        <pt x="172" y="-180" on="1"/>
        <pt x="168" y="-180" on="1"/>
        <pt x="228" y="0" on="1"/>
        <pt x="342" y="0" on="1"/>
        <pt x="302" y="-116" on="1"/>
        <pt x="357" y="-122" on="0"/>
        <pt x="438" y="-152" on="0"/>
        <pt x="489" y="-194" on="0"/>
        <pt x="514" y="-247" on="0"/>
        <pt x="514" y="-276" on="1"/>
        <pt x="514" y="-322" on="0"/>
        <pt x="467" y="-406" on="0"/>
        <pt x="386" y="-470" on="0"/>
        <pt x="279" y="-508" on="0"/>
        <pt x="218" y="-508" on="1"/>
        <pt x="176" y="-508" on="0"/>
        <pt x="86" y="-488" on="0"/>
        <pt x="38" y="-464" on="1"/>
      </contour>
    </TTGlyph>
    <TTGlyph name="cent" xMin="76" yMin="-186" xMax="946" yMax="1190">
      <contour>
        <pt x="648" y="-32" on="1"/>
        <pt x="630" y="-32" on="1"/>
        <pt x="521" y="-32" on="0"/>
        <pt x="321" y="42" on="0"/>
        <pt x="168" y="182" on="0"/>
        <pt x="76" y="384" on="0"/>
        <pt x="76" y="512" on="1"/>
        <pt x="76" y="633" on="0"/>
        <pt x="165" y="833" on="0"/>
        <pt x="316" y="977" on="0"/>
        <pt x="517" y="1056" on="0"/>
        <pt x="630" y="1056" on="1"/>
        <pt x="648" y="1056" on="1"/>
        <pt x="648" y="1190" on="1"/>
        <pt x="782" y="1190" on="1"/>
        <pt x="782" y="1034" on="1"/>
        <pt x="788" y="1032" on="1"/>
        <pt x="824" y="1021" on="0"/>
        <pt x="904" y="984" on="0"/>
        <pt x="946" y="958" on="1"/>
        <pt x="904" y="686" on="1"/>
        <pt x="875" y="695" on="0"/>
        <pt x="822" y="709" on="0"/>
        <pt x="798" y="712" on="1"/>
        <pt x="782" y="714" on="1"/>
        <pt x="782" y="308" on="1"/>
        <pt x="837" y="314" on="0"/>
        <pt x="900" y="336" on="1"/>
        <pt x="942" y="50" on="1"/>
        <pt x="900" y="30" on="0"/>
        <pt x="826" y="1" on="0"/>
        <pt x="788" y="-10" on="1"/>
        <pt x="782" y="-12" on="1"/>
        <pt x="782" y="-186" on="1"/>
        <pt x="648" y="-186" on="1"/>
      </contour>
      <contour>
        <pt x="558" y="360" on="1"/>
        <pt x="578" y="342" on="0"/>
        <pt x="622" y="316" on="0"/>
        <pt x="648" y="310" on="1"/>
        <pt x="648" y="714" on="1"/>
        <pt x="616" y="706" on="0"/>
        <pt x="563" y="670" on="0"/>
        <pt x="524" y="618" on="0"/>
        <pt x="502" y="551" on="0"/>
        <pt x="502" y="512" on="1"/>
        <pt x="502" y="419" on="0"/>
      </contour>
    </TTGlyph>
    <TTGlyph name="circumflex" xMin="48" yMin="1130" xMax="930" yMax="1640">
      <contour>
        <pt x="300" y="1640" on="1"/>
        <pt x="678" y="1640" on="1"/>
        <pt x="930" y="1130" on="1"/>
        <pt x="590" y="1130" on="1"/>
        <pt x="512" y="1348" on="1"/>
        <pt x="488" y="1426" on="1"/>
        <pt x="466" y="1348" on="1"/>
        <pt x="388" y="1130" on="1"/>
        <pt x="48" y="1130" on="1"/>
      </contour>
    </TTGlyph>
    <TTGlyph name="colon" xMin="98" yMin="0" xMax="558" yMax="1028">
      <contour>
        <pt x="98" y="206" on="1"/>
        <pt x="98" y="248" on="0"/>
        <pt x="135" y="323" on="0"/>
        <pt x="198" y="380" on="0"/>
        <pt x="283" y="414" on="0"/>
        <pt x="330" y="414" on="1"/>
        <pt x="376" y="414" on="0"/>
        <pt x="458" y="380" on="0"/>
        <pt x="521" y="323" on="0"/>
        <pt x="558" y="248" on="0"/>
        <pt x="558" y="206" on="1"/>
        <pt x="558" y="163" on="0"/>
        <pt x="521" y="88" on="0"/>
        <pt x="458" y="32" on="0"/>
        <pt x="376" y="0" on="0"/>
        <pt x="330" y="0" on="1"/>
        <pt x="283" y="0" on="0"/>
        <pt x="198" y="32" on="0"/>
        <pt x="135" y="88" on="0"/>
        <pt x="98" y="163" on="0"/>
      </contour>
      <contour>
        <pt x="98" y="820" on="1"/>
        <pt x="98" y="862" on="0"/>
        <pt x="135" y="937" on="0"/>
        <pt x="198" y="994" on="0"/>
        <pt x="283" y="1028" on="0"/>
        <pt x="330" y="1028" on="1"/>
        <pt x="376" y="1028" on="0"/>
        <pt x="458" y="994" on="0"/>
        <pt x="521" y="937" on="0"/>
        <pt x="558" y="862" on="0"/>
        <pt x="558" y="820" on="1"/>
        <pt x="558" y="777" on="0"/>
        <pt x="521" y="702" on="0"/>
        <pt x="458" y="646" on="0"/>
        <pt x="376" y="614" on="0"/>
        <pt x="330" y="614" on="1"/>
        <pt x="283" y="614" on="0"/>
        <pt x="198" y="646" on="0"/>
        <pt x="135" y="702" on="0"/>
        <pt x="98" y="777" on="0"/>
      </contour>
    </TTGlyph>
    <TTGlyph name="comma" xMin="184" yMin="-346" xMax="604" yMax="382">
      <contour>
        <pt x="184" y="-106" on="1"/>
        <pt x="256" y="-106" on="0"/>
        <pt x="333" y="-101" on="0"/>
        <pt x="369" y="-80" on="0"/>
        <pt x="374" y="-38" on="0"/>
        <pt x="374" y="0" on="1"/>
        <pt x="184" y="0" on="1"/>
        <pt x="184" y="382" on="1"/>
        <pt x="604" y="382" on="1"/>
        <pt x="600" y="218" on="0"/>
        <pt x="593" y="-17" on="0"/>
        <pt x="569" y="-178" on="0"/>
        <pt x="520" y="-276" on="0"/>
        <pt x="430" y="-329" on="0"/>
        <pt x="288" y="-346" on="0"/>
        <pt x="184" y="-346" on="1"/>
      </contour>
    </TTGlyph>
    <TTGlyph name="copyright" xMin="86" yMin="-32" xMax="1370" yMax="1252">
      <contour>
        <pt x="726" y="90" on="1"/>
        <pt x="830" y="90" on="0"/>
        <pt x="1013" y="172" on="0"/>
        <pt x="1149" y="314" on="0"/>
        <pt x="1228" y="504" on="0"/>
        <pt x="1228" y="612" on="1"/>
        <pt x="1228" y="719" on="0"/>
        <pt x="1149" y="909" on="0"/>
        <pt x="1013" y="1051" on="0"/>
        <pt x="830" y="1134" on="0"/>
        <pt x="726" y="1134" on="1"/>
        <pt x="622" y="1134" on="0"/>
        <pt x="440" y="1051" on="0"/>
        <pt x="303" y="909" on="0"/>
        <pt x="224" y="719" on="0"/>
        <pt x="224" y="612" on="1"/>
        <pt x="224" y="504" on="0"/>
        <pt x="303" y="314" on="0"/>
        <pt x="440" y="172" on="0"/>
        <pt x="622" y="90" on="0"/>
      </contour>
      <contour>
        <pt x="726" y="-32" on="1"/>
        <pt x="637" y="-32" on="0"/>
        <pt x="473" y="15" on="0"/>
        <pt x="330" y="100" on="0"/>
        <pt x="214" y="219" on="0"/>
        <pt x="131" y="364" on="0"/>
        <pt x="86" y="530" on="0"/>
        <pt x="86" y="619" on="1"/>
        <pt x="86" y="752" on="0"/>
        <pt x="189" y="983" on="0"/>
        <pt x="366" y="1154" on="0"/>
        <pt x="601" y="1252" on="0"/>
        <pt x="733" y="1252" on="1"/>
        <pt x="865" y="1252" on="0"/>
        <pt x="1097" y="1150" on="0"/>
        <pt x="1270" y="975" on="0"/>
        <pt x="1370" y="742" on="0"/>
        <pt x="1370" y="612" on="1"/>
        <pt x="1370" y="523" on="0"/>
        <pt x="1324" y="359" on="0"/>
        <pt x="1240" y="216" on="0"/>
        <pt x="1123" y="98" on="0"/>
        <pt x="980" y="14" on="0"/>
        <pt x="815" y="-32" on="0"/>
      </contour>
      <contour>
        <pt x="974" y="282" on="1"/>
        <pt x="920" y="255" on="0"/>
        <pt x="807" y="230" on="0"/>
        <pt x="750" y="230" on="1"/>
        <pt x="671" y="231" on="0"/>
        <pt x="530" y="279" on="0"/>
        <pt x="423" y="373" on="0"/>
        <pt x="359" y="515" on="0"/>
        <pt x="358" y="610" on="1"/>
        <pt x="358" y="698" on="0"/>
        <pt x="422" y="839" on="0"/>
        <pt x="530" y="938" on="0"/>
        <pt x="669" y="990" on="0"/>
        <pt x="744" y="990" on="1"/>
        <pt x="804" y="990" on="0"/>
        <pt x="922" y="961" on="0"/>
        <pt x="976" y="928" on="1"/>
        <pt x="958" y="814" on="1"/>
        <pt x="907" y="840" on="0"/>
        <pt x="811" y="862" on="0"/>
        <pt x="766" y="862" on="1"/>
        <pt x="716" y="862" on="0"/>
        <pt x="627" y="832" on="0"/>
        <pt x="559" y="770" on="0"/>
        <pt x="520" y="675" on="0"/>
        <pt x="520" y="610" on="1"/>
        <pt x="520" y="553" on="0"/>
        <pt x="553" y="460" on="0"/>
        <pt x="616" y="395" on="0"/>
        <pt x="706" y="360" on="0"/>
        <pt x="764" y="360" on="1"/>
        <pt x="846" y="360" on="0"/>
        <pt x="954" y="402" on="1"/>
      </contour>
    </TTGlyph>
    <TTGlyph name="d" xMin="42" yMin="-32" xMax="1310" yMax="1414">
      <contour>
        <pt x="878" y="190" on="1"/>
        <pt x="851" y="133" on="0"/>
        <pt x="777" y="49" on="0"/>
        <pt x="690" y="-5" on="0"/>
        <pt x="592" y="-32" on="0"/>
        <pt x="540" y="-32" on="1"/>
        <pt x="450" y="-32" on="0"/>
        <pt x="272" y="46" on="0"/>
        <pt x="130" y="188" on="0"/>
        <pt x="42" y="389" on="0"/>
        <pt x="42" y="512" on="1"/>
        <pt x="42" y="636" on="0"/>
        <pt x="130" y="837" on="0"/>
        <pt x="272" y="979" on="0"/>
        <pt x="451" y="1056" on="0"/>
        <pt x="542" y="1056" on="1"/>
        <pt x="594" y="1056" on="0"/>
        <pt x="691" y="1030" on="0"/>
        <pt x="778" y="976" on="0"/>
        <pt x="851" y="892" on="0"/>
        <pt x="878" y="834" on="1"/>
        <pt x="878" y="1350" on="1"/>
        <pt x="1310" y="1414" on="1"/>
        <pt x="1310" y="0" on="1"/>
        <pt x="878" y="0" on="1"/>
      </contour>
      <contour>
        <pt x="878" y="520" on="1"/>
        <pt x="876" y="559" on="0"/>
        <pt x="842" y="630" on="0"/>
        <pt x="787" y="684" on="0"/>
        <pt x="715" y="716" on="0"/>
        <pt x="676" y="716" on="1"/>
        <pt x="634" y="716" on="0"/>
        <pt x="560" y="684" on="0"/>
        <pt x="504" y="628" on="0"/>
        <pt x="472" y="554" on="0"/>
        <pt x="472" y="512" on="1"/>
        <pt x="472" y="471" on="0"/>
        <pt x="504" y="397" on="0"/>
        <pt x="560" y="341" on="0"/>
        <pt x="634" y="308" on="0"/>
        <pt x="676" y="308" on="1"/>
        <pt x="717" y="308" on="0"/>
        <pt x="791" y="341" on="0"/>
        <pt x="846" y="397" on="0"/>
        <pt x="878" y="471" on="0"/>
        <pt x="878" y="512" on="1"/>
      </contour>
    </TTGlyph>
    <TTGlyph name="dagger" xMin="-24" yMin="0" xMax="462" yMax="1376">
      <contour>
        <pt x="154" y="1376" on="1"/>
        <pt x="286" y="1376" on="1"/>
        <pt x="286" y="0" on="1"/>
        <pt x="154" y="0" on="1"/>
      </contour>
      <contour>
        <pt x="-24" y="614" on="1"/>
        <pt x="462" y="614" on="1"/>
        <pt x="462" y="440" on="1"/>
        <pt x="-24" y="440" on="1"/>
      </contour>
    </TTGlyph>
    <TTGlyph name="daggerdbl" xMin="-92" yMin="0" xMax="532" yMax="1376">
      <contour>
        <pt x="154" y="1376" on="1"/>
        <pt x="286" y="1376" on="1"/>
        <pt x="286" y="0" on="1"/>
        <pt x="154" y="0" on="1"/>
      </contour>
      <contour>
        <pt x="-92" y="442" on="1"/>
        <pt x="532" y="442" on="1"/>
        <pt x="532" y="318" on="1"/>
        <pt x="-92" y="318" on="1"/>
      </contour>
      <contour>
        <pt x="-92" y="720" on="1"/>
        <pt x="532" y="720" on="1"/>
        <pt x="532" y="594" on="1"/>
        <pt x="-92" y="594" on="1"/>
      </contour>
    </TTGlyph>
    <TTGlyph name="dcaron" xMin="42" yMin="-32" xMax="2028" yMax="1414">
      <component glyphName="d" x="0" y="0" flags="0x4"/>
      <component glyphName="quoteright" x="1530" y="0" flags="0x4"/>
    </TTGlyph>
    <TTGlyph name="dcroat" xMin="74" yMin="-32" xMax="1408" yMax="1414">
      <contour>
        <pt x="910" y="190" on="1"/>
        <pt x="883" y="133" on="0"/>
        <pt x="809" y="49" on="0"/>
        <pt x="722" y="-5" on="0"/>
        <pt x="624" y="-32" on="0"/>
        <pt x="572" y="-32" on="1"/>
        <pt x="482" y="-32" on="0"/>
        <pt x="304" y="46" on="0"/>
        <pt x="162" y="188" on="0"/>
        <pt x="74" y="389" on="0"/>
        <pt x="74" y="512" on="1"/>
        <pt x="74" y="636" on="0"/>
        <pt x="162" y="837" on="0"/>
        <pt x="304" y="979" on="0"/>
        <pt x="483" y="1056" on="0"/>
        <pt x="574" y="1056" on="1"/>
        <pt x="626" y="1056" on="0"/>
        <pt x="723" y="1030" on="0"/>
        <pt x="810" y="976" on="0"/>
        <pt x="883" y="892" on="0"/>
        <pt x="910" y="834" on="1"/>
        <pt x="910" y="1106" on="1"/>
        <pt x="768" y="1106" on="1"/>
        <pt x="768" y="1280" on="1"/>
        <pt x="910" y="1280" on="1"/>
        <pt x="910" y="1350" on="1"/>
        <pt x="1342" y="1414" on="1"/>
        <pt x="1342" y="1280" on="1"/>
        <pt x="1408" y="1280" on="1"/>
        <pt x="1408" y="1106" on="1"/>
        <pt x="1342" y="1106" on="1"/>
        <pt x="1342" y="0" on="1"/>
        <pt x="910" y="0" on="1"/>
      </contour>
      <contour>
        <pt x="910" y="520" on="1"/>
        <pt x="908" y="559" on="0"/>
        <pt x="874" y="630" on="0"/>
        <pt x="819" y="684" on="0"/>
        <pt x="747" y="716" on="0"/>
        <pt x="708" y="716" on="1"/>
        <pt x="666" y="716" on="0"/>
        <pt x="592" y="684" on="0"/>
        <pt x="536" y="628" on="0"/>
        <pt x="504" y="554" on="0"/>
        <pt x="504" y="512" on="1"/>
        <pt x="504" y="471" on="0"/>
        <pt x="536" y="397" on="0"/>
        <pt x="592" y="341" on="0"/>
        <pt x="666" y="308" on="0"/>
        <pt x="708" y="308" on="1"/>
        <pt x="749" y="308" on="0"/>
        <pt x="823" y="341" on="0"/>
        <pt x="878" y="397" on="0"/>
        <pt x="910" y="471" on="0"/>
        <pt x="910" y="512" on="1"/>
      </contour>
    </TTGlyph>
    <TTGlyph name="dieresis" xMin="84" yMin="1122" xMax="1162" yMax="1536">
      <contour>
        <pt x="702" y="1328" on="1"/>
        <pt x="702" y="1370" on="0"/>
        <pt x="739" y="1445" on="0"/>
        <pt x="802" y="1502" on="0"/>
        <pt x="887" y="1536" on="0"/>
        <pt x="934" y="1536" on="1"/>
        <pt x="980" y="1536" on="0"/>
        <pt x="1062" y="1502" on="0"/>
        <pt x="1125" y="1445" on="0"/>
        <pt x="1162" y="1370" on="0"/>
        <pt x="1162" y="1328" on="1"/>
        <pt x="1162" y="1285" on="0"/>
        <pt x="1125" y="1210" on="0"/>
        <pt x="1062" y="1154" on="0"/>
        <pt x="980" y="1122" on="0"/>
        <pt x="934" y="1122" on="1"/>
        <pt x="887" y="1122" on="0"/>
        <pt x="802" y="1154" on="0"/>
        <pt x="739" y="1210" on="0"/>
        <pt x="702" y="1285" on="0"/>
      </contour>
      <contour>
        <pt x="84" y="1328" on="1"/>
        <pt x="84" y="1370" on="0"/>
        <pt x="121" y="1445" on="0"/>
        <pt x="184" y="1502" on="0"/>
        <pt x="267" y="1536" on="0"/>
        <pt x="314" y="1536" on="1"/>
        <pt x="360" y="1536" on="0"/>
        <pt x="443" y="1502" on="0"/>
        <pt x="506" y="1445" on="0"/>
        <pt x="544" y="1370" on="0"/>
        <pt x="544" y="1328" on="1"/>
        <pt x="544" y="1285" on="0"/>
        <pt x="506" y="1210" on="0"/>
        <pt x="443" y="1154" on="0"/>
        <pt x="360" y="1122" on="0"/>
        <pt x="314" y="1122" on="1"/>
        <pt x="267" y="1122" on="0"/>
        <pt x="184" y="1154" on="0"/>
        <pt x="121" y="1210" on="0"/>
        <pt x="84" y="1285" on="0"/>
      </contour>
    </TTGlyph>
    <TTGlyph name="divide" xMin="-79" yMin="0" xMax="747" yMax="1028">
      <component glyphName="colon" x="0" y="0" flags="0x204"/>
      <component glyphName="minus" x="-269" y="0" flags="0x4"/>
    </TTGlyph>
    <TTGlyph name="dollar" xMin="46" yMin="-186" xMax="1090" yMax="1576">
      <contour>
        <pt x="168" y="334" on="1"/>
        <pt x="249" y="307" on="0"/>
        <pt x="392" y="273" on="0"/>
        <pt x="452" y="270" on="1"/>
        <pt x="452" y="540" on="1"/>
        <pt x="415" y="549" on="0"/>
        <pt x="326" y="576" on="0"/>
        <pt x="236" y="620" on="0"/>
        <pt x="151" y="683" on="0"/>
        <pt x="86" y="774" on="0"/>
        <pt x="46" y="896" on="0"/>
        <pt x="46" y="976" on="1"/>
        <pt x="46" y="1084" on="0"/>
        <pt x="113" y="1237" on="0"/>
        <pt x="225" y="1339" on="0"/>
        <pt x="372" y="1394" on="0"/>
        <pt x="452" y="1404" on="1"/>
        <pt x="452" y="1576" on="1"/>
        <pt x="658" y="1576" on="1"/>
        <pt x="658" y="1410" on="1"/>
        <pt x="758" y="1401" on="0"/>
        <pt x="932" y="1338" on="0"/>
        <pt x="1010" y="1290" on="1"/>
        <pt x="906" y="1056" on="1"/>
        <pt x="794" y="1092" on="1"/>
        <pt x="759" y="1103" on="0"/>
        <pt x="691" y="1119" on="0"/>
        <pt x="658" y="1124" on="1"/>
        <pt x="658" y="836" on="1"/>
        <pt x="772" y="797" on="0"/>
        <pt x="935" y="692" on="0"/>
        <pt x="1040" y="572" on="0"/>
        <pt x="1090" y="445" on="0"/>
        <pt x="1090" y="384" on="1"/>
        <pt x="1090" y="310" on="0"/>
        <pt x="1027" y="169" on="0"/>
        <pt x="913" y="58" on="0"/>
        <pt x="754" y="-14" on="0"/>
        <pt x="658" y="-20" on="1"/>
        <pt x="658" y="-186" on="1"/>
        <pt x="452" y="-186" on="1"/>
        <pt x="452" y="-30" on="1"/>
        <pt x="408" y="-26" on="0"/>
        <pt x="309" y="-9" on="0"/>
        <pt x="208" y="19" on="0"/>
        <pt x="109" y="60" on="0"/>
        <pt x="66" y="88" on="1"/>
      </contour>
      <contour>
        <pt x="452" y="1102" on="1"/>
        <pt x="416" y="1084" on="0"/>
        <pt x="372" y="1036" on="0"/>
        <pt x="372" y="998" on="1"/>
        <pt x="372" y="967" on="0"/>
        <pt x="402" y="914" on="0"/>
        <pt x="452" y="894" on="1"/>
      </contour>
      <contour>
        <pt x="658" y="290" on="1"/>
        <pt x="700" y="306" on="0"/>
        <pt x="750" y="346" on="0"/>
        <pt x="750" y="386" on="1"/>
        <pt x="750" y="410" on="0"/>
        <pt x="703" y="462" on="0"/>
        <pt x="658" y="474" on="1"/>
      </contour>
    </TTGlyph>
    <TTGlyph name="dotaccent" xMin="86" yMin="1164" xMax="546" yMax="1578">
      <contour>
        <pt x="86" y="1372" on="1"/>
        <pt x="86" y="1413" on="0"/>
        <pt x="123" y="1488" on="0"/>
        <pt x="186" y="1545" on="0"/>
        <pt x="269" y="1578" on="0"/>
        <pt x="316" y="1578" on="1"/>
        <pt x="362" y="1578" on="0"/>
        <pt x="445" y="1545" on="0"/>
        <pt x="508" y="1488" on="0"/>
        <pt x="546" y="1413" on="0"/>
        <pt x="546" y="1372" on="1"/>
        <pt x="546" y="1328" on="0"/>
        <pt x="508" y="1253" on="0"/>
        <pt x="445" y="1196" on="0"/>
        <pt x="362" y="1164" on="0"/>
        <pt x="316" y="1164" on="1"/>
        <pt x="269" y="1164" on="0"/>
        <pt x="186" y="1196" on="0"/>
        <pt x="123" y="1253" on="0"/>
        <pt x="86" y="1328" on="0"/>
      </contour>
    </TTGlyph>
    <TTGlyph name="dotlessi" xMin="146" yMin="-32" xMax="778" yMax="1026">
      <contour>
        <pt x="146" y="1026" on="1"/>
        <pt x="580" y="1026" on="1"/>
        <pt x="580" y="408" on="1"/>
        <pt x="580" y="349" on="0"/>
        <pt x="632" y="300" on="0"/>
        <pt x="668" y="300" on="1"/>
        <pt x="711" y="300" on="0"/>
        <pt x="756" y="324" on="1"/>
        <pt x="778" y="38" on="1"/>
        <pt x="715" y="2" on="0"/>
        <pt x="579" y="-32" on="0"/>
        <pt x="510" y="-32" on="1"/>
        <pt x="438" y="-32" on="0"/>
        <pt x="306" y="15" on="0"/>
        <pt x="206" y="114" on="0"/>
        <pt x="146" y="269" on="0"/>
        <pt x="146" y="378" on="1"/>
      </contour>
    </TTGlyph>
    <TTGlyph name="dotlessj" xMin="50" yMin="-442" xMax="854" yMax="1026">
      <contour>
        <pt x="144" y="-80" on="1"/>
        <pt x="182" y="-92" on="0"/>
        <pt x="251" y="-110" on="0"/>
        <pt x="286" y="-110" on="1"/>
        <pt x="315" y="-110" on="0"/>
        <pt x="365" y="-92" on="0"/>
        <pt x="401" y="-52" on="0"/>
        <pt x="422" y="13" on="0"/>
        <pt x="422" y="60" on="1"/>
        <pt x="422" y="1026" on="1"/>
        <pt x="854" y="1026" on="1"/>
        <pt x="854" y="60" on="1"/>
        <pt x="854" y="-74" on="0"/>
        <pt x="778" y="-265" on="0"/>
        <pt x="652" y="-386" on="0"/>
        <pt x="488" y="-442" on="0"/>
        <pt x="400" y="-442" on="1"/>
        <pt x="212" y="-442" on="0"/>
        <pt x="50" y="-334" on="1"/>
      </contour>
    </TTGlyph>
    <TTGlyph name="e" xMin="66" yMin="-32" xMax="1106" yMax="1056">
      <contour>
        <pt x="1064" y="52" on="1"/>
        <pt x="878" y="-32" on="0"/>
        <pt x="646" y="-32" on="1"/>
        <pt x="572" y="-32" on="0"/>
        <pt x="428" y="1" on="0"/>
        <pt x="299" y="65" on="0"/>
        <pt x="190" y="159" on="0"/>
        <pt x="111" y="280" on="0"/>
        <pt x="66" y="427" on="0"/>
        <pt x="66" y="512" on="1"/>
        <pt x="66" y="641" on="0"/>
        <pt x="164" y="844" on="0"/>
        <pt x="324" y="983" on="0"/>
        <pt x="527" y="1056" on="0"/>
        <pt x="632" y="1056" on="1"/>
        <pt x="723" y="1056" on="0"/>
        <pt x="894" y="993" on="0"/>
        <pt x="1026" y="865" on="0"/>
        <pt x="1106" y="670" on="0"/>
        <pt x="1106" y="538" on="1"/>
        <pt x="1106" y="528" on="0"/>
        <pt x="1104" y="498" on="0"/>
        <pt x="1102" y="486" on="1"/>
        <pt x="488" y="406" on="1"/>
        <pt x="502" y="364" on="0"/>
        <pt x="547" y="308" on="0"/>
        <pt x="605" y="275" on="0"/>
        <pt x="674" y="262" on="0"/>
        <pt x="712" y="262" on="1"/>
        <pt x="751" y="262" on="0"/>
        <pt x="835" y="275" on="0"/>
        <pt x="916" y="296" on="0"/>
        <pt x="987" y="322" on="0"/>
        <pt x="1014" y="334" on="1"/>
      </contour>
      <contour>
        <pt x="788" y="664" on="1"/>
        <pt x="779" y="698" on="0"/>
        <pt x="747" y="747" on="0"/>
        <pt x="705" y="778" on="0"/>
        <pt x="657" y="792" on="0"/>
        <pt x="632" y="792" on="1"/>
        <pt x="605" y="792" on="0"/>
        <pt x="549" y="770" on="0"/>
        <pt x="502" y="722" on="0"/>
        <pt x="472" y="647" on="0"/>
        <pt x="470" y="594" on="1"/>
      </contour>
    </TTGlyph>
    <TTGlyph name="eacute" xMin="28" yMin="-32" xMax="1068" yMax="1790">
      <contour>
        <pt x="1028" y="52" on="1"/>
        <pt x="842" y="-32" on="0"/>
        <pt x="608" y="-32" on="1"/>
        <pt x="534" y="-32" on="0"/>
        <pt x="391" y="1" on="0"/>
        <pt x="263" y="65" on="0"/>
        <pt x="153" y="159" on="0"/>
        <pt x="73" y="279" on="0"/>
        <pt x="28" y="427" on="0"/>
        <pt x="28" y="512" on="1"/>
        <pt x="28" y="641" on="0"/>
        <pt x="127" y="843" on="0"/>
        <pt x="288" y="983" on="0"/>
        <pt x="492" y="1056" on="0"/>
        <pt x="596" y="1056" on="1"/>
        <pt x="687" y="1056" on="0"/>
        <pt x="857" y="993" on="0"/>
        <pt x="989" y="865" on="0"/>
        <pt x="1068" y="670" on="0"/>
        <pt x="1068" y="538" on="1"/>
        <pt x="1068" y="527" on="0"/>
        <pt x="1067" y="498" on="0"/>
        <pt x="1064" y="486" on="1"/>
        <pt x="450" y="406" on="1"/>
        <pt x="466" y="359" on="0"/>
        <pt x="516" y="303" on="0"/>
        <pt x="577" y="272" on="0"/>
        <pt x="648" y="262" on="0"/>
        <pt x="686" y="262" on="1"/>
        <pt x="724" y="262" on="0"/>
        <pt x="803" y="277" on="0"/>
        <pt x="879" y="298" on="0"/>
        <pt x="948" y="323" on="0"/>
        <pt x="976" y="334" on="1"/>
      </contour>
      <contour>
        <pt x="752" y="664" on="1"/>
        <pt x="742" y="698" on="0"/>
        <pt x="709" y="747" on="0"/>
        <pt x="667" y="778" on="0"/>
        <pt x="620" y="792" on="0"/>
        <pt x="596" y="792" on="1"/>
        <pt x="568" y="792" on="0"/>
        <pt x="512" y="770" on="0"/>
        <pt x="466" y="723" on="0"/>
        <pt x="435" y="648" on="0"/>
        <pt x="434" y="594" on="1"/>
      </contour>
      <contour>
        <pt x="144" y="1370" on="1"/>
        <pt x="744" y="1790" on="1"/>
        <pt x="954" y="1424" on="1"/>
        <pt x="272" y="1150" on="1"/>
      </contour>
    </TTGlyph>
    <TTGlyph name="ebreve" xMin="66" yMin="-32" xMax="1106" yMax="1500">
      <component glyphName="e" x="0" y="0" flags="0x4"/>
      <component glyphName="breve" x="230" y="0" flags="0x4"/>
    </TTGlyph>
    <TTGlyph name="ecaron" xMin="66" yMin="-32" xMax="1106" yMax="1640">
      <component glyphName="e" x="0" y="0" flags="0x4"/>
      <component glyphName="caron" x="164" y="0" flags="0x4"/>
    </TTGlyph>
    <TTGlyph name="ecircumflex" xMin="66" yMin="-32" xMax="1106" yMax="1640">
      <component glyphName="e" x="0" y="0" flags="0x4"/>
      <component glyphName="circumflex" x="130" y="0" flags="0x4"/>
    </TTGlyph>
    <TTGlyph name="edieresis" xMin="66" yMin="-32" xMax="1162" yMax="1536">
      <component glyphName="e" x="0" y="0" flags="0x4"/>
      <component glyphName="dieresis" x="0" y="0" flags="0x4"/>
    </TTGlyph>
    <TTGlyph name="edotaccent" xMin="66" yMin="-32" xMax="1106" yMax="1578">
      <component glyphName="e" x="0" y="0" flags="0x4"/>
      <component glyphName="dotaccent" x="336" y="0" flags="0x4"/>
    </TTGlyph>
    <TTGlyph name="egrave" xMin="66" yMin="-32" xMax="1106" yMax="1790">
      <component glyphName="e" x="0" y="0" flags="0x4"/>
      <component glyphName="grave" x="210" y="0" flags="0x4"/>
    </TTGlyph>
    <TTGlyph name="eight" xMin="82" yMin="-32" xMax="1262" yMax="1414">
      <contour>
        <pt x="336" y="702" on="1"/>
        <pt x="303" y="729" on="0"/>
        <pt x="247" y="795" on="0"/>
        <pt x="207" y="876" on="0"/>
        <pt x="184" y="973" on="0"/>
        <pt x="184" y="1032" on="1"/>
        <pt x="184" y="1129" on="0"/>
        <pt x="268" y="1273" on="0"/>
        <pt x="405" y="1368" on="0"/>
        <pt x="580" y="1414" on="0"/>
        <pt x="672" y="1414" on="1"/>
        <pt x="763" y="1414" on="0"/>
        <pt x="937" y="1373" on="0"/>
        <pt x="1074" y="1289" on="0"/>
        <pt x="1158" y="1160" on="0"/>
        <pt x="1158" y="1072" on="1"/>
        <pt x="1158" y="1017" on="0"/>
        <pt x="1133" y="933" on="0"/>
        <pt x="1089" y="867" on="0"/>
        <pt x="1028" y="817" on="0"/>
        <pt x="992" y="798" on="1"/>
        <pt x="1047" y="769" on="0"/>
        <pt x="1146" y="695" on="0"/>
        <pt x="1219" y="601" on="0"/>
        <pt x="1262" y="481" on="0"/>
        <pt x="1262" y="406" on="1"/>
        <pt x="1262" y="298" on="0"/>
        <pt x="1175" y="134" on="0"/>
        <pt x="1019" y="24" on="0"/>
        <pt x="803" y="-32" on="0"/>
        <pt x="674" y="-32" on="1"/>
        <pt x="548" y="-32" on="0"/>
        <pt x="331" y="21" on="0"/>
        <pt x="172" y="126" on="0"/>
        <pt x="82" y="282" on="0"/>
        <pt x="82" y="384" on="1"/>
        <pt x="82" y="450" on="0"/>
        <pt x="121" y="550" on="0"/>
        <pt x="190" y="625" on="0"/>
        <pt x="283" y="680" on="0"/>
      </contour>
      <contour>
        <pt x="568" y="568" on="1"/>
        <pt x="538" y="538" on="0"/>
        <pt x="504" y="460" on="0"/>
        <pt x="504" y="406" on="1"/>
        <pt x="504" y="379" on="0"/>
        <pt x="526" y="327" on="0"/>
        <pt x="569" y="286" on="0"/>
        <pt x="633" y="262" on="0"/>
        <pt x="676" y="262" on="1"/>
        <pt x="718" y="262" on="0"/>
        <pt x="782" y="279" on="0"/>
        <pt x="826" y="308" on="0"/>
        <pt x="848" y="344" on="0"/>
        <pt x="848" y="364" on="1"/>
        <pt x="848" y="401" on="0"/>
        <pt x="802" y="458" on="0"/>
        <pt x="725" y="504" on="0"/>
        <pt x="623" y="546" on="0"/>
      </contour>
      <contour>
        <pt x="762" y="878" on="1"/>
        <pt x="791" y="905" on="0"/>
        <pt x="822" y="972" on="0"/>
        <pt x="822" y="1020" on="1"/>
        <pt x="822" y="1044" on="0"/>
        <pt x="809" y="1094" on="0"/>
        <pt x="776" y="1135" on="0"/>
        <pt x="719" y="1162" on="0"/>
        <pt x="674" y="1162" on="1"/>
        <pt x="629" y="1162" on="0"/>
        <pt x="569" y="1144" on="0"/>
        <pt x="534" y="1114" on="0"/>
        <pt x="520" y="1078" on="0"/>
        <pt x="520" y="1060" on="1"/>
        <pt x="520" y="1028" on="0"/>
        <pt x="557" y="976" on="0"/>
        <pt x="623" y="933" on="0"/>
        <pt x="711" y="896" on="0"/>
      </contour>
    </TTGlyph>
    <TTGlyph name="ellipsis" xMin="86" yMin="-32" xMax="1808" yMax="382">
      <contour>
        <pt x="86" y="176" on="1"/>
        <pt x="86" y="217" on="0"/>
        <pt x="123" y="292" on="0"/>
        <pt x="186" y="349" on="0"/>
        <pt x="269" y="382" on="0"/>
        <pt x="316" y="382" on="1"/>
        <pt x="362" y="382" on="0"/>
        <pt x="445" y="349" on="0"/>
        <pt x="508" y="292" on="0"/>
        <pt x="546" y="217" on="0"/>
        <pt x="546" y="176" on="1"/>
        <pt x="546" y="132" on="0"/>
        <pt x="508" y="57" on="0"/>
        <pt x="445" y="0" on="0"/>
        <pt x="362" y="-32" on="0"/>
        <pt x="316" y="-32" on="1"/>
        <pt x="269" y="-32" on="0"/>
        <pt x="186" y="0" on="0"/>
        <pt x="123" y="57" on="0"/>
        <pt x="86" y="132" on="0"/>
      </contour>
      <contour>
        <pt x="716" y="176" on="1"/>
        <pt x="716" y="217" on="0"/>
        <pt x="753" y="292" on="0"/>
        <pt x="816" y="349" on="0"/>
        <pt x="901" y="382" on="0"/>
        <pt x="948" y="382" on="1"/>
        <pt x="994" y="382" on="0"/>
        <pt x="1077" y="349" on="0"/>
        <pt x="1140" y="292" on="0"/>
        <pt x="1178" y="217" on="0"/>
        <pt x="1178" y="176" on="1"/>
        <pt x="1178" y="132" on="0"/>
        <pt x="1140" y="57" on="0"/>
        <pt x="1077" y="0" on="0"/>
        <pt x="994" y="-32" on="0"/>
        <pt x="948" y="-32" on="1"/>
        <pt x="901" y="-32" on="0"/>
        <pt x="816" y="0" on="0"/>
        <pt x="753" y="57" on="0"/>
        <pt x="716" y="132" on="0"/>
      </contour>
      <contour>
        <pt x="1348" y="176" on="1"/>
        <pt x="1348" y="217" on="0"/>
        <pt x="1384" y="292" on="0"/>
        <pt x="1447" y="349" on="0"/>
        <pt x="1531" y="382" on="0"/>
        <pt x="1578" y="382" on="1"/>
        <pt x="1624" y="382" on="0"/>
        <pt x="1708" y="349" on="0"/>
        <pt x="1771" y="292" on="0"/>
        <pt x="1808" y="217" on="0"/>
        <pt x="1808" y="176" on="1"/>
        <pt x="1808" y="132" on="0"/>
        <pt x="1771" y="57" on="0"/>
        <pt x="1708" y="0" on="0"/>
        <pt x="1624" y="-32" on="0"/>
        <pt x="1578" y="-32" on="1"/>
        <pt x="1531" y="-32" on="0"/>
        <pt x="1447" y="0" on="0"/>
        <pt x="1384" y="57" on="0"/>
        <pt x="1348" y="132" on="0"/>
      </contour>
    </TTGlyph>
    <TTGlyph name="emacron" xMin="66" yMin="-32" xMax="1106" yMax="1376">
      <component glyphName="e" x="0" y="0" flags="0x4"/>
      <component glyphName="hyphen" x="310" y="762" flags="0x4"/>
    </TTGlyph>
    <TTGlyph name="eng" xMin="182" yMin="-504" xMax="1390" yMax="1056">
      <contour>
        <pt x="182" y="990" on="1"/>
        <pt x="614" y="1056" on="1"/>
        <pt x="614" y="802" on="1"/>
        <pt x="644" y="868" on="0"/>
        <pt x="725" y="964" on="0"/>
        <pt x="818" y="1026" on="0"/>
        <pt x="920" y="1056" on="0"/>
        <pt x="970" y="1056" on="1"/>
        <pt x="1047" y="1056" on="0"/>
        <pt x="1198" y="983" on="0"/>
        <pt x="1317" y="843" on="0"/>
        <pt x="1390" y="641" on="0"/>
        <pt x="1390" y="512" on="1"/>
        <pt x="1390" y="0" on="1"/>
        <pt x="1390" y="-134" on="0"/>
        <pt x="1315" y="-325" on="0"/>
        <pt x="1190" y="-447" on="0"/>
        <pt x="1026" y="-504" on="0"/>
        <pt x="938" y="-504" on="1"/>
        <pt x="750" y="-504" on="0"/>
        <pt x="588" y="-396" on="1"/>
        <pt x="682" y="-142" on="1"/>
        <pt x="718" y="-154" on="0"/>
        <pt x="787" y="-170" on="0"/>
        <pt x="822" y="-170" on="1"/>
        <pt x="853" y="-170" on="0"/>
        <pt x="904" y="-152" on="0"/>
        <pt x="940" y="-111" on="0"/>
        <pt x="960" y="-47" on="0"/>
        <pt x="960" y="0" on="1"/>
        <pt x="960" y="512" on="1"/>
        <pt x="960" y="553" on="0"/>
        <pt x="937" y="627" on="0"/>
        <pt x="898" y="683" on="0"/>
        <pt x="846" y="716" on="0"/>
        <pt x="816" y="716" on="1"/>
        <pt x="775" y="716" on="0"/>
        <pt x="703" y="684" on="0"/>
        <pt x="648" y="630" on="0"/>
        <pt x="615" y="559" on="0"/>
        <pt x="614" y="520" on="1"/>
        <pt x="614" y="0" on="1"/>
        <pt x="182" y="0" on="1"/>
      </contour>
    </TTGlyph>
    <TTGlyph name="eogonek" xMin="66" yMin="-508" xMax="1166" yMax="1056">
      <component glyphName="e" x="0" y="0" flags="0x4"/>
      <component glyphName="ogonek" x="658" y="0" flags="0x4"/>
    </TTGlyph>
    <TTGlyph name="equal" xMin="184" yMin="318" xMax="808" yMax="720">
      <contour>
        <pt x="184" y="442" on="1"/>
        <pt x="808" y="442" on="1"/>
        <pt x="808" y="318" on="1"/>
        <pt x="184" y="318" on="1"/>
      </contour>
      <contour>
        <pt x="184" y="720" on="1"/>
        <pt x="808" y="720" on="1"/>
        <pt x="808" y="594" on="1"/>
        <pt x="184" y="594" on="1"/>
      </contour>
    </TTGlyph>
    <TTGlyph name="eth" xMin="92" yMin="-32" xMax="1332" yMax="1414">
      <component glyphName="nine" x="0" y="0" flags="0x204"/>
    </TTGlyph>
    <TTGlyph name="exclam" xMin="134" yMin="-32" xMax="596" yMax="1414">
      <contour>
        <pt x="142" y="1096" on="1"/>
        <pt x="142" y="1414" on="1"/>
        <pt x="574" y="1414" on="1"/>
        <pt x="574" y="1096" on="1"/>
        <pt x="494" y="516" on="1"/>
        <pt x="224" y="516" on="1"/>
      </contour>
      <contour>
        <pt x="134" y="176" on="1"/>
        <pt x="134" y="219" on="0"/>
        <pt x="171" y="294" on="0"/>
        <pt x="234" y="350" on="0"/>
        <pt x="319" y="382" on="0"/>
        <pt x="366" y="382" on="1"/>
        <pt x="412" y="382" on="0"/>
        <pt x="495" y="350" on="0"/>
        <pt x="558" y="294" on="0"/>
        <pt x="596" y="219" on="0"/>
        <pt x="596" y="176" on="1"/>
        <pt x="596" y="134" on="0"/>
        <pt x="558" y="58" on="0"/>
        <pt x="495" y="1" on="0"/>
        <pt x="412" y="-32" on="0"/>
        <pt x="366" y="-32" on="1"/>
        <pt x="319" y="-32" on="0"/>
        <pt x="234" y="1" on="0"/>
        <pt x="171" y="58" on="0"/>
        <pt x="134" y="134" on="0"/>
      </contour>
    </TTGlyph>
    <TTGlyph name="exclamdown" xMin="134" yMin="0" xMax="596" yMax="1445">
      <component glyphName="exclam" x="0" y="1414" scalex="1.0" scaley="-0.999877929688" flags="0x4"/>
    </TTGlyph>
    <TTGlyph name="f" xMin="52" yMin="0" xMax="888" yMax="1572">
      <contour>
        <pt x="180" y="772" on="1"/>
        <pt x="52" y="772" on="1"/>
        <pt x="52" y="1026" on="1"/>
        <pt x="180" y="1026" on="1"/>
        <pt x="180" y="1187" on="0"/>
        <pt x="232" y="1398" on="0"/>
        <pt x="328" y="1522" on="0"/>
        <pt x="467" y="1572" on="0"/>
        <pt x="554" y="1572" on="1"/>
        <pt x="638" y="1572" on="0"/>
        <pt x="807" y="1530" on="0"/>
        <pt x="888" y="1494" on="1"/>
        <pt x="874" y="1216" on="1"/>
        <pt x="823" y="1237" on="0"/>
        <pt x="721" y="1264" on="0"/>
        <pt x="676" y="1264" on="1"/>
        <pt x="613" y="1264" on="0"/>
        <pt x="549" y="1201" on="0"/>
        <pt x="549" y="1148" on="1"/>
        <pt x="549" y="1094" on="0"/>
        <pt x="584" y="1026" on="1"/>
        <pt x="870" y="1026" on="1"/>
        <pt x="870" y="772" on="1"/>
        <pt x="612" y="772" on="1"/>
        <pt x="612" y="0" on="1"/>
        <pt x="180" y="0" on="1"/>
      </contour>
    </TTGlyph>
    <TTGlyph name="fi" xMin="56" yMin="-32" xMax="1720" yMax="1572">
      <contour>
        <pt x="184" y="772" on="1"/>
        <pt x="56" y="772" on="1"/>
        <pt x="56" y="1026" on="1"/>
        <pt x="184" y="1026" on="1"/>
        <pt x="184" y="1136" on="1"/>
        <pt x="184" y="1257" on="0"/>
        <pt x="243" y="1424" on="0"/>
        <pt x="345" y="1527" on="0"/>
        <pt x="481" y="1572" on="0"/>
        <pt x="558" y="1572" on="1"/>
        <pt x="642" y="1572" on="0"/>
        <pt x="811" y="1530" on="0"/>
        <pt x="892" y="1494" on="1"/>
        <pt x="878" y="1216" on="1"/>
        <pt x="845" y="1227" on="0"/>
        <pt x="768" y="1246" on="0"/>
        <pt x="732" y="1246" on="1"/>
        <pt x="708" y="1246" on="0"/>
        <pt x="666" y="1234" on="0"/>
        <pt x="635" y="1205" on="0"/>
        <pt x="616" y="1158" on="0"/>
        <pt x="616" y="1122" on="1"/>
        <pt x="616" y="1026" on="1"/>
        <pt x="1522" y="1026" on="1"/>
        <pt x="1522" y="408" on="1"/>
        <pt x="1522" y="349" on="0"/>
        <pt x="1574" y="300" on="0"/>
        <pt x="1610" y="300" on="1"/>
        <pt x="1653" y="300" on="0"/>
        <pt x="1698" y="324" on="1"/>
        <pt x="1720" y="38" on="1"/>
        <pt x="1657" y="2" on="0"/>
        <pt x="1521" y="-32" on="0"/>
        <pt x="1452" y="-32" on="1"/>
        <pt x="1380" y="-32" on="0"/>
        <pt x="1249" y="15" on="0"/>
        <pt x="1149" y="114" on="0"/>
        <pt x="1090" y="269" on="0"/>
        <pt x="1090" y="378" on="1"/>
        <pt x="1090" y="772" on="1"/>
        <pt x="616" y="772" on="1"/>
        <pt x="616" y="0" on="1"/>
        <pt x="184" y="0" on="1"/>
      </contour>
      <contour>
        <pt x="1080" y="1366" on="1"/>
        <pt x="1080" y="1407" on="0"/>
        <pt x="1118" y="1482" on="0"/>
        <pt x="1181" y="1539" on="0"/>
        <pt x="1265" y="1572" on="0"/>
        <pt x="1312" y="1572" on="1"/>
        <pt x="1358" y="1572" on="0"/>
        <pt x="1441" y="1539" on="0"/>
        <pt x="1504" y="1482" on="0"/>
        <pt x="1542" y="1407" on="0"/>
        <pt x="1542" y="1366" on="1"/>
        <pt x="1542" y="1322" on="0"/>
        <pt x="1504" y="1247" on="0"/>
        <pt x="1441" y="1190" on="0"/>
        <pt x="1358" y="1158" on="0"/>
        <pt x="1312" y="1158" on="1"/>
        <pt x="1265" y="1158" on="0"/>
        <pt x="1181" y="1190" on="0"/>
        <pt x="1118" y="1247" on="0"/>
        <pt x="1080" y="1322" on="0"/>
      </contour>
    </TTGlyph>
    <TTGlyph name="five" xMin="146" yMin="-32" xMax="1118" yMax="1376">
      <contour>
        <pt x="182" y="358" on="1"/>
        <pt x="269" y="323" on="0"/>
        <pt x="443" y="292" on="0"/>
        <pt x="524" y="292" on="1"/>
        <pt x="566" y="292" on="0"/>
        <pt x="629" y="319" on="0"/>
        <pt x="671" y="364" on="0"/>
        <pt x="692" y="420" on="0"/>
        <pt x="692" y="450" on="1"/>
        <pt x="692" y="477" on="0"/>
        <pt x="676" y="531" on="0"/>
        <pt x="645" y="574" on="0"/>
        <pt x="600" y="600" on="0"/>
        <pt x="570" y="600" on="1"/>
        <pt x="489" y="600" on="0"/>
        <pt x="366" y="516" on="1"/>
        <pt x="146" y="612" on="1"/>
        <pt x="200" y="1376" on="1"/>
        <pt x="1010" y="1376" on="1"/>
        <pt x="980" y="1072" on="1"/>
        <pt x="486" y="1072" on="1"/>
        <pt x="462" y="872" on="1"/>
        <pt x="528" y="893" on="0"/>
        <pt x="633" y="918" on="0"/>
        <pt x="684" y="918" on="1"/>
        <pt x="763" y="918" on="0"/>
        <pt x="890" y="874" on="0"/>
        <pt x="986" y="799" on="0"/>
        <pt x="1054" y="700" on="0"/>
        <pt x="1098" y="590" on="0"/>
        <pt x="1118" y="475" on="0"/>
        <pt x="1118" y="422" on="1"/>
        <pt x="1118" y="313" on="0"/>
        <pt x="1025" y="144" on="0"/>
        <pt x="869" y="28" on="0"/>
        <pt x="664" y="-32" on="0"/>
        <pt x="552" y="-32" on="1"/>
        <pt x="501" y="-32" on="0"/>
        <pt x="396" y="-17" on="0"/>
        <pt x="295" y="7" on="0"/>
        <pt x="198" y="40" on="0"/>
        <pt x="154" y="58" on="1"/>
      </contour>
    </TTGlyph>
    <TTGlyph name="fl" xMin="56" yMin="-32" xMax="1702" yMax="1534">
      <contour>
        <pt x="184" y="772" on="1"/>
        <pt x="56" y="772" on="1"/>
        <pt x="56" y="1026" on="1"/>
        <pt x="184" y="1026" on="1"/>
        <pt x="184" y="1136" on="1"/>
        <pt x="184" y="1246" on="0"/>
        <pt x="278" y="1398" on="0"/>
        <pt x="461" y="1492" on="0"/>
        <pt x="730" y="1534" on="0"/>
        <pt x="906" y="1534" on="1"/>
        <pt x="945" y="1534" on="0"/>
        <pt x="1039" y="1524" on="0"/>
        <pt x="1174" y="1502" on="0"/>
        <pt x="1361" y="1464" on="0"/>
        <pt x="1492" y="1436" on="1"/>
        <pt x="1492" y="408" on="1"/>
        <pt x="1492" y="349" on="0"/>
        <pt x="1548" y="300" on="0"/>
        <pt x="1590" y="300" on="1"/>
        <pt x="1633" y="300" on="0"/>
        <pt x="1678" y="324" on="1"/>
        <pt x="1702" y="38" on="1"/>
        <pt x="1633" y="2" on="0"/>
        <pt x="1497" y="-32" on="0"/>
        <pt x="1422" y="-32" on="1"/>
        <pt x="1351" y="-32" on="0"/>
        <pt x="1220" y="15" on="0"/>
        <pt x="1120" y="114" on="0"/>
        <pt x="1060" y="269" on="0"/>
        <pt x="1060" y="378" on="1"/>
        <pt x="1060" y="1228" on="1"/>
        <pt x="1045" y="1230" on="0"/>
        <pt x="994" y="1236" on="0"/>
        <pt x="933" y="1242" on="0"/>
        <pt x="864" y="1246" on="0"/>
        <pt x="830" y="1246" on="1"/>
        <pt x="789" y="1246" on="0"/>
        <pt x="712" y="1235" on="0"/>
        <pt x="652" y="1208" on="0"/>
        <pt x="616" y="1159" on="0"/>
        <pt x="616" y="1122" on="1"/>
        <pt x="616" y="1026" on="1"/>
        <pt x="874" y="1026" on="1"/>
        <pt x="874" y="772" on="1"/>
        <pt x="616" y="772" on="1"/>
        <pt x="616" y="0" on="1"/>
        <pt x="184" y="0" on="1"/>
      </contour>
    </TTGlyph>
    <TTGlyph name="florin" xMin="104" yMin="0" xMax="940" yMax="1572">
      <contour>
        <pt x="230" y="772" on="1"/>
        <pt x="104" y="772" on="1"/>
        <pt x="104" y="1026" on="1"/>
        <pt x="230" y="1026" on="1"/>
        <pt x="230" y="1136" on="1"/>
        <pt x="230" y="1257" on="0"/>
        <pt x="290" y="1424" on="0"/>
        <pt x="392" y="1527" on="0"/>
        <pt x="529" y="1572" on="0"/>
        <pt x="606" y="1572" on="1"/>
        <pt x="687" y="1572" on="0"/>
        <pt x="856" y="1530" on="0"/>
        <pt x="940" y="1494" on="1"/>
        <pt x="926" y="1216" on="1"/>
        <pt x="893" y="1227" on="0"/>
        <pt x="815" y="1246" on="0"/>
        <pt x="780" y="1246" on="1"/>
        <pt x="755" y="1246" on="0"/>
        <pt x="713" y="1234" on="0"/>
        <pt x="682" y="1205" on="0"/>
        <pt x="664" y="1158" on="0"/>
        <pt x="664" y="1122" on="1"/>
        <pt x="664" y="1026" on="1"/>
        <pt x="922" y="1026" on="1"/>
        <pt x="922" y="772" on="1"/>
        <pt x="664" y="772" on="1"/>
        <pt x="664" y="0" on="1"/>
        <pt x="230" y="0" on="1"/>
      </contour>
    </TTGlyph>
    <TTGlyph name="four" xMin="8" yMin="0" xMax="1240" yMax="1376">
      <contour>
        <pt x="8" y="622" on="1"/>
        <pt x="578" y="1376" on="1"/>
        <pt x="1064" y="1376" on="1"/>
        <pt x="1064" y="622" on="1"/>
        <pt x="1240" y="622" on="1"/>
        <pt x="1240" y="326" on="1"/>
        <pt x="1064" y="326" on="1"/>
        <pt x="1064" y="0" on="1"/>
        <pt x="598" y="0" on="1"/>
        <pt x="598" y="328" on="1"/>
        <pt x="8" y="328" on="1"/>
      </contour>
      <contour>
        <pt x="598" y="622" on="1"/>
        <pt x="598" y="1006" on="1"/>
        <pt x="326" y="622" on="1"/>
      </contour>
    </TTGlyph>
    <TTGlyph name="foursuperior" xMin="32" yMin="650" xMax="684" yMax="1376">
      <contour>
        <pt x="32" y="978" on="1"/>
        <pt x="334" y="1376" on="1"/>
        <pt x="590" y="1376" on="1"/>
        <pt x="590" y="978" on="1"/>
        <pt x="684" y="978" on="1"/>
        <pt x="684" y="822" on="1"/>
        <pt x="590" y="822" on="1"/>
        <pt x="590" y="650" on="1"/>
        <pt x="344" y="650" on="1"/>
        <pt x="344" y="822" on="1"/>
        <pt x="32" y="822" on="1"/>
      </contour>
      <contour>
        <pt x="344" y="978" on="1"/>
        <pt x="344" y="1180" on="1"/>
        <pt x="200" y="978" on="1"/>
      </contour>
    </TTGlyph>
    <TTGlyph name="fraction" xMin="0" yMin="0" xMax="476" yMax="1376">
      <contour>
        <pt x="336" y="1376" on="1"/>
        <pt x="476" y="1376" on="1"/>
        <pt x="136" y="0" on="1"/>
        <pt x="0" y="0" on="1"/>
      </contour>
    </TTGlyph>
    <TTGlyph name="g" xMin="54" yMin="-470" xMax="1324" yMax="1056">
      <contour>
        <pt x="504" y="-144" on="1"/>
        <pt x="546" y="-149" on="0"/>
        <pt x="612" y="-156" on="0"/>
        <pt x="644" y="-156" on="1"/>
        <pt x="718" y="-156" on="0"/>
        <pt x="815" y="-110" on="0"/>
        <pt x="877" y="-25" on="0"/>
        <pt x="911" y="96" on="0"/>
        <pt x="922" y="170" on="1"/>
        <pt x="889" y="123" on="0"/>
        <pt x="806" y="58" on="0"/>
        <pt x="711" y="18" on="0"/>
        <pt x="607" y="0" on="0"/>
        <pt x="554" y="0" on="1"/>
        <pt x="462" y="0" on="0"/>
        <pt x="283" y="72" on="0"/>
        <pt x="141" y="206" on="0"/>
        <pt x="54" y="398" on="0"/>
        <pt x="54" y="519" on="1"/>
        <pt x="54" y="641" on="0"/>
        <pt x="142" y="839" on="0"/>
        <pt x="284" y="980" on="0"/>
        <pt x="461" y="1056" on="0"/>
        <pt x="550" y="1056" on="1"/>
        <pt x="599" y="1056" on="0"/>
        <pt x="705" y="1025" on="0"/>
        <pt x="800" y="962" on="0"/>
        <pt x="874" y="866" on="0"/>
        <pt x="892" y="802" on="1"/>
        <pt x="892" y="1056" on="1"/>
        <pt x="1324" y="1024" on="1"/>
        <pt x="1324" y="260" on="1"/>
        <pt x="1324" y="63" on="0"/>
        <pt x="1228" y="-215" on="0"/>
        <pt x="1057" y="-390" on="0"/>
        <pt x="824" y="-470" on="0"/>
        <pt x="688" y="-470" on="1"/>
        <pt x="634" y="-470" on="0"/>
        <pt x="526" y="-459" on="0"/>
        <pt x="472" y="-450" on="1"/>
      </contour>
      <contour>
        <pt x="892" y="520" on="1"/>
        <pt x="890" y="559" on="0"/>
        <pt x="855" y="630" on="0"/>
        <pt x="799" y="684" on="0"/>
        <pt x="727" y="716" on="0"/>
        <pt x="688" y="716" on="1"/>
        <pt x="646" y="716" on="0"/>
        <pt x="572" y="684" on="0"/>
        <pt x="516" y="628" on="0"/>
        <pt x="484" y="554" on="0"/>
        <pt x="484" y="512" on="1"/>
        <pt x="484" y="471" on="0"/>
        <pt x="516" y="397" on="0"/>
        <pt x="572" y="341" on="0"/>
        <pt x="646" y="308" on="0"/>
        <pt x="688" y="308" on="1"/>
        <pt x="727" y="308" on="0"/>
        <pt x="799" y="339" on="0"/>
        <pt x="855" y="392" on="0"/>
        <pt x="890" y="463" on="0"/>
        <pt x="892" y="504" on="1"/>
      </contour>
    </TTGlyph>
    <TTGlyph name="g.alt" xMin="60" yMin="-578" xMax="1356" yMax="1074">
      <contour>
        <pt x="662" y="-138" on="1"/>
        <pt x="662" y="-152" on="0"/>
        <pt x="682" y="-177" on="0"/>
        <pt x="715" y="-196" on="0"/>
        <pt x="758" y="-208" on="0"/>
        <pt x="782" y="-208" on="1"/>
        <pt x="804" y="-208" on="0"/>
        <pt x="850" y="-193" on="0"/>
        <pt x="889" y="-157" on="0"/>
        <pt x="914" y="-98" on="0"/>
        <pt x="914" y="-54" on="1"/>
        <pt x="914" y="174" on="1"/>
        <pt x="854" y="68" on="0"/>
        <pt x="672" y="-30" on="0"/>
        <pt x="570" y="-30" on="1"/>
        <pt x="509" y="-30" on="0"/>
        <pt x="386" y="5" on="0"/>
        <pt x="273" y="72" on="0"/>
        <pt x="174" y="168" on="0"/>
        <pt x="102" y="291" on="0"/>
        <pt x="60" y="438" on="0"/>
        <pt x="60" y="522" on="1"/>
        <pt x="60" y="647" on="0"/>
        <pt x="151" y="851" on="0"/>
        <pt x="297" y="995" on="0"/>
        <pt x="480" y="1074" on="0"/>
        <pt x="572" y="1074" on="1"/>
        <pt x="674" y="1074" on="0"/>
        <pt x="854" y="976" on="0"/>
        <pt x="914" y="870" on="1"/>
        <pt x="914" y="1046" on="1"/>
        <pt x="1356" y="1046" on="1"/>
        <pt x="1356" y="-54" on="1"/>
        <pt x="1356" y="-142" on="0"/>
        <pt x="1312" y="-288" on="0"/>
        <pt x="1234" y="-405" on="0"/>
        <pt x="1127" y="-491" on="0"/>
        <pt x="1003" y="-549" on="0"/>
        <pt x="867" y="-578" on="0"/>
        <pt x="798" y="-578" on="1"/>
        <pt x="713" y="-578" on="0"/>
        <pt x="546" y="-533" on="0"/>
        <pt x="406" y="-446" on="0"/>
        <pt x="304" y="-319" on="0"/>
        <pt x="284" y="-236" on="1"/>
      </contour>
      <contour>
        <pt x="500" y="522" on="1"/>
        <pt x="500" y="481" on="0"/>
        <pt x="533" y="405" on="0"/>
        <pt x="590" y="348" on="0"/>
        <pt x="665" y="314" on="0"/>
        <pt x="708" y="314" on="1"/>
        <pt x="750" y="314" on="0"/>
        <pt x="825" y="348" on="0"/>
        <pt x="881" y="405" on="0"/>
        <pt x="914" y="481" on="0"/>
        <pt x="914" y="522" on="1"/>
        <pt x="914" y="565" on="0"/>
        <pt x="881" y="640" on="0"/>
        <pt x="825" y="697" on="0"/>
        <pt x="750" y="730" on="0"/>
        <pt x="708" y="730" on="1"/>
        <pt x="665" y="730" on="0"/>
        <pt x="590" y="697" on="0"/>
        <pt x="533" y="640" on="0"/>
        <pt x="500" y="565" on="0"/>
      </contour>
    </TTGlyph>
    <TTGlyph name="gbreve" xMin="54" yMin="-470" xMax="1324" yMax="1500">
      <component glyphName="g" x="0" y="0" flags="0x4"/>
      <component glyphName="breve" x="342" y="0" flags="0x4"/>
    </TTGlyph>
    <TTGlyph name="gcircumflex" xMin="54" yMin="-470" xMax="1324" yMax="1640">
      <component glyphName="g" x="0" y="0" flags="0x4"/>
      <component glyphName="circumflex" x="272" y="0" flags="0x4"/>
    </TTGlyph>
    <TTGlyph name="gcommaaccent" xMin="54" yMin="-470" xMax="1324" yMax="1816">
      <component glyphName="g" x="0" y="0" flags="0x4"/>
      <component glyphName="comma" x="444" y="1434" flags="0x4"/>
    </TTGlyph>
    <TTGlyph name="gdotaccent" xMin="54" yMin="-470" xMax="1324" yMax="1578">
      <component glyphName="g" x="0" y="0" flags="0x4"/>
      <component glyphName="dotaccent" x="446" y="0" flags="0x4"/>
    </TTGlyph>
    <TTGlyph name="germandbls" xMin="162" yMin="-92" xMax="1466" yMax="1376">
      <contour>
        <pt x="162" y="1040" on="1"/>
        <pt x="162" y="1104" on="0"/>
        <pt x="241" y="1225" on="0"/>
        <pt x="392" y="1319" on="0"/>
        <pt x="612" y="1376" on="0"/>
        <pt x="754" y="1376" on="1"/>
        <pt x="883" y="1376" on="0"/>
        <pt x="1076" y="1315" on="0"/>
        <pt x="1205" y="1216" on="0"/>
        <pt x="1270" y="1092" on="0"/>
        <pt x="1270" y="1030" on="1"/>
        <pt x="1270" y="942" on="0"/>
        <pt x="1191" y="795" on="0"/>
        <pt x="1116" y="750" on="1"/>
        <pt x="1197" y="727" on="0"/>
        <pt x="1327" y="643" on="0"/>
        <pt x="1417" y="536" on="0"/>
        <pt x="1466" y="413" on="0"/>
        <pt x="1466" y="350" on="1"/>
        <pt x="1466" y="267" on="0"/>
        <pt x="1397" y="108" on="0"/>
        <pt x="1249" y="-16" on="0"/>
        <pt x="1018" y="-92" on="0"/>
        <pt x="856" y="-92" on="1"/>
        <pt x="820" y="-92" on="0"/>
        <pt x="756" y="-90" on="0"/>
        <pt x="720" y="-90" on="1"/>
        <pt x="720" y="240" on="1"/>
        <pt x="758" y="237" on="0"/>
        <pt x="802" y="236" on="0"/>
        <pt x="820" y="236" on="1"/>
        <pt x="872" y="236" on="0"/>
        <pt x="950" y="267" on="0"/>
        <pt x="1001" y="318" on="0"/>
        <pt x="1026" y="383" on="0"/>
        <pt x="1026" y="418" on="1"/>
        <pt x="1026" y="453" on="0"/>
        <pt x="995" y="526" on="0"/>
        <pt x="930" y="590" on="0"/>
        <pt x="830" y="640" on="0"/>
        <pt x="760" y="654" on="1"/>
        <pt x="760" y="844" on="1"/>
        <pt x="800" y="851" on="0"/>
        <pt x="864" y="880" on="0"/>
        <pt x="907" y="919" on="0"/>
        <pt x="930" y="963" on="0"/>
        <pt x="930" y="986" on="1"/>
        <pt x="930" y="1008" on="0"/>
        <pt x="908" y="1051" on="0"/>
        <pt x="863" y="1084" on="0"/>
        <pt x="796" y="1104" on="0"/>
        <pt x="750" y="1104" on="1"/>
        <pt x="709" y="1104" on="0"/>
        <pt x="653" y="1078" on="0"/>
        <pt x="618" y="1037" on="0"/>
        <pt x="602" y="988" on="0"/>
        <pt x="602" y="966" on="1"/>
        <pt x="602" y="0" on="1"/>
        <pt x="162" y="-32" on="1"/>
      </contour>
    </TTGlyph>
    <TTGlyph name="grave" xMin="30" yMin="1150" xMax="838" yMax="1790">
      <contour>
        <pt x="238" y="1790" on="1"/>
        <pt x="838" y="1370" on="1"/>
        <pt x="712" y="1150" on="1"/>
        <pt x="30" y="1424" on="1"/>
      </contour>
    </TTGlyph>
    <TTGlyph name="greater" xMin="184" yMin="0" xMax="964" yMax="1232">
      <contour>
        <pt x="184" y="332" on="1"/>
        <pt x="792" y="620" on="1"/>
        <pt x="184" y="924" on="1"/>
        <pt x="184" y="1232" on="1"/>
        <pt x="964" y="804" on="1"/>
        <pt x="964" y="456" on="1"/>
        <pt x="184" y="0" on="1"/>
      </contour>
    </TTGlyph>
    <TTGlyph name="greaterequal" xMin="-194" yMin="0" xMax="632" yMax="1582">
      <contour>
        <pt x="-170" y="682" on="1"/>
        <pt x="438" y="970" on="1"/>
        <pt x="-170" y="1274" on="1"/>
        <pt x="-170" y="1582" on="1"/>
        <pt x="610" y="1154" on="1"/>
        <pt x="610" y="806" on="1"/>
        <pt x="-170" y="350" on="1"/>
      </contour>
      <contour>
        <pt x="-194" y="114" on="1"/>
        <pt x="632" y="114" on="1"/>
        <pt x="632" y="0" on="1"/>
        <pt x="-194" y="0" on="1"/>
      </contour>
    </TTGlyph>
    <TTGlyph name="guillemotleft" xMin="58" yMin="128" xMax="1020" yMax="1116">
      <contour>
        <pt x="590" y="810" on="1"/>
        <pt x="1020" y="1116" on="1"/>
        <pt x="1020" y="744" on="1"/>
        <pt x="822" y="626" on="1"/>
        <pt x="1020" y="502" on="1"/>
        <pt x="1020" y="128" on="1"/>
        <pt x="590" y="442" on="1"/>
      </contour>
      <contour>
        <pt x="58" y="810" on="1"/>
        <pt x="488" y="1116" on="1"/>
        <pt x="488" y="744" on="1"/>
        <pt x="292" y="626" on="1"/>
        <pt x="488" y="502" on="1"/>
        <pt x="488" y="128" on="1"/>
        <pt x="58" y="442" on="1"/>
      </contour>
    </TTGlyph>
    <TTGlyph name="guillemotright" xMin="184" yMin="128" xMax="1144" yMax="1116">
      <contour>
        <pt x="714" y="502" on="1"/>
        <pt x="910" y="626" on="1"/>
        <pt x="714" y="744" on="1"/>
        <pt x="714" y="1116" on="1"/>
        <pt x="1144" y="810" on="1"/>
        <pt x="1144" y="442" on="1"/>
        <pt x="714" y="128" on="1"/>
      </contour>
      <contour>
        <pt x="184" y="502" on="1"/>
        <pt x="380" y="626" on="1"/>
        <pt x="184" y="744" on="1"/>
        <pt x="184" y="1116" on="1"/>
        <pt x="614" y="810" on="1"/>
        <pt x="614" y="442" on="1"/>
        <pt x="184" y="128" on="1"/>
      </contour>
    </TTGlyph>
    <TTGlyph name="guilsinglleft" xMin="0" yMin="128" xMax="430" yMax="1116">
      <contour>
        <pt x="0" y="810" on="1"/>
        <pt x="430" y="1116" on="1"/>
        <pt x="430" y="744" on="1"/>
        <pt x="232" y="626" on="1"/>
        <pt x="430" y="502" on="1"/>
        <pt x="430" y="128" on="1"/>
        <pt x="0" y="442" on="1"/>
      </contour>
    </TTGlyph>
    <TTGlyph name="guilsinglright" xMin="184" yMin="128" xMax="614" yMax="1116">
      <contour>
        <pt x="184" y="502" on="1"/>
        <pt x="380" y="626" on="1"/>
        <pt x="184" y="744" on="1"/>
        <pt x="184" y="1116" on="1"/>
        <pt x="614" y="810" on="1"/>
        <pt x="614" y="442" on="1"/>
        <pt x="184" y="128" on="1"/>
      </contour>
    </TTGlyph>
    <TTGlyph name="h" xMin="184" yMin="0" xMax="1394" yMax="1414">
      <contour>
        <pt x="184" y="1350" on="1"/>
        <pt x="616" y="1414" on="1"/>
        <pt x="616" y="798" on="1"/>
        <pt x="644" y="865" on="0"/>
        <pt x="719" y="963" on="0"/>
        <pt x="807" y="1026" on="0"/>
        <pt x="904" y="1056" on="0"/>
        <pt x="954" y="1056" on="1"/>
        <pt x="1036" y="1056" on="0"/>
        <pt x="1194" y="986" on="0"/>
        <pt x="1318" y="850" on="0"/>
        <pt x="1394" y="650" on="0"/>
        <pt x="1394" y="520" on="1"/>
        <pt x="1394" y="0" on="1"/>
        <pt x="964" y="0" on="1"/>
        <pt x="964" y="512" on="1"/>
        <pt x="964" y="553" on="0"/>
        <pt x="941" y="627" on="0"/>
        <pt x="902" y="683" on="0"/>
        <pt x="850" y="716" on="0"/>
        <pt x="820" y="716" on="1"/>
        <pt x="776" y="716" on="0"/>
        <pt x="702" y="680" on="0"/>
        <pt x="647" y="620" on="0"/>
        <pt x="616" y="541" on="0"/>
        <pt x="616" y="498" on="1"/>
        <pt x="616" y="0" on="1"/>
        <pt x="184" y="0" on="1"/>
      </contour>
    </TTGlyph>
    <TTGlyph name="hbar" xMin="66" yMin="0" xMax="1398" yMax="1414">
      <contour>
        <pt x="66" y="1280" on="1"/>
        <pt x="188" y="1280" on="1"/>
        <pt x="188" y="1350" on="1"/>
        <pt x="620" y="1414" on="1"/>
        <pt x="620" y="1280" on="1"/>
        <pt x="834" y="1280" on="1"/>
        <pt x="834" y="1106" on="1"/>
        <pt x="620" y="1106" on="1"/>
        <pt x="620" y="798" on="1"/>
        <pt x="648" y="865" on="0"/>
        <pt x="723" y="963" on="0"/>
        <pt x="811" y="1026" on="0"/>
        <pt x="908" y="1056" on="0"/>
        <pt x="958" y="1056" on="1"/>
        <pt x="1040" y="1056" on="0"/>
        <pt x="1198" y="986" on="0"/>
        <pt x="1322" y="850" on="0"/>
        <pt x="1398" y="650" on="0"/>
        <pt x="1398" y="520" on="1"/>
        <pt x="1398" y="0" on="1"/>
        <pt x="968" y="0" on="1"/>
        <pt x="968" y="512" on="1"/>
        <pt x="968" y="553" on="0"/>
        <pt x="945" y="627" on="0"/>
        <pt x="906" y="683" on="0"/>
        <pt x="854" y="716" on="0"/>
        <pt x="824" y="716" on="1"/>
        <pt x="780" y="716" on="0"/>
        <pt x="706" y="680" on="0"/>
        <pt x="651" y="620" on="0"/>
        <pt x="620" y="541" on="0"/>
        <pt x="620" y="498" on="1"/>
        <pt x="620" y="0" on="1"/>
        <pt x="188" y="0" on="1"/>
        <pt x="188" y="1106" on="1"/>
        <pt x="66" y="1106" on="1"/>
      </contour>
    </TTGlyph>
    <TTGlyph name="hcircumflex" xMin="184" yMin="0" xMax="1394" yMax="1640">
      <component glyphName="h" x="0" y="0" flags="0x4"/>
      <component glyphName="circumflex" x="258" y="0" flags="0x4"/>
    </TTGlyph>
    <TTGlyph name="hungarumlaut" xMin="114" yMin="1216" xMax="1234" yMax="2010">
      <contour>
        <pt x="258" y="2006" on="1"/>
        <pt x="658" y="1888" on="1"/>
        <pt x="358" y="1218" on="1"/>
        <pt x="114" y="1288" on="1"/>
      </contour>
      <contour>
        <pt x="860" y="2010" on="1"/>
        <pt x="1234" y="1822" on="1"/>
        <pt x="818" y="1216" on="1"/>
        <pt x="592" y="1328" on="1"/>
      </contour>
    </TTGlyph>
    <TTGlyph name="hyphen" xMin="98" yMin="440" xMax="584" yMax="614">
      <contour>
        <pt x="98" y="614" on="1"/>
        <pt x="584" y="614" on="1"/>
        <pt x="584" y="440" on="1"/>
        <pt x="98" y="440" on="1"/>
      </contour>
    </TTGlyph>
    <TTGlyph name="i" xMin="84" yMin="-32" xMax="764" yMax="1572">
      <contour>
        <pt x="92" y="1026" on="1"/>
        <pt x="524" y="1026" on="1"/>
        <pt x="524" y="408" on="1"/>
        <pt x="524" y="378" on="0"/>
        <pt x="545" y="337" on="0"/>
        <pt x="581" y="311" on="0"/>
        <pt x="628" y="300" on="0"/>
        <pt x="654" y="300" on="1"/>
        <pt x="700" y="300" on="0"/>
        <pt x="748" y="324" on="1"/>
        <pt x="764" y="38" on="1"/>
        <pt x="692" y="2" on="0"/>
        <pt x="534" y="-32" on="0"/>
        <pt x="456" y="-32" on="1"/>
        <pt x="382" y="-32" on="0"/>
        <pt x="250" y="15" on="0"/>
        <pt x="151" y="114" on="0"/>
        <pt x="92" y="269" on="0"/>
        <pt x="92" y="378" on="1"/>
      </contour>
      <contour>
        <pt x="84" y="1366" on="1"/>
        <pt x="84" y="1408" on="0"/>
        <pt x="121" y="1483" on="0"/>
        <pt x="184" y="1539" on="0"/>
        <pt x="269" y="1572" on="0"/>
        <pt x="316" y="1572" on="1"/>
        <pt x="362" y="1572" on="0"/>
        <pt x="445" y="1539" on="0"/>
        <pt x="508" y="1483" on="0"/>
        <pt x="546" y="1408" on="0"/>
        <pt x="546" y="1366" on="1"/>
        <pt x="546" y="1322" on="0"/>
        <pt x="508" y="1247" on="0"/>
        <pt x="445" y="1190" on="0"/>
        <pt x="362" y="1158" on="0"/>
        <pt x="316" y="1158" on="1"/>
        <pt x="269" y="1158" on="0"/>
        <pt x="184" y="1190" on="0"/>
        <pt x="121" y="1247" on="0"/>
        <pt x="84" y="1322" on="0"/>
      </contour>
    </TTGlyph>
    <TTGlyph name="iacute" xMin="4" yMin="-32" xMax="812" yMax="1790">
      <component glyphName="dotlessi" x="0" y="0" flags="0x204"/>
      <component glyphName="acute" x="0" y="0" flags="0x4"/>
    </TTGlyph>
    <TTGlyph name="ibreve" xMin="61" yMin="-32" xMax="778" yMax="1500">
      <component glyphName="dotlessi" x="0" y="0" flags="0x204"/>
      <component glyphName="breve" x="-9" y="0" flags="0x4"/>
    </TTGlyph>
    <TTGlyph name="icircumflex" xMin="-31" yMin="-32" xMax="851" yMax="1640">
      <component glyphName="dotlessi" x="0" y="0" flags="0x204"/>
      <component glyphName="circumflex" x="-79" y="0" flags="0x4"/>
    </TTGlyph>
    <TTGlyph name="idieresis" xMin="-129" yMin="-32" xMax="949" yMax="1536">
      <component glyphName="dotlessi" x="0" y="0" flags="0x204"/>
      <component glyphName="dieresis" x="-213" y="0" flags="0x4"/>
    </TTGlyph>
    <TTGlyph name="igrave" xMin="30" yMin="-32" xMax="838" yMax="1790">
      <component glyphName="dotlessi" x="0" y="0" flags="0x204"/>
      <component glyphName="grave" x="0" y="0" flags="0x4"/>
    </TTGlyph>
    <TTGlyph name="ij" xMin="84" yMin="-442" xMax="1508" yMax="1572">
      <component glyphName="i" x="0" y="0" flags="0x4"/>
      <component glyphName="j" x="674" y="0" flags="0x4"/>
    </TTGlyph>
    <TTGlyph name="imacron" xMin="146" yMin="-32" xMax="778" yMax="1376">
      <component glyphName="dotlessi" x="0" y="0" flags="0x204"/>
      <component glyphName="hyphen" x="66" y="762" flags="0x4"/>
    </TTGlyph>
    <TTGlyph name="iogonek" xMin="84" yMin="-508" xMax="764" yMax="1572">
      <component glyphName="i" x="0" y="0" flags="0x4"/>
      <component glyphName="ogonek" x="144" y="0" flags="0x4"/>
    </TTGlyph>
    <TTGlyph name="itilde" xMin="-87" yMin="-32" xMax="905" yMax="1612">
      <component glyphName="dotlessi" x="0" y="0" flags="0x204"/>
      <component glyphName="tilde" x="-149" y="0" flags="0x4"/>
    </TTGlyph>
    <TTGlyph name="j" xMin="22" yMin="-442" xMax="834" yMax="1572">
      <contour>
        <pt x="116" y="-80" on="1"/>
        <pt x="154" y="-92" on="0"/>
        <pt x="223" y="-110" on="0"/>
        <pt x="258" y="-110" on="1"/>
        <pt x="287" y="-110" on="0"/>
        <pt x="337" y="-92" on="0"/>
        <pt x="373" y="-52" on="0"/>
        <pt x="394" y="13" on="0"/>
        <pt x="394" y="60" on="1"/>
        <pt x="394" y="1026" on="1"/>
        <pt x="826" y="1026" on="1"/>
        <pt x="826" y="60" on="1"/>
        <pt x="826" y="-74" on="0"/>
        <pt x="750" y="-265" on="0"/>
        <pt x="624" y="-386" on="0"/>
        <pt x="460" y="-442" on="0"/>
        <pt x="372" y="-442" on="1"/>
        <pt x="184" y="-442" on="0"/>
        <pt x="22" y="-334" on="1"/>
      </contour>
      <contour>
        <pt x="372" y="1366" on="1"/>
        <pt x="372" y="1407" on="0"/>
        <pt x="410" y="1482" on="0"/>
        <pt x="473" y="1539" on="0"/>
        <pt x="556" y="1572" on="0"/>
        <pt x="602" y="1572" on="1"/>
        <pt x="649" y="1572" on="0"/>
        <pt x="734" y="1539" on="0"/>
        <pt x="797" y="1482" on="0"/>
        <pt x="834" y="1407" on="0"/>
        <pt x="834" y="1366" on="1"/>
        <pt x="834" y="1322" on="0"/>
        <pt x="797" y="1247" on="0"/>
        <pt x="734" y="1190" on="0"/>
        <pt x="649" y="1158" on="0"/>
        <pt x="602" y="1158" on="1"/>
        <pt x="556" y="1158" on="0"/>
        <pt x="473" y="1190" on="0"/>
        <pt x="410" y="1247" on="0"/>
        <pt x="372" y="1322" on="0"/>
      </contour>
    </TTGlyph>
    <TTGlyph name="jcircumflex" xMin="50" yMin="-442" xMax="1028" yMax="1640">
      <component glyphName="dotlessj" x="0" y="0" flags="0x204"/>
      <component glyphName="circumflex" x="98" y="0" flags="0x4"/>
    </TTGlyph>
    <TTGlyph name="k" xMin="182" yMin="-30" xMax="1378" yMax="1414">
      <contour>
        <pt x="182" y="1350" on="1"/>
        <pt x="616" y="1414" on="1"/>
        <pt x="616" y="712" on="1"/>
        <pt x="1142" y="1142" on="1"/>
        <pt x="1378" y="822" on="1"/>
        <pt x="1048" y="592" on="1"/>
        <pt x="1060" y="526" on="0"/>
        <pt x="1087" y="423" on="0"/>
        <pt x="1131" y="351" on="0"/>
        <pt x="1200" y="314" on="0"/>
        <pt x="1254" y="314" on="1"/>
        <pt x="1275" y="314" on="0"/>
        <pt x="1318" y="321" on="0"/>
        <pt x="1342" y="326" on="1"/>
        <pt x="1302" y="-24" on="1"/>
        <pt x="1239" y="-30" on="0"/>
        <pt x="1188" y="-30" on="1"/>
        <pt x="1073" y="-30" on="0"/>
        <pt x="922" y="26" on="0"/>
        <pt x="822" y="131" on="0"/>
        <pt x="761" y="283" on="0"/>
        <pt x="736" y="378" on="1"/>
        <pt x="616" y="282" on="1"/>
        <pt x="616" y="0" on="1"/>
        <pt x="182" y="0" on="1"/>
      </contour>
    </TTGlyph>
    <TTGlyph name="k.alt" xMin="164" yMin="-90" xMax="1508" yMax="1400">
      <contour>
        <pt x="164" y="1254" on="1"/>
        <pt x="604" y="1400" on="1"/>
        <pt x="604" y="678" on="1"/>
        <pt x="1142" y="1164" on="1"/>
        <pt x="1508" y="944" on="1"/>
        <pt x="1064" y="568" on="1"/>
        <pt x="1134" y="479" on="0"/>
        <pt x="1250" y="345" on="0"/>
        <pt x="1346" y="243" on="0"/>
        <pt x="1424" y="167" on="0"/>
        <pt x="1456" y="134" on="1"/>
        <pt x="1056" y="-90" on="1"/>
        <pt x="604" y="510" on="1"/>
        <pt x="604" y="0" on="1"/>
        <pt x="164" y="0" on="1"/>
      </contour>
    </TTGlyph>
    <TTGlyph name="k.alt2" xMin="178" yMin="-42" xMax="1374" yMax="1376">
      <contour>
        <pt x="178" y="1310" on="1"/>
        <pt x="610" y="1376" on="1"/>
        <pt x="610" y="712" on="1"/>
        <pt x="1136" y="1142" on="1"/>
        <pt x="1374" y="822" on="1"/>
        <pt x="1042" y="592" on="1"/>
        <pt x="1045" y="579" on="0"/>
        <pt x="1060" y="533" on="0"/>
        <pt x="1088" y="479" on="0"/>
        <pt x="1132" y="422" on="0"/>
        <pt x="1195" y="376" on="0"/>
        <pt x="1280" y="346" on="0"/>
        <pt x="1336" y="346" on="1"/>
        <pt x="1296" y="-42" on="1"/>
        <pt x="1191" y="-42" on="0"/>
        <pt x="1033" y="3" on="0"/>
        <pt x="916" y="76" on="0"/>
        <pt x="836" y="170" on="0"/>
        <pt x="783" y="266" on="0"/>
        <pt x="750" y="356" on="0"/>
        <pt x="740" y="390" on="1"/>
        <pt x="610" y="282" on="1"/>
        <pt x="610" y="0" on="1"/>
        <pt x="178" y="0" on="1"/>
      </contour>
    </TTGlyph>
    <TTGlyph name="kcommaaccent" xMin="182" yMin="-841" xMax="1378" yMax="1414">
      <component glyphName="k" x="0" y="0" flags="0x4"/>
      <component glyphName="comma" x="388" y="-495" flags="0x4"/>
    </TTGlyph>
    <TTGlyph name="kgreenlandic" xMin="188" yMin="-30" xMax="1374" yMax="1024">
      <contour>
        <pt x="1226" y="1024" on="1"/>
        <pt x="1374" y="848" on="1"/>
        <pt x="1032" y="572" on="1"/>
        <pt x="1045" y="510" on="0"/>
        <pt x="1073" y="414" on="0"/>
        <pt x="1120" y="348" on="0"/>
        <pt x="1193" y="314" on="0"/>
        <pt x="1250" y="314" on="1"/>
        <pt x="1270" y="314" on="0"/>
        <pt x="1312" y="321" on="0"/>
        <pt x="1338" y="326" on="1"/>
        <pt x="1306" y="-24" on="1"/>
        <pt x="1246" y="-30" on="0"/>
        <pt x="1194" y="-30" on="1"/>
        <pt x="1079" y="-30" on="0"/>
        <pt x="927" y="23" on="0"/>
        <pt x="827" y="123" on="0"/>
        <pt x="765" y="267" on="0"/>
        <pt x="740" y="358" on="1"/>
        <pt x="620" y="262" on="1"/>
        <pt x="620" y="0" on="1"/>
        <pt x="188" y="0" on="1"/>
        <pt x="188" y="1024" on="1"/>
        <pt x="620" y="1024" on="1"/>
        <pt x="620" y="692" on="1"/>
        <pt x="1006" y="1024" on="1"/>
      </contour>
    </TTGlyph>
    <TTGlyph name="l" xMin="164" yMin="-32" xMax="836" yMax="1414">
      <contour>
        <pt x="164" y="378" on="1"/>
        <pt x="164" y="1350" on="1"/>
        <pt x="596" y="1414" on="1"/>
        <pt x="596" y="408" on="1"/>
        <pt x="596" y="378" on="0"/>
        <pt x="617" y="337" on="0"/>
        <pt x="653" y="311" on="0"/>
        <pt x="700" y="300" on="0"/>
        <pt x="726" y="300" on="1"/>
        <pt x="772" y="300" on="0"/>
        <pt x="820" y="324" on="1"/>
        <pt x="836" y="38" on="1"/>
        <pt x="764" y="2" on="0"/>
        <pt x="606" y="-32" on="0"/>
        <pt x="528" y="-32" on="1"/>
        <pt x="454" y="-32" on="0"/>
        <pt x="322" y="15" on="0"/>
        <pt x="223" y="114" on="0"/>
        <pt x="164" y="269" on="0"/>
      </contour>
    </TTGlyph>
    <TTGlyph name="lacute" xMin="46" yMin="-32" xMax="854" yMax="1790">
      <component glyphName="l" x="0" y="0" flags="0x4"/>
      <component glyphName="acute" x="42" y="0" flags="0x4"/>
    </TTGlyph>
    <TTGlyph name="lcaron" xMin="164" yMin="-32" xMax="1402" yMax="1414">
      <component glyphName="l" x="0" y="0" flags="0x4"/>
      <component glyphName="quoteright" x="904" y="0" flags="0x4"/>
    </TTGlyph>
    <TTGlyph name="lcommaaccent" xMin="164" yMin="-841" xMax="836" yMax="1414">
      <component glyphName="l" x="0" y="0" flags="0x4"/>
      <component glyphName="comma" x="124" y="-495" flags="0x4"/>
    </TTGlyph>
    <TTGlyph name="ldot" xMin="164" yMin="-32" xMax="1450" yMax="1414">
      <component glyphName="l" x="0" y="0" flags="0x4"/>
      <component glyphName="periodcentered" x="904" y="0" flags="0x4"/>
    </TTGlyph>
    <TTGlyph name="less" xMin="0" yMin="0" xMax="780" yMax="1232">
      <contour>
        <pt x="0" y="804" on="1"/>
        <pt x="780" y="1232" on="1"/>
        <pt x="780" y="924" on="1"/>
        <pt x="172" y="620" on="1"/>
        <pt x="780" y="332" on="1"/>
        <pt x="780" y="0" on="1"/>
        <pt x="0" y="456" on="1"/>
      </contour>
    </TTGlyph>
    <TTGlyph name="lessequal" xMin="-194" yMin="0" xMax="632" yMax="1582">
      <contour>
        <pt x="-170" y="1154" on="1"/>
        <pt x="610" y="1582" on="1"/>
        <pt x="610" y="1274" on="1"/>
        <pt x="2" y="970" on="1"/>
        <pt x="610" y="682" on="1"/>
        <pt x="610" y="350" on="1"/>
        <pt x="-170" y="806" on="1"/>
      </contour>
      <contour>
        <pt x="-194" y="114" on="1"/>
        <pt x="632" y="114" on="1"/>
        <pt x="632" y="0" on="1"/>
        <pt x="-194" y="0" on="1"/>
      </contour>
    </TTGlyph>
    <TTGlyph name="longs" xMin="52" yMin="0" xMax="888" yMax="1572">
      <component glyphName="f" x="0" y="0" flags="0x4"/>
    </TTGlyph>
    <TTGlyph name="lslash" xMin="0" yMin="-32" xMax="812" yMax="1414">
      <contour>
        <pt x="0" y="788" on="1"/>
        <pt x="780" y="1026" on="1"/>
        <pt x="780" y="852" on="1"/>
        <pt x="0" y="614" on="1"/>
      </contour>
      <contour>
        <pt x="172" y="1350" on="1"/>
        <pt x="604" y="1414" on="1"/>
        <pt x="604" y="408" on="1"/>
        <pt x="604" y="349" on="0"/>
        <pt x="658" y="300" on="0"/>
        <pt x="702" y="300" on="1"/>
        <pt x="745" y="300" on="0"/>
        <pt x="790" y="324" on="1"/>
        <pt x="812" y="38" on="1"/>
        <pt x="743" y="2" on="0"/>
        <pt x="609" y="-32" on="0"/>
        <pt x="534" y="-32" on="1"/>
        <pt x="462" y="-32" on="0"/>
        <pt x="331" y="15" on="0"/>
        <pt x="231" y="114" on="0"/>
        <pt x="172" y="269" on="0"/>
        <pt x="172" y="378" on="1"/>
      </contour>
    </TTGlyph>
    <TTGlyph name="m" xMin="184" yMin="0" xMax="2086" yMax="1056">
      <contour>
        <pt x="184" y="990" on="1"/>
        <pt x="616" y="1056" on="1"/>
        <pt x="616" y="802" on="1"/>
        <pt x="646" y="869" on="0"/>
        <pt x="725" y="965" on="0"/>
        <pt x="815" y="1027" on="0"/>
        <pt x="915" y="1056" on="0"/>
        <pt x="966" y="1056" on="1"/>
        <pt x="1021" y="1056" on="0"/>
        <pt x="1129" y="1020" on="0"/>
        <pt x="1223" y="951" on="0"/>
        <pt x="1298" y="850" on="0"/>
        <pt x="1322" y="786" on="1"/>
        <pt x="1347" y="861" on="0"/>
        <pt x="1428" y="964" on="0"/>
        <pt x="1528" y="1028" on="0"/>
        <pt x="1641" y="1056" on="0"/>
        <pt x="1698" y="1056" on="1"/>
        <pt x="1774" y="1056" on="0"/>
        <pt x="1915" y="983" on="0"/>
        <pt x="2022" y="843" on="0"/>
        <pt x="2086" y="641" on="0"/>
        <pt x="2086" y="512" on="1"/>
        <pt x="2086" y="0" on="1"/>
        <pt x="1654" y="0" on="1"/>
        <pt x="1654" y="512" on="1"/>
        <pt x="1654" y="563" on="0"/>
        <pt x="1630" y="638" on="0"/>
        <pt x="1591" y="688" on="0"/>
        <pt x="1541" y="712" on="0"/>
        <pt x="1514" y="712" on="1"/>
        <pt x="1484" y="712" on="0"/>
        <pt x="1425" y="684" on="0"/>
        <pt x="1379" y="633" on="0"/>
        <pt x="1350" y="558" on="0"/>
        <pt x="1350" y="512" on="1"/>
        <pt x="1350" y="0" on="1"/>
        <pt x="922" y="0" on="1"/>
        <pt x="922" y="512" on="1"/>
        <pt x="922" y="563" on="0"/>
        <pt x="897" y="639" on="0"/>
        <pt x="856" y="688" on="0"/>
        <pt x="804" y="712" on="0"/>
        <pt x="778" y="712" on="1"/>
        <pt x="747" y="712" on="0"/>
        <pt x="690" y="685" on="0"/>
        <pt x="645" y="634" on="0"/>
        <pt x="617" y="563" on="0"/>
        <pt x="616" y="520" on="1"/>
        <pt x="616" y="0" on="1"/>
        <pt x="184" y="0" on="1"/>
      </contour>
    </TTGlyph>
    <TTGlyph name="macron" xMin="98" yMin="1202" xMax="584" yMax="1376">
      <component glyphName="hyphen" x="0" y="762" flags="0x204"/>
    </TTGlyph>
    <TTGlyph name="minus" xMin="190" yMin="0" xMax="1016" yMax="114">
      <contour>
        <pt x="190" y="114" on="1"/>
        <pt x="1016" y="114" on="1"/>
        <pt x="1016" y="0" on="1"/>
        <pt x="190" y="0" on="1"/>
      </contour>
    </TTGlyph>
    <TTGlyph name="mu" xMin="164" yMin="-300" xMax="1250" yMax="1026">
      <contour>
        <pt x="164" y="1026" on="1"/>
        <pt x="586" y="1026" on="1"/>
        <pt x="586" y="344" on="1"/>
        <pt x="609" y="329" on="0"/>
        <pt x="676" y="304" on="0"/>
        <pt x="714" y="304" on="1"/>
        <pt x="736" y="304" on="0"/>
        <pt x="781" y="322" on="0"/>
        <pt x="816" y="354" on="0"/>
        <pt x="838" y="399" on="0"/>
        <pt x="838" y="426" on="1"/>
        <pt x="838" y="1026" on="1"/>
        <pt x="1250" y="1026" on="1"/>
        <pt x="1250" y="440" on="1"/>
        <pt x="1250" y="338" on="0"/>
        <pt x="1181" y="165" on="0"/>
        <pt x="1060" y="39" on="0"/>
        <pt x="897" y="-32" on="0"/>
        <pt x="803" y="-32" on="1"/>
        <pt x="747" y="-32" on="0"/>
        <pt x="633" y="-5" on="0"/>
        <pt x="574" y="24" on="1"/>
        <pt x="574" y="-270" on="1"/>
        <pt x="164" y="-300" on="1"/>
      </contour>
    </TTGlyph>
    <TTGlyph name="multiply" xMin="94" yMin="122" xMax="904" yMax="920">
      <contour>
        <pt x="414" y="514" on="1"/>
        <pt x="94" y="836" on="1"/>
        <pt x="178" y="920" on="1"/>
        <pt x="500" y="600" on="1"/>
        <pt x="820" y="920" on="1"/>
        <pt x="904" y="836" on="1"/>
        <pt x="586" y="514" on="1"/>
        <pt x="896" y="202" on="1"/>
        <pt x="814" y="122" on="1"/>
        <pt x="500" y="434" on="1"/>
        <pt x="184" y="122" on="1"/>
        <pt x="102" y="202" on="1"/>
      </contour>
    </TTGlyph>
    <TTGlyph name="n" xMin="98" yMin="0" xMax="1306" yMax="1056">
      <contour>
        <pt x="98" y="990" on="1"/>
        <pt x="530" y="1056" on="1"/>
        <pt x="530" y="802" on="1"/>
        <pt x="560" y="867" on="0"/>
        <pt x="640" y="963" on="0"/>
        <pt x="733" y="1026" on="0"/>
        <pt x="835" y="1056" on="0"/>
        <pt x="886" y="1056" on="1"/>
        <pt x="962" y="1056" on="0"/>
        <pt x="1113" y="983" on="0"/>
        <pt x="1232" y="843" on="0"/>
        <pt x="1306" y="641" on="0"/>
        <pt x="1306" y="512" on="1"/>
        <pt x="1306" y="0" on="1"/>
        <pt x="876" y="0" on="1"/>
        <pt x="876" y="512" on="1"/>
        <pt x="876" y="553" on="0"/>
        <pt x="853" y="627" on="0"/>
        <pt x="814" y="683" on="0"/>
        <pt x="762" y="716" on="0"/>
        <pt x="732" y="716" on="1"/>
        <pt x="691" y="716" on="0"/>
        <pt x="619" y="684" on="0"/>
        <pt x="564" y="630" on="0"/>
        <pt x="531" y="559" on="0"/>
        <pt x="530" y="520" on="1"/>
        <pt x="530" y="0" on="1"/>
        <pt x="98" y="0" on="1"/>
      </contour>
    </TTGlyph>
    <TTGlyph name="n.alt" xMin="170" yMin="0" xMax="1378" yMax="1056">
      <contour>
        <pt x="170" y="960" on="1"/>
        <pt x="602" y="1026" on="1"/>
        <pt x="602" y="802" on="1"/>
        <pt x="632" y="868" on="0"/>
        <pt x="713" y="964" on="0"/>
        <pt x="806" y="1026" on="0"/>
        <pt x="908" y="1056" on="0"/>
        <pt x="958" y="1056" on="1"/>
        <pt x="1035" y="1056" on="0"/>
        <pt x="1186" y="983" on="0"/>
        <pt x="1305" y="843" on="0"/>
        <pt x="1378" y="641" on="0"/>
        <pt x="1378" y="512" on="1"/>
        <pt x="1378" y="0" on="1"/>
        <pt x="948" y="0" on="1"/>
        <pt x="948" y="512" on="1"/>
        <pt x="948" y="553" on="0"/>
        <pt x="925" y="627" on="0"/>
        <pt x="886" y="683" on="0"/>
        <pt x="834" y="716" on="0"/>
        <pt x="804" y="716" on="1"/>
        <pt x="763" y="716" on="0"/>
        <pt x="691" y="684" on="0"/>
        <pt x="636" y="630" on="0"/>
        <pt x="603" y="559" on="0"/>
        <pt x="602" y="520" on="1"/>
        <pt x="602" y="0" on="1"/>
        <pt x="170" y="0" on="1"/>
      </contour>
    </TTGlyph>
    <TTGlyph name="nacute" xMin="98" yMin="0" xMax="1306" yMax="1790">
      <component glyphName="n" x="0" y="0" flags="0x4"/>
      <component glyphName="acute" x="370" y="0" flags="0x4"/>
    </TTGlyph>
    <TTGlyph name="napostrophe" xMin="98" yMin="0" xMax="1306" yMax="1056">
      <component glyphName="n" x="0" y="0" flags="0x4"/>
    </TTGlyph>
    <TTGlyph name="ncaron" xMin="98" yMin="0" xMax="1306" yMax="1640">
      <component glyphName="n" x="0" y="0" flags="0x4"/>
      <component glyphName="caron" x="288" y="0" flags="0x4"/>
    </TTGlyph>
    <TTGlyph name="ncommaaccent" xMin="98" yMin="-841" xMax="1306" yMax="1056">
      <component glyphName="n" x="0" y="0" flags="0x4"/>
      <component glyphName="comma" x="418" y="-495" flags="0x4"/>
    </TTGlyph>
    <TTGlyph name="nine" xMin="92" yMin="-32" xMax="1332" yMax="1414">
      <contour>
        <pt x="270" y="422" on="1"/>
        <pt x="363" y="380" on="0"/>
        <pt x="535" y="328" on="0"/>
        <pt x="610" y="328" on="1"/>
        <pt x="658" y="328" on="0"/>
        <pt x="742" y="355" on="0"/>
        <pt x="809" y="418" on="0"/>
        <pt x="856" y="519" on="0"/>
        <pt x="868" y="594" on="1"/>
        <pt x="817" y="552" on="0"/>
        <pt x="687" y="502" on="0"/>
        <pt x="600" y="502" on="1"/>
        <pt x="465" y="502" on="0"/>
        <pt x="272" y="576" on="0"/>
        <pt x="149" y="698" on="0"/>
        <pt x="92" y="855" on="0"/>
        <pt x="92" y="938" on="1"/>
        <pt x="92" y="1028" on="0"/>
        <pt x="169" y="1199" on="0"/>
        <pt x="322" y="1333" on="0"/>
        <pt x="550" y="1414" on="0"/>
        <pt x="702" y="1414" on="1"/>
        <pt x="806" y="1414" on="0"/>
        <pt x="980" y="1361" on="0"/>
        <pt x="1120" y="1265" on="0"/>
        <pt x="1226" y="1132" on="0"/>
        <pt x="1296" y="971" on="0"/>
        <pt x="1332" y="789" on="0"/>
        <pt x="1332" y="692" on="1"/>
        <pt x="1332" y="524" on="0"/>
        <pt x="1228" y="256" on="0"/>
        <pt x="1048" y="68" on="0"/>
        <pt x="803" y="-32" on="0"/>
        <pt x="662" y="-32" on="1"/>
        <pt x="541" y="-32" on="0"/>
        <pt x="293" y="40" on="0"/>
        <pt x="162" y="118" on="1"/>
      </contour>
      <contour>
        <pt x="866" y="818" on="1"/>
        <pt x="851" y="947" on="0"/>
        <pt x="771" y="1080" on="0"/>
        <pt x="702" y="1080" on="1"/>
        <pt x="658" y="1080" on="0"/>
        <pt x="593" y="1055" on="0"/>
        <pt x="551" y="1015" on="0"/>
        <pt x="530" y="964" on="0"/>
        <pt x="530" y="938" on="1"/>
        <pt x="530" y="911" on="0"/>
        <pt x="549" y="857" on="0"/>
        <pt x="588" y="815" on="0"/>
        <pt x="644" y="788" on="0"/>
        <pt x="682" y="788" on="1"/>
        <pt x="739" y="788" on="0"/>
        <pt x="828" y="804" on="0"/>
      </contour>
    </TTGlyph>
    <TTGlyph name="notequal" xMin="2" yMin="0" xMax="626" yMax="1026">
      <contour>
        <pt x="378" y="1026" on="1"/>
        <pt x="520" y="1026" on="1"/>
        <pt x="246" y="0" on="1"/>
        <pt x="108" y="0" on="1"/>
      </contour>
      <contour>
        <pt x="2" y="442" on="1"/>
        <pt x="626" y="442" on="1"/>
        <pt x="626" y="318" on="1"/>
        <pt x="2" y="318" on="1"/>
      </contour>
      <contour>
        <pt x="2" y="720" on="1"/>
        <pt x="626" y="720" on="1"/>
        <pt x="626" y="594" on="1"/>
        <pt x="2" y="594" on="1"/>
      </contour>
    </TTGlyph>
    <TTGlyph name="ntilde" xMin="98" yMin="0" xMax="1306" yMax="1612">
      <component glyphName="n" x="0" y="0" flags="0x4"/>
      <component glyphName="tilde" x="206" y="0" flags="0x4"/>
    </TTGlyph>
    <TTGlyph name="numbersign" xMin="36" yMin="0" xMax="992" yMax="1376">
      <contour>
        <pt x="192" y="502" on="1"/>
        <pt x="36" y="502" on="1"/>
        <pt x="52" y="624" on="1"/>
        <pt x="220" y="624" on="1"/>
        <pt x="258" y="776" on="1"/>
        <pt x="74" y="776" on="1"/>
        <pt x="90" y="902" on="1"/>
        <pt x="288" y="902" on="1"/>
        <pt x="406" y="1376" on="1"/>
        <pt x="588" y="1376" on="1"/>
        <pt x="470" y="902" on="1"/>
        <pt x="664" y="902" on="1"/>
        <pt x="780" y="1376" on="1"/>
        <pt x="962" y="1376" on="1"/>
        <pt x="846" y="902" on="1"/>
        <pt x="992" y="902" on="1"/>
        <pt x="976" y="776" on="1"/>
        <pt x="812" y="776" on="1"/>
        <pt x="776" y="624" on="1"/>
        <pt x="954" y="624" on="1"/>
        <pt x="938" y="502" on="1"/>
        <pt x="744" y="502" on="1"/>
        <pt x="622" y="0" on="1"/>
        <pt x="444" y="0" on="1"/>
        <pt x="566" y="502" on="1"/>
        <pt x="370" y="502" on="1"/>
        <pt x="248" y="0" on="1"/>
        <pt x="70" y="0" on="1"/>
      </contour>
      <contour>
        <pt x="596" y="624" on="1"/>
        <pt x="632" y="776" on="1"/>
        <pt x="438" y="776" on="1"/>
        <pt x="400" y="624" on="1"/>
      </contour>
    </TTGlyph>
    <TTGlyph name="o" xMin="70" yMin="-32" xMax="1250" yMax="1056">
      <contour>
        <pt x="662" y="310" on="1"/>
        <pt x="698" y="310" on="0"/>
        <pt x="764" y="343" on="0"/>
        <pt x="815" y="399" on="0"/>
        <pt x="846" y="473" on="0"/>
        <pt x="846" y="514" on="1"/>
        <pt x="846" y="556" on="0"/>
        <pt x="815" y="630" on="0"/>
        <pt x="764" y="686" on="0"/>
        <pt x="698" y="718" on="0"/>
        <pt x="662" y="718" on="1"/>
        <pt x="623" y="718" on="0"/>
        <pt x="556" y="685" on="0"/>
        <pt x="507" y="630" on="0"/>
        <pt x="480" y="556" on="0"/>
        <pt x="480" y="514" on="1"/>
        <pt x="480" y="473" on="0"/>
        <pt x="508" y="399" on="0"/>
        <pt x="557" y="343" on="0"/>
        <pt x="624" y="310" on="0"/>
      </contour>
      <contour>
        <pt x="70" y="514" on="1"/>
        <pt x="71" y="647" on="0"/>
        <pt x="172" y="849" on="0"/>
        <pt x="338" y="986" on="0"/>
        <pt x="550" y="1056" on="0"/>
        <pt x="662" y="1056" on="1"/>
        <pt x="734" y="1056" on="0"/>
        <pt x="877" y="1025" on="0"/>
        <pt x="1008" y="963" on="0"/>
        <pt x="1120" y="872" on="0"/>
        <pt x="1203" y="752" on="0"/>
        <pt x="1250" y="602" on="0"/>
        <pt x="1250" y="514" on="1"/>
        <pt x="1250" y="425" on="0"/>
        <pt x="1203" y="275" on="0"/>
        <pt x="1121" y="154" on="0"/>
        <pt x="1009" y="61" on="0"/>
        <pt x="878" y="-1" on="0"/>
        <pt x="734" y="-32" on="0"/>
        <pt x="660" y="-32" on="1"/>
        <pt x="585" y="-32" on="0"/>
        <pt x="440" y="-1" on="0"/>
        <pt x="309" y="61" on="0"/>
        <pt x="197" y="153" on="0"/>
        <pt x="116" y="274" on="0"/>
        <pt x="70" y="425" on="0"/>
      </contour>
    </TTGlyph>
    <TTGlyph name="oacute" xMin="70" yMin="-32" xMax="1250" yMax="1790">
      <component glyphName="o" x="0" y="0" flags="0x4"/>
      <component glyphName="acute" x="280" y="0" flags="0x4"/>
    </TTGlyph>
    <TTGlyph name="obreve" xMin="70" yMin="-32" xMax="1250" yMax="1500">
      <component glyphName="o" x="0" y="0" flags="0x4"/>
      <component glyphName="breve" x="300" y="0" flags="0x4"/>
    </TTGlyph>
    <TTGlyph name="ocircumflex" xMin="70" yMin="-32" xMax="1250" yMax="1640">
      <component glyphName="o" x="0" y="0" flags="0x4"/>
      <component glyphName="circumflex" x="198" y="0" flags="0x4"/>
    </TTGlyph>
    <TTGlyph name="odieresis" xMin="70" yMin="-32" xMax="1250" yMax="1536">
      <component glyphName="o" x="0" y="0" flags="0x4"/>
      <component glyphName="dieresis" x="66" y="0" flags="0x4"/>
    </TTGlyph>
    <TTGlyph name="oe" xMin="78" yMin="-32" xMax="1874" yMax="1056">
      <contour>
        <pt x="1832" y="52" on="1"/>
        <pt x="1646" y="-32" on="0"/>
        <pt x="1412" y="-32" on="1"/>
        <pt x="1307" y="-32" on="0"/>
        <pt x="1115" y="49" on="0"/>
        <pt x="1034" y="134" on="1"/>
        <pt x="956" y="48" on="0"/>
        <pt x="766" y="-32" on="0"/>
        <pt x="668" y="-32" on="1"/>
        <pt x="593" y="-32" on="0"/>
        <pt x="448" y="-1" on="0"/>
        <pt x="317" y="61" on="0"/>
        <pt x="205" y="153" on="0"/>
        <pt x="124" y="274" on="0"/>
        <pt x="78" y="425" on="0"/>
        <pt x="78" y="514" on="1"/>
        <pt x="78" y="647" on="0"/>
        <pt x="180" y="849" on="0"/>
        <pt x="346" y="986" on="0"/>
        <pt x="559" y="1056" on="0"/>
        <pt x="670" y="1056" on="1"/>
        <pt x="769" y="1056" on="0"/>
        <pt x="956" y="982" on="0"/>
        <pt x="1034" y="910" on="1"/>
        <pt x="1112" y="982" on="0"/>
        <pt x="1301" y="1056" on="0"/>
        <pt x="1400" y="1056" on="1"/>
        <pt x="1491" y="1056" on="0"/>
        <pt x="1662" y="993" on="0"/>
        <pt x="1794" y="865" on="0"/>
        <pt x="1874" y="670" on="0"/>
        <pt x="1874" y="538" on="1"/>
        <pt x="1874" y="527" on="0"/>
        <pt x="1872" y="498" on="0"/>
        <pt x="1870" y="486" on="1"/>
        <pt x="1254" y="406" on="1"/>
        <pt x="1269" y="364" on="0"/>
        <pt x="1315" y="308" on="0"/>
        <pt x="1372" y="275" on="0"/>
        <pt x="1441" y="262" on="0"/>
        <pt x="1480" y="262" on="1"/>
        <pt x="1521" y="262" on="0"/>
        <pt x="1604" y="276" on="0"/>
        <pt x="1683" y="297" on="0"/>
        <pt x="1754" y="323" on="0"/>
        <pt x="1782" y="334" on="1"/>
      </contour>
      <contour>
        <pt x="670" y="310" on="1"/>
        <pt x="706" y="310" on="0"/>
        <pt x="772" y="343" on="0"/>
        <pt x="823" y="399" on="0"/>
        <pt x="854" y="473" on="0"/>
        <pt x="854" y="514" on="1"/>
        <pt x="854" y="556" on="0"/>
        <pt x="823" y="630" on="0"/>
        <pt x="772" y="686" on="0"/>
        <pt x="706" y="718" on="0"/>
        <pt x="670" y="718" on="1"/>
        <pt x="630" y="718" on="0"/>
        <pt x="563" y="685" on="0"/>
        <pt x="514" y="629" on="0"/>
        <pt x="486" y="555" on="0"/>
        <pt x="486" y="514" on="1"/>
        <pt x="486" y="473" on="0"/>
        <pt x="515" y="399" on="0"/>
        <pt x="565" y="343" on="0"/>
        <pt x="632" y="310" on="0"/>
      </contour>
      <contour>
        <pt x="1556" y="664" on="1"/>
        <pt x="1547" y="698" on="0"/>
        <pt x="1515" y="747" on="0"/>
        <pt x="1473" y="778" on="0"/>
        <pt x="1425" y="792" on="0"/>
        <pt x="1400" y="792" on="1"/>
        <pt x="1370" y="792" on="0"/>
        <pt x="1314" y="769" on="0"/>
        <pt x="1270" y="720" on="0"/>
        <pt x="1241" y="645" on="0"/>
        <pt x="1238" y="594" on="1"/>
      </contour>
    </TTGlyph>
    <TTGlyph name="ogonek" xMin="86" yMin="-508" xMax="508" yMax="0">
      <contour>
        <pt x="508" y="-464" on="1"/>
        <pt x="451" y="-488" on="0"/>
        <pt x="355" y="-508" on="0"/>
        <pt x="310" y="-508" on="1"/>
        <pt x="259" y="-508" on="0"/>
        <pt x="176" y="-482" on="0"/>
        <pt x="117" y="-435" on="0"/>
        <pt x="86" y="-370" on="0"/>
        <pt x="86" y="-332" on="1"/>
        <pt x="86" y="-291" on="0"/>
        <pt x="120" y="-221" on="0"/>
        <pt x="189" y="-147" on="0"/>
        <pt x="292" y="-59" on="0"/>
        <pt x="362" y="0" on="1"/>
        <pt x="474" y="0" on="1"/>
        <pt x="444" y="-61" on="0"/>
        <pt x="397" y="-145" on="0"/>
        <pt x="360" y="-205" on="0"/>
        <pt x="333" y="-245" on="0"/>
        <pt x="316" y="-277" on="0"/>
        <pt x="308" y="-308" on="0"/>
        <pt x="308" y="-328" on="1"/>
        <pt x="308" y="-370" on="0"/>
        <pt x="365" y="-402" on="0"/>
        <pt x="410" y="-402" on="1"/>
        <pt x="431" y="-402" on="0"/>
        <pt x="480" y="-394" on="0"/>
        <pt x="506" y="-388" on="1"/>
      </contour>
    </TTGlyph>
    <TTGlyph name="ograve" xMin="70" yMin="-32" xMax="1250" yMax="1790">
      <component glyphName="o" x="0" y="0" flags="0x4"/>
      <component glyphName="grave" x="280" y="0" flags="0x4"/>
    </TTGlyph>
    <TTGlyph name="ohungarumlaut" xMin="70" yMin="-32" xMax="1280" yMax="2010">
      <component glyphName="o" x="0" y="0" flags="0x4"/>
      <component glyphName="hungarumlaut" x="46" y="0" flags="0x4"/>
    </TTGlyph>
    <TTGlyph name="omacron" xMin="70" yMin="-32" xMax="1250" yMax="1376">
      <component glyphName="o" x="0" y="0" flags="0x4"/>
      <component glyphName="hyphen" x="380" y="762" flags="0x4"/>
    </TTGlyph>
    <TTGlyph name="one" xMin="118" yMin="0" xMax="902" yMax="1376">
      <contour>
        <pt x="118" y="302" on="1"/>
        <pt x="290" y="302" on="1"/>
        <pt x="290" y="988" on="1"/>
        <pt x="118" y="976" on="1"/>
        <pt x="118" y="1242" on="1"/>
        <pt x="196" y="1242" on="0"/>
        <pt x="338" y="1284" on="0"/>
        <pt x="392" y="1308" on="1"/>
        <pt x="425" y="1323" on="0"/>
        <pt x="487" y="1356" on="0"/>
        <pt x="516" y="1376" on="1"/>
        <pt x="730" y="1376" on="1"/>
        <pt x="730" y="302" on="1"/>
        <pt x="902" y="302" on="1"/>
        <pt x="902" y="0" on="1"/>
        <pt x="118" y="0" on="1"/>
      </contour>
    </TTGlyph>
    <TTGlyph name="onehalf" xMin="80" yMin="0" xMax="1294" yMax="1376">
      <component glyphName="onesuperior" x="0" y="0" flags="0x4"/>
      <component glyphName="slash" x="406" y="0" flags="0x4"/>
      <component glyphName="twosuperior" x="692" y="-649" flags="0x4"/>
    </TTGlyph>
    <TTGlyph name="onequarter" xMin="80" yMin="0" xMax="1514" yMax="1376">
      <component glyphName="onesuperior" x="0" y="0" flags="0x4"/>
      <component glyphName="slash" x="476" y="0" flags="0x4"/>
      <component glyphName="foursuperior" x="830" y="-649" flags="0x4"/>
    </TTGlyph>
    <TTGlyph name="onesuperior" xMin="80" yMin="650" xMax="492" yMax="1376">
      <contour>
        <pt x="80" y="810" on="1"/>
        <pt x="170" y="810" on="1"/>
        <pt x="170" y="1172" on="1"/>
        <pt x="80" y="1164" on="1"/>
        <pt x="80" y="1306" on="1"/>
        <pt x="145" y="1306" on="0"/>
        <pt x="253" y="1350" on="0"/>
        <pt x="288" y="1376" on="1"/>
        <pt x="402" y="1376" on="1"/>
        <pt x="402" y="810" on="1"/>
        <pt x="492" y="810" on="1"/>
        <pt x="492" y="650" on="1"/>
        <pt x="80" y="650" on="1"/>
      </contour>
    </TTGlyph>
    <TTGlyph name="ordfeminine" xMin="74" yMin="-32" xMax="1342" yMax="1056">
      <component glyphName="a" x="0" y="0" flags="0x4"/>
    </TTGlyph>
    <TTGlyph name="ordmasculine" xMin="70" yMin="-32" xMax="1250" yMax="1056">
      <component glyphName="o" x="0" y="0" flags="0x4"/>
    </TTGlyph>
    <TTGlyph name="oslash" xMin="40" yMin="-174" xMax="1176" yMax="1202">
      <contour>
        <pt x="418" y="-2" on="1"/>
        <pt x="340" y="23" on="0"/>
        <pt x="202" y="113" on="0"/>
        <pt x="100" y="242" on="0"/>
        <pt x="40" y="410" on="0"/>
        <pt x="40" y="514" on="1"/>
        <pt x="40" y="608" on="0"/>
        <pt x="88" y="761" on="0"/>
        <pt x="172" y="882" on="0"/>
        <pt x="287" y="970" on="0"/>
        <pt x="420" y="1028" on="0"/>
        <pt x="568" y="1056" on="0"/>
        <pt x="642" y="1056" on="1"/>
        <pt x="650" y="1056" on="0"/>
        <pt x="665" y="1056" on="0"/>
        <pt x="674" y="1054" on="1"/>
        <pt x="676" y="1054" on="1"/>
        <pt x="712" y="1202" on="1"/>
        <pt x="830" y="1202" on="1"/>
        <pt x="788" y="1032" on="1"/>
        <pt x="867" y="1008" on="0"/>
        <pt x="1008" y="918" on="0"/>
        <pt x="1114" y="788" on="0"/>
        <pt x="1176" y="618" on="0"/>
        <pt x="1176" y="514" on="1"/>
        <pt x="1176" y="420" on="0"/>
        <pt x="1126" y="266" on="0"/>
        <pt x="1039" y="145" on="0"/>
        <pt x="921" y="56" on="0"/>
        <pt x="785" y="-3" on="0"/>
        <pt x="635" y="-32" on="0"/>
        <pt x="561" y="-32" on="1"/>
        <pt x="553" y="-32" on="0"/>
        <pt x="537" y="-32" on="0"/>
        <pt x="526" y="-30" on="1"/>
        <pt x="492" y="-174" on="1"/>
        <pt x="376" y="-174" on="1"/>
      </contour>
      <contour>
        <pt x="606" y="288" on="1"/>
        <pt x="644" y="294" on="0"/>
        <pt x="713" y="334" on="0"/>
        <pt x="765" y="394" on="0"/>
        <pt x="796" y="471" on="0"/>
        <pt x="796" y="514" on="1"/>
        <pt x="796" y="571" on="0"/>
        <pt x="748" y="670" on="0"/>
        <pt x="706" y="700" on="1"/>
      </contour>
      <contour>
        <pt x="600" y="738" on="1"/>
        <pt x="561" y="736" on="0"/>
        <pt x="494" y="699" on="0"/>
        <pt x="444" y="638" on="0"/>
        <pt x="416" y="558" on="0"/>
        <pt x="416" y="514" on="1"/>
        <pt x="416" y="457" on="0"/>
        <pt x="461" y="358" on="0"/>
        <pt x="500" y="328" on="1"/>
      </contour>
    </TTGlyph>
    <TTGlyph name="oslash.alt" xMin="40" yMin="-174" xMax="1220" yMax="1202">
      <contour>
        <pt x="626" y="288" on="1"/>
        <pt x="582" y="288" on="0"/>
        <pt x="505" y="325" on="0"/>
        <pt x="448" y="387" on="0"/>
        <pt x="416" y="469" on="0"/>
        <pt x="416" y="514" on="1"/>
        <pt x="416" y="559" on="0"/>
        <pt x="448" y="640" on="0"/>
        <pt x="505" y="702" on="0"/>
        <pt x="582" y="738" on="0"/>
        <pt x="626" y="738" on="1"/>
        <pt x="669" y="738" on="0"/>
        <pt x="748" y="702" on="0"/>
        <pt x="807" y="640" on="0"/>
        <pt x="842" y="559" on="0"/>
        <pt x="842" y="514" on="1"/>
        <pt x="842" y="469" on="0"/>
        <pt x="807" y="387" on="0"/>
        <pt x="748" y="325" on="0"/>
        <pt x="669" y="288" on="0"/>
      </contour>
      <contour>
        <pt x="40" y="514" on="1"/>
        <pt x="40" y="647" on="0"/>
        <pt x="142" y="849" on="0"/>
        <pt x="308" y="986" on="0"/>
        <pt x="521" y="1056" on="0"/>
        <pt x="632" y="1056" on="1"/>
        <pt x="704" y="1056" on="0"/>
        <pt x="847" y="1025" on="0"/>
        <pt x="978" y="963" on="0"/>
        <pt x="1090" y="872" on="0"/>
        <pt x="1173" y="752" on="0"/>
        <pt x="1220" y="602" on="0"/>
        <pt x="1220" y="514" on="1"/>
        <pt x="1220" y="424" on="0"/>
        <pt x="1173" y="274" on="0"/>
        <pt x="1091" y="153" on="0"/>
        <pt x="978" y="61" on="0"/>
        <pt x="847" y="-1" on="0"/>
        <pt x="703" y="-32" on="0"/>
        <pt x="630" y="-32" on="1"/>
        <pt x="555" y="-32" on="0"/>
        <pt x="410" y="-1" on="0"/>
        <pt x="279" y="61" on="0"/>
        <pt x="167" y="153" on="0"/>
        <pt x="86" y="274" on="0"/>
        <pt x="40" y="425" on="0"/>
      </contour>
      <contour>
        <pt x="730" y="1202" on="1"/>
        <pt x="872" y="1202" on="1"/>
        <pt x="532" y="-174" on="1"/>
        <pt x="394" y="-174" on="1"/>
      </contour>
    </TTGlyph>
    <TTGlyph name="otilde" xMin="70" yMin="-32" xMax="1250" yMax="1612">
      <component glyphName="o" x="0" y="0" flags="0x4"/>
      <component glyphName="tilde" x="128" y="0" flags="0x4"/>
    </TTGlyph>
    <TTGlyph name="p" xMin="184" yMin="-348" xMax="1452" yMax="1056">
      <contour>
        <pt x="184" y="990" on="1"/>
        <pt x="616" y="1056" on="1"/>
        <pt x="616" y="834" on="1"/>
        <pt x="672" y="950" on="0"/>
        <pt x="848" y="1056" on="0"/>
        <pt x="950" y="1056" on="1"/>
        <pt x="1011" y="1056" on="0"/>
        <pt x="1133" y="1021" on="0"/>
        <pt x="1244" y="955" on="0"/>
        <pt x="1341" y="860" on="0"/>
        <pt x="1412" y="739" on="0"/>
        <pt x="1452" y="594" on="0"/>
        <pt x="1452" y="512" on="1"/>
        <pt x="1452" y="389" on="0"/>
        <pt x="1364" y="188" on="0"/>
        <pt x="1222" y="46" on="0"/>
        <pt x="1043" y="-32" on="0"/>
        <pt x="952" y="-32" on="1"/>
        <pt x="846" y="-32" on="0"/>
        <pt x="673" y="75" on="0"/>
        <pt x="616" y="190" on="1"/>
        <pt x="616" y="-266" on="1"/>
        <pt x="184" y="-348" on="1"/>
      </contour>
      <contour>
        <pt x="616" y="512" on="1"/>
        <pt x="616" y="471" on="0"/>
        <pt x="649" y="397" on="0"/>
        <pt x="704" y="341" on="0"/>
        <pt x="777" y="308" on="0"/>
        <pt x="818" y="308" on="1"/>
        <pt x="861" y="308" on="0"/>
        <pt x="936" y="341" on="0"/>
        <pt x="992" y="397" on="0"/>
        <pt x="1024" y="471" on="0"/>
        <pt x="1024" y="512" on="1"/>
        <pt x="1024" y="554" on="0"/>
        <pt x="992" y="628" on="0"/>
        <pt x="936" y="684" on="0"/>
        <pt x="861" y="716" on="0"/>
        <pt x="818" y="716" on="1"/>
        <pt x="777" y="716" on="0"/>
        <pt x="706" y="684" on="0"/>
        <pt x="652" y="630" on="0"/>
        <pt x="619" y="559" on="0"/>
        <pt x="616" y="520" on="1"/>
      </contour>
    </TTGlyph>
    <TTGlyph name="paragraph" xMin="4" yMin="0" xMax="944" yMax="1376">
      <contour>
        <pt x="486" y="696" on="1"/>
        <pt x="400" y="696" on="1"/>
        <pt x="303" y="696" on="0"/>
        <pt x="155" y="755" on="0"/>
        <pt x="55" y="851" on="0"/>
        <pt x="4" y="973" on="0"/>
        <pt x="4" y="1036" on="1"/>
        <pt x="4" y="1100" on="0"/>
        <pt x="61" y="1222" on="0"/>
        <pt x="180" y="1318" on="0"/>
        <pt x="361" y="1376" on="0"/>
        <pt x="486" y="1376" on="1"/>
        <pt x="944" y="1376" on="1"/>
        <pt x="944" y="0" on="1"/>
        <pt x="780" y="0" on="1"/>
        <pt x="780" y="1222" on="1"/>
        <pt x="652" y="1222" on="1"/>
        <pt x="652" y="0" on="1"/>
        <pt x="486" y="0" on="1"/>
      </contour>
    </TTGlyph>
    <TTGlyph name="parenleft" xMin="28" yMin="-264" xMax="796" yMax="1582">
      <contour>
        <pt x="796" y="-264" on="1"/>
        <pt x="601" y="-246" on="0"/>
        <pt x="312" y="-87" on="0"/>
        <pt x="122" y="163" on="0"/>
        <pt x="28" y="486" on="0"/>
        <pt x="28" y="668" on="1"/>
        <pt x="28" y="781" on="0"/>
        <pt x="67" y="997" on="0"/>
        <pt x="149" y="1192" on="0"/>
        <pt x="273" y="1358" on="0"/>
        <pt x="444" y="1486" on="0"/>
        <pt x="662" y="1569" on="0"/>
        <pt x="796" y="1582" on="1"/>
        <pt x="796" y="1322" on="1"/>
        <pt x="765" y="1317" on="0"/>
        <pt x="695" y="1287" on="0"/>
        <pt x="625" y="1225" on="0"/>
        <pt x="562" y="1129" on="0"/>
        <pt x="513" y="987" on="0"/>
        <pt x="484" y="794" on="0"/>
        <pt x="484" y="668" on="1"/>
        <pt x="484" y="539" on="0"/>
        <pt x="512" y="343" on="0"/>
        <pt x="560" y="198" on="0"/>
        <pt x="623" y="98" on="0"/>
        <pt x="692" y="34" on="0"/>
        <pt x="764" y="2" on="0"/>
        <pt x="796" y="-4" on="1"/>
      </contour>
    </TTGlyph>
    <TTGlyph name="parenright" xMin="184" yMin="-264" xMax="952" yMax="1582">
      <contour>
        <pt x="184" y="-4" on="1"/>
        <pt x="214" y="1" on="0"/>
        <pt x="284" y="32" on="0"/>
        <pt x="354" y="94" on="0"/>
        <pt x="418" y="192" on="0"/>
        <pt x="467" y="338" on="0"/>
        <pt x="496" y="536" on="0"/>
        <pt x="496" y="668" on="1"/>
        <pt x="496" y="794" on="0"/>
        <pt x="467" y="987" on="0"/>
        <pt x="418" y="1129" on="0"/>
        <pt x="355" y="1225" on="0"/>
        <pt x="285" y="1287" on="0"/>
        <pt x="215" y="1317" on="0"/>
        <pt x="184" y="1322" on="1"/>
        <pt x="184" y="1582" on="1"/>
        <pt x="318" y="1569" on="0"/>
        <pt x="536" y="1486" on="0"/>
        <pt x="707" y="1358" on="0"/>
        <pt x="831" y="1192" on="0"/>
        <pt x="913" y="997" on="0"/>
        <pt x="952" y="781" on="0"/>
        <pt x="952" y="668" on="1"/>
        <pt x="952" y="486" on="0"/>
        <pt x="858" y="163" on="0"/>
        <pt x="668" y="-87" on="0"/>
        <pt x="379" y="-246" on="0"/>
        <pt x="184" y="-264" on="1"/>
      </contour>
    </TTGlyph>
    <TTGlyph name="percent" xMin="90" yMin="-32" xMax="1808" yMax="1414">
      <contour>
        <pt x="1038" y="1376" on="1"/>
        <pt x="1180" y="1376" on="1"/>
        <pt x="840" y="0" on="1"/>
        <pt x="702" y="0" on="1"/>
      </contour>
      <contour>
        <pt x="1436" y="-32" on="1"/>
        <pt x="1343" y="-32" on="0"/>
        <pt x="1203" y="37" on="0"/>
        <pt x="1110" y="149" on="0"/>
        <pt x="1064" y="293" on="0"/>
        <pt x="1064" y="368" on="1"/>
        <pt x="1064" y="442" on="0"/>
        <pt x="1111" y="586" on="0"/>
        <pt x="1204" y="700" on="0"/>
        <pt x="1344" y="770" on="0"/>
        <pt x="1436" y="770" on="1"/>
        <pt x="1527" y="770" on="0"/>
        <pt x="1667" y="700" on="0"/>
        <pt x="1760" y="586" on="0"/>
        <pt x="1808" y="442" on="0"/>
        <pt x="1808" y="368" on="1"/>
        <pt x="1808" y="293" on="0"/>
        <pt x="1761" y="149" on="0"/>
        <pt x="1668" y="37" on="0"/>
        <pt x="1529" y="-32" on="0"/>
      </contour>
      <contour>
        <pt x="1436" y="172" on="1"/>
        <pt x="1464" y="172" on="0"/>
        <pt x="1508" y="206" on="0"/>
        <pt x="1538" y="262" on="0"/>
        <pt x="1554" y="332" on="0"/>
        <pt x="1554" y="368" on="1"/>
        <pt x="1554" y="405" on="0"/>
        <pt x="1538" y="475" on="0"/>
        <pt x="1508" y="529" on="0"/>
        <pt x="1464" y="562" on="0"/>
        <pt x="1436" y="562" on="1"/>
        <pt x="1407" y="562" on="0"/>
        <pt x="1363" y="529" on="0"/>
        <pt x="1333" y="475" on="0"/>
        <pt x="1318" y="405" on="0"/>
        <pt x="1318" y="368" on="1"/>
        <pt x="1318" y="332" on="0"/>
        <pt x="1333" y="262" on="0"/>
        <pt x="1363" y="206" on="0"/>
        <pt x="1407" y="172" on="0"/>
      </contour>
      <contour>
        <pt x="460" y="614" on="1"/>
        <pt x="368" y="614" on="0"/>
        <pt x="229" y="682" on="0"/>
        <pt x="136" y="794" on="0"/>
        <pt x="90" y="938" on="0"/>
        <pt x="90" y="1014" on="1"/>
        <pt x="90" y="1090" on="0"/>
        <pt x="138" y="1234" on="0"/>
        <pt x="232" y="1346" on="0"/>
        <pt x="372" y="1414" on="0"/>
        <pt x="465" y="1414" on="1"/>
        <pt x="556" y="1414" on="0"/>
        <pt x="694" y="1344" on="0"/>
        <pt x="787" y="1230" on="0"/>
        <pt x="834" y="1087" on="0"/>
        <pt x="834" y="1014" on="1"/>
        <pt x="834" y="938" on="0"/>
        <pt x="787" y="794" on="0"/>
        <pt x="693" y="682" on="0"/>
        <pt x="553" y="614" on="0"/>
      </contour>
      <contour>
        <pt x="460" y="816" on="1"/>
        <pt x="489" y="816" on="0"/>
        <pt x="534" y="850" on="0"/>
        <pt x="564" y="906" on="0"/>
        <pt x="580" y="977" on="0"/>
        <pt x="580" y="1014" on="1"/>
        <pt x="580" y="1051" on="0"/>
        <pt x="564" y="1121" on="0"/>
        <pt x="534" y="1175" on="0"/>
        <pt x="489" y="1208" on="0"/>
        <pt x="460" y="1208" on="1"/>
        <pt x="431" y="1208" on="0"/>
        <pt x="388" y="1175" on="0"/>
        <pt x="359" y="1121" on="0"/>
        <pt x="344" y="1051" on="0"/>
        <pt x="344" y="1014" on="1"/>
        <pt x="344" y="977" on="0"/>
        <pt x="359" y="906" on="0"/>
        <pt x="388" y="850" on="0"/>
        <pt x="431" y="816" on="0"/>
      </contour>
    </TTGlyph>
    <TTGlyph name="period" xMin="86" yMin="-32" xMax="546" yMax="382">
      <contour>
        <pt x="86" y="176" on="1"/>
        <pt x="86" y="217" on="0"/>
        <pt x="123" y="292" on="0"/>
        <pt x="186" y="349" on="0"/>
        <pt x="269" y="382" on="0"/>
        <pt x="316" y="382" on="1"/>
        <pt x="362" y="382" on="0"/>
        <pt x="445" y="349" on="0"/>
        <pt x="508" y="292" on="0"/>
        <pt x="546" y="217" on="0"/>
        <pt x="546" y="176" on="1"/>
        <pt x="546" y="132" on="0"/>
        <pt x="508" y="57" on="0"/>
        <pt x="445" y="0" on="0"/>
        <pt x="362" y="-32" on="0"/>
        <pt x="316" y="-32" on="1"/>
        <pt x="269" y="-32" on="0"/>
        <pt x="186" y="0" on="0"/>
        <pt x="123" y="57" on="0"/>
        <pt x="86" y="132" on="0"/>
      </contour>
    </TTGlyph>
    <TTGlyph name="periodcentered" xMin="86" yMin="614" xMax="546" yMax="1028">
      <contour>
        <pt x="86" y="820" on="1"/>
        <pt x="86" y="862" on="0"/>
        <pt x="123" y="937" on="0"/>
        <pt x="186" y="994" on="0"/>
        <pt x="269" y="1028" on="0"/>
        <pt x="316" y="1028" on="1"/>
        <pt x="362" y="1028" on="0"/>
        <pt x="445" y="994" on="0"/>
        <pt x="508" y="937" on="0"/>
        <pt x="546" y="862" on="0"/>
        <pt x="546" y="820" on="1"/>
        <pt x="546" y="777" on="0"/>
        <pt x="508" y="702" on="0"/>
        <pt x="445" y="646" on="0"/>
        <pt x="362" y="614" on="0"/>
        <pt x="316" y="614" on="1"/>
        <pt x="269" y="614" on="0"/>
        <pt x="186" y="646" on="0"/>
        <pt x="123" y="702" on="0"/>
        <pt x="86" y="777" on="0"/>
      </contour>
    </TTGlyph>
    <TTGlyph name="perthousand" xMin="118" yMin="-32" xMax="2678" yMax="1414">
      <contour>
        <pt x="1066" y="1376" on="1"/>
        <pt x="1208" y="1376" on="1"/>
        <pt x="868" y="0" on="1"/>
        <pt x="730" y="0" on="1"/>
      </contour>
      <contour>
        <pt x="1464" y="-32" on="1"/>
        <pt x="1372" y="-32" on="0"/>
        <pt x="1233" y="37" on="0"/>
        <pt x="1140" y="149" on="0"/>
        <pt x="1094" y="293" on="0"/>
        <pt x="1094" y="368" on="1"/>
        <pt x="1094" y="442" on="0"/>
        <pt x="1141" y="586" on="0"/>
        <pt x="1234" y="700" on="0"/>
        <pt x="1372" y="770" on="0"/>
        <pt x="1464" y="770" on="1"/>
        <pt x="1556" y="770" on="0"/>
        <pt x="1696" y="700" on="0"/>
        <pt x="1789" y="586" on="0"/>
        <pt x="1836" y="442" on="0"/>
        <pt x="1836" y="368" on="1"/>
        <pt x="1836" y="293" on="0"/>
        <pt x="1790" y="149" on="0"/>
        <pt x="1697" y="37" on="0"/>
        <pt x="1558" y="-32" on="0"/>
      </contour>
      <contour>
        <pt x="1464" y="172" on="1"/>
        <pt x="1493" y="172" on="0"/>
        <pt x="1537" y="206" on="0"/>
        <pt x="1567" y="262" on="0"/>
        <pt x="1582" y="332" on="0"/>
        <pt x="1582" y="368" on="1"/>
        <pt x="1582" y="405" on="0"/>
        <pt x="1567" y="475" on="0"/>
        <pt x="1537" y="529" on="0"/>
        <pt x="1493" y="562" on="0"/>
        <pt x="1464" y="562" on="1"/>
        <pt x="1435" y="562" on="0"/>
        <pt x="1392" y="529" on="0"/>
        <pt x="1363" y="475" on="0"/>
        <pt x="1348" y="405" on="0"/>
        <pt x="1348" y="368" on="1"/>
        <pt x="1348" y="332" on="0"/>
        <pt x="1363" y="262" on="0"/>
        <pt x="1392" y="206" on="0"/>
        <pt x="1435" y="172" on="0"/>
      </contour>
      <contour>
        <pt x="488" y="614" on="1"/>
        <pt x="396" y="614" on="0"/>
        <pt x="258" y="682" on="0"/>
        <pt x="165" y="794" on="0"/>
        <pt x="118" y="938" on="0"/>
        <pt x="118" y="1014" on="1"/>
        <pt x="118" y="1090" on="0"/>
        <pt x="166" y="1234" on="0"/>
        <pt x="260" y="1346" on="0"/>
        <pt x="401" y="1414" on="0"/>
        <pt x="493" y="1414" on="1"/>
        <pt x="585" y="1414" on="0"/>
        <pt x="723" y="1344" on="0"/>
        <pt x="816" y="1230" on="0"/>
        <pt x="862" y="1087" on="0"/>
        <pt x="862" y="1014" on="1"/>
        <pt x="862" y="938" on="0"/>
        <pt x="816" y="794" on="0"/>
        <pt x="723" y="682" on="0"/>
        <pt x="582" y="614" on="0"/>
      </contour>
      <contour>
        <pt x="488" y="816" on="1"/>
        <pt x="518" y="816" on="0"/>
        <pt x="563" y="850" on="0"/>
        <pt x="593" y="906" on="0"/>
        <pt x="608" y="977" on="0"/>
        <pt x="608" y="1014" on="1"/>
        <pt x="608" y="1051" on="0"/>
        <pt x="593" y="1121" on="0"/>
        <pt x="563" y="1175" on="0"/>
        <pt x="518" y="1208" on="0"/>
        <pt x="488" y="1208" on="1"/>
        <pt x="460" y="1208" on="0"/>
        <pt x="417" y="1175" on="0"/>
        <pt x="387" y="1121" on="0"/>
        <pt x="372" y="1051" on="0"/>
        <pt x="372" y="1014" on="1"/>
        <pt x="372" y="977" on="0"/>
        <pt x="387" y="906" on="0"/>
        <pt x="417" y="850" on="0"/>
        <pt x="460" y="816" on="0"/>
      </contour>
      <contour>
        <pt x="2306" y="-32" on="1"/>
        <pt x="2214" y="-32" on="0"/>
        <pt x="2074" y="37" on="0"/>
        <pt x="1981" y="149" on="0"/>
        <pt x="1934" y="293" on="0"/>
        <pt x="1934" y="368" on="1"/>
        <pt x="1934" y="442" on="0"/>
        <pt x="1982" y="586" on="0"/>
        <pt x="2075" y="700" on="0"/>
        <pt x="2214" y="770" on="0"/>
        <pt x="2306" y="770" on="1"/>
        <pt x="2397" y="770" on="0"/>
        <pt x="2537" y="700" on="0"/>
        <pt x="2630" y="586" on="0"/>
        <pt x="2678" y="442" on="0"/>
        <pt x="2678" y="368" on="1"/>
        <pt x="2678" y="293" on="0"/>
        <pt x="2632" y="149" on="0"/>
        <pt x="2539" y="37" on="0"/>
        <pt x="2400" y="-32" on="0"/>
      </contour>
      <contour>
        <pt x="2306" y="172" on="1"/>
        <pt x="2335" y="172" on="0"/>
        <pt x="2379" y="206" on="0"/>
        <pt x="2409" y="262" on="0"/>
        <pt x="2424" y="332" on="0"/>
        <pt x="2424" y="368" on="1"/>
        <pt x="2424" y="405" on="0"/>
        <pt x="2409" y="475" on="0"/>
        <pt x="2379" y="529" on="0"/>
        <pt x="2335" y="562" on="0"/>
        <pt x="2306" y="562" on="1"/>
        <pt x="2277" y="562" on="0"/>
        <pt x="2233" y="529" on="0"/>
        <pt x="2203" y="475" on="0"/>
        <pt x="2188" y="405" on="0"/>
        <pt x="2188" y="368" on="1"/>
        <pt x="2188" y="332" on="0"/>
        <pt x="2203" y="262" on="0"/>
        <pt x="2233" y="206" on="0"/>
        <pt x="2277" y="172" on="0"/>
      </contour>
    </TTGlyph>
    <TTGlyph name="pi" xMin="92" yMin="-32" xMax="778" yMax="1376">
      <contour>
        <pt x="146" y="1026" on="1"/>
        <pt x="580" y="1026" on="1"/>
        <pt x="580" y="408" on="1"/>
        <pt x="580" y="349" on="0"/>
        <pt x="632" y="300" on="0"/>
        <pt x="668" y="300" on="1"/>
        <pt x="711" y="300" on="0"/>
        <pt x="756" y="324" on="1"/>
        <pt x="778" y="38" on="1"/>
        <pt x="715" y="2" on="0"/>
        <pt x="579" y="-32" on="0"/>
        <pt x="510" y="-32" on="1"/>
        <pt x="438" y="-32" on="0"/>
        <pt x="306" y="15" on="0"/>
        <pt x="206" y="114" on="0"/>
        <pt x="146" y="269" on="0"/>
        <pt x="146" y="378" on="1"/>
      </contour>
      <contour>
        <pt x="164" y="1376" on="1"/>
        <pt x="648" y="1376" on="1"/>
        <pt x="648" y="1202" on="1"/>
        <pt x="164" y="1202" on="1"/>
      </contour>
      <contour>
        <pt x="92" y="1026" on="1"/>
        <pt x="524" y="1026" on="1"/>
        <pt x="524" y="408" on="1"/>
        <pt x="524" y="379" on="0"/>
        <pt x="539" y="338" on="0"/>
        <pt x="563" y="312" on="0"/>
        <pt x="595" y="300" on="0"/>
        <pt x="612" y="300" on="1"/>
        <pt x="655" y="300" on="0"/>
        <pt x="700" y="324" on="1"/>
        <pt x="722" y="38" on="1"/>
        <pt x="659" y="2" on="0"/>
        <pt x="523" y="-32" on="0"/>
        <pt x="454" y="-32" on="1"/>
        <pt x="383" y="-32" on="0"/>
        <pt x="252" y="15" on="0"/>
        <pt x="152" y="114" on="0"/>
        <pt x="92" y="269" on="0"/>
        <pt x="92" y="378" on="1"/>
      </contour>
    </TTGlyph>
    <TTGlyph name="plus" xMin="0" yMin="0" xMax="996" yMax="1026">
      <contour>
        <pt x="440" y="458" on="1"/>
        <pt x="0" y="458" on="1"/>
        <pt x="0" y="572" on="1"/>
        <pt x="440" y="572" on="1"/>
        <pt x="440" y="1026" on="1"/>
        <pt x="560" y="1026" on="1"/>
        <pt x="560" y="572" on="1"/>
        <pt x="996" y="572" on="1"/>
        <pt x="996" y="458" on="1"/>
        <pt x="560" y="458" on="1"/>
        <pt x="560" y="0" on="1"/>
        <pt x="440" y="0" on="1"/>
      </contour>
    </TTGlyph>
    <TTGlyph name="plusminus" xMin="0" yMin="0" xMax="996" yMax="1212">
      <contour>
        <pt x="440" y="644" on="1"/>
        <pt x="0" y="644" on="1"/>
        <pt x="0" y="760" on="1"/>
        <pt x="440" y="760" on="1"/>
        <pt x="440" y="1212" on="1"/>
        <pt x="560" y="1212" on="1"/>
        <pt x="560" y="760" on="1"/>
        <pt x="996" y="760" on="1"/>
        <pt x="996" y="644" on="1"/>
        <pt x="560" y="644" on="1"/>
        <pt x="560" y="186" on="1"/>
        <pt x="440" y="186" on="1"/>
      </contour>
      <contour>
        <pt x="0" y="114" on="1"/>
        <pt x="996" y="114" on="1"/>
        <pt x="996" y="0" on="1"/>
        <pt x="0" y="0" on="1"/>
      </contour>
    </TTGlyph>
</ttFont>
